<svg width="400" height="400" viewBox="0 0 400 400" fill="none" xmlns="http://www.w3.org/2000/svg">
<rect width="400" height="400" fill="#F2FCE2"/>
<path d="M281.929 134.721C297.917 150.764 303.246 163.835 303.838 176.907C305.022 191.761 299.693 207.209 288.442 219.093C278.969 228.6 264.757 233.353 255.283 233.947C261.796 252.96 255.875 276.133 240.479 292.175C228.636 304.058 212.649 310 196.66 310C180.673 310 164.685 304.058 146.328 285.639L90.667 229.788L233.373 86L281.929 134.721ZM170.607 259.496C180.08 269.003 187.779 271.973 195.476 271.38C201.99 271.38 208.503 268.408 213.833 263.655C219.162 258.308 221.53 252.366 221.53 245.236C222.122 238.106 219.162 230.382 209.687 220.281L182.449 192.949L143.96 231.57L170.607 259.496ZM206.135 168.589L225.676 188.196C233.965 196.514 239.887 198.891 245.808 198.297C251.137 198.297 256.467 195.921 260.02 192.356C264.165 188.196 265.941 183.443 265.941 178.095C265.941 172.154 264.165 166.212 255.875 157.894L236.926 138.286L206.135 168.589Z" fill="black"/>
</svg>
