<svg width="400" height="400" viewBox="0 0 400 400" fill="none" xmlns="http://www.w3.org/2000/svg">
<rect width="400" height="400" fill="#FDE89E"/>
<path d="M191.312 89.5929C194.841 89.8337 197.506 92.8894 197.265 96.4181L196.019 114.683C195.821 117.583 198.225 119.993 201.126 119.803L311.091 112.573C314.621 112.341 317.67 115.014 317.902 118.543L319.582 144.104C319.814 147.633 317.142 150.682 313.612 150.914L197.197 158.568C194.797 158.726 192.884 160.634 192.72 163.034L190.07 201.875C189.906 204.273 191.541 206.423 193.895 206.906L273.254 223.21C276.718 223.922 278.95 227.307 278.238 230.772L273.083 255.864C272.371 259.328 268.986 261.56 265.521 260.848L192.529 245.853C189.68 245.267 186.968 247.329 186.77 250.23L182.443 313.65C182.202 317.179 179.146 319.844 175.618 319.603L150.061 317.86C146.532 317.619 143.867 314.563 144.107 311.034L148.877 241.131C149.041 238.732 147.406 236.583 145.052 236.099L116.741 230.283C113.276 229.571 111.045 226.185 111.757 222.721L116.912 197.629C117.624 194.164 121.009 191.933 124.474 192.644L146.418 197.153C149.267 197.738 151.979 195.677 152.177 192.775L153.945 166.867C154.142 163.967 151.738 161.557 148.837 161.748L96.342 165.199C92.8127 165.431 89.7635 162.758 89.5315 159.229L87.8509 133.668C87.6189 130.139 90.2918 127.089 93.8211 126.857L152.767 122.982C155.167 122.824 157.08 120.916 157.244 118.516L158.93 93.8023C159.171 90.2737 162.227 87.6083 165.755 87.8491L191.312 89.5929Z" fill="black"/>
</svg>
