<svg width="400" height="400" viewBox="0 0 400 400" fill="none" xmlns="http://www.w3.org/2000/svg">
<rect width="400" height="400" fill="url(#paint0_linear_10694_244)"/>
<path d="M196.842 330.032C132.803 330.032 93 285.106 93 212.837C93 154.196 128.675 94.8344 196.842 94.8344C205.662 94.7864 214.473 95.4118 223.197 96.7053C228.497 87.9847 234.665 79.8218 241.606 72.3411C242.264 71.6239 243.06 71.047 243.946 70.6451C244.832 70.2431 245.791 70.0244 246.764 70.0019C247.737 69.9795 248.704 70.1538 249.608 70.5145C250.512 70.8751 251.334 71.4147 252.024 72.1008L259.645 79.7216C260.95 81.0313 261.699 82.794 261.735 84.6423C261.772 86.4906 261.094 88.2818 259.843 89.6423C255.808 94.0444 252.08 98.7182 248.686 103.631C256.367 106.716 263.365 111.283 269.283 117.07C273.202 120.856 276.327 125.385 278.477 130.392C280.627 135.398 281.758 140.783 281.804 146.232C281.796 150.922 280.86 155.565 279.049 159.892C277.238 164.219 274.588 168.144 271.252 171.441C267.916 174.739 263.961 177.343 259.613 179.104C255.266 180.865 250.613 181.748 245.923 181.701C224.219 181.701 209.389 166.031 209.02 142.713C208.984 135.224 210.113 127.774 212.367 120.632C207.715 120.194 202.566 119.945 196.868 119.945C158.944 119.945 118.128 149.013 118.128 212.82C118.128 234.412 123.809 304.844 196.868 304.844C236.448 304.844 259.431 289.543 260.194 262.793C247.758 271.246 233.085 275.803 218.048 275.88C183.918 275.88 171.56 255.592 171.336 238.222C171.251 232.871 172.238 227.557 174.238 222.593C176.238 217.629 179.211 213.116 182.982 209.318C187.61 204.82 193.106 201.314 199.136 199.013C205.165 196.713 211.601 195.667 218.048 195.939C228.659 195.615 239.193 197.836 248.771 202.415C258.348 206.994 266.691 213.798 273.102 222.26C284.287 213.936 296.691 207.39 309.876 202.856C310.807 202.55 311.791 202.437 312.767 202.525C313.744 202.613 314.692 202.9 315.554 203.367C316.415 203.835 317.172 204.474 317.778 205.245C318.383 206.016 318.825 206.903 319.075 207.851L321.847 218.286C322.305 220.049 322.078 221.92 321.212 223.522C320.346 225.124 318.905 226.338 317.179 226.92C305.065 231.342 293.739 237.679 283.632 245.689C284.783 250.847 285.359 256.117 285.348 261.402C285.348 294.572 262.065 330.032 196.842 330.032ZM218.022 221.127C214.914 220.926 211.796 221.343 208.85 222.355C205.903 223.367 203.187 224.954 200.858 227.023C199.431 228.46 198.306 230.169 197.55 232.048C196.794 233.928 196.422 235.939 196.456 237.965C196.602 249.121 210.041 250.838 218.04 250.838C230.831 250.412 243.108 245.7 252.9 237.459C248.764 232.207 243.461 227.993 237.41 225.152C231.36 222.311 224.73 220.921 218.048 221.093L218.022 221.127ZM237.126 126.021C235.225 131.25 234.227 136.764 234.174 142.327C234.405 156.582 242.756 156.582 245.957 156.582C247.366 156.632 248.771 156.395 250.085 155.884C251.4 155.373 252.597 154.6 253.602 153.611C254.608 152.623 255.401 151.439 255.934 150.134C256.467 148.828 256.728 147.427 256.702 146.017C256.617 143.887 256.108 141.795 255.203 139.864C254.298 137.933 253.016 136.203 251.432 134.775C247.329 130.887 242.455 127.905 237.126 126.021Z" fill="#3E012F"/>
<defs>
<linearGradient id="paint0_linear_10694_244" x1="400" y1="400" x2="-70.5882" y2="282.353" gradientUnits="userSpaceOnUse">
<stop stop-color="#FCDACA"/>
<stop offset="1" stop-color="#FEFAF1"/>
</linearGradient>
</defs>
</svg>
