<svg width="400" height="400" viewBox="0 0 400 400" fill="none" xmlns="http://www.w3.org/2000/svg">
<rect width="400" height="400" fill="#22BCB9"/>
<path d="M316.549 258.132L320.05 251.28C322.954 253.29 326.678 254.855 331.147 254.855C335.244 254.855 339.34 253.29 339.34 249.045C339.34 239.437 318.113 240.629 318.113 225.658C318.113 218.434 323.848 212.103 334.052 212.103C339.116 212.103 343.362 213.22 346.043 214.561V222.754C342.17 220.743 338.223 219.626 334.35 219.626C330.924 219.626 327.647 220.966 327.647 224.914C327.647 233.926 348.873 232.734 348.873 248.3C348.873 257.014 341.425 262.377 331.371 262.377C325.636 262.377 320.273 260.738 316.549 258.132Z" fill="white"/>
<path d="M281.995 261.631V242.192L265.237 212.549H275.068L286.538 234.223H286.687L298.083 212.549H307.765L291.007 242.267V261.631H281.995Z" fill="white"/>
<path d="M216.614 261.633L235.606 212.327H242.756L262.494 261.633H252.811L248.044 249.344H230.542L225.924 261.633H216.614ZM233.148 242.045H245.289L241.863 232.288C240.522 228.564 239.852 226.329 239.405 224.691H239.256C238.809 226.404 238.064 228.564 236.724 232.362L233.148 242.045Z" fill="white"/>
<path d="M165.499 261.631V212.549H180.767C198.121 212.549 207.58 222.231 207.58 236.755C207.58 251.651 197.004 261.631 179.948 261.631H165.499ZM174.436 254.034H180.097C193.056 254.034 197.972 246.14 197.972 236.904C197.972 226.626 191.939 220.146 179.948 220.146H174.436V254.034Z" fill="white"/>
<path d="M140.006 261.631V212.549H148.944V261.631H140.006Z" fill="white"/>
<path d="M91.5299 261.631V212.549H104.936C109.554 212.549 112.831 213.294 115.438 214.56C120.652 217.018 122.737 221.561 122.737 226.551C122.737 233.106 118.79 237.425 113.129 239.213V239.362C114.619 240.181 116.63 242.862 119.237 247.331L127.429 261.631H117.151L110.075 249.193C107.692 244.799 105.905 242.788 104.713 242.49H100.468V261.631H91.5299ZM100.468 235.191H104.489C106.798 235.191 108.437 234.744 109.927 233.925C112.012 232.733 113.353 230.499 113.353 227.445C113.353 224.838 112.235 222.529 110.075 221.263C108.884 220.444 107.245 219.848 104.564 219.848H100.468V235.191Z" fill="white"/>
<path d="M51.127 261.631V212.549H78.4611L76.0033 220.146H60.0646V232.957H75.7054V240.554H60.0646V261.631H51.127Z" fill="white"/>
<path d="M294.059 187.151V145.666H279.759V138.069H318.563L316.105 145.666H302.997V187.151H294.059Z" fill="white"/>
<path d="M229.869 187.153L248.861 137.847H256.011L275.748 187.153H266.066L261.299 174.864H243.797L239.179 187.153H229.869ZM246.403 167.565H258.544L255.118 157.808C253.777 154.084 253.107 151.849 252.66 150.211H252.511C252.064 151.924 251.319 154.084 249.978 157.882L246.403 167.565Z" fill="white"/>
<path d="M190.994 187.151V138.069H218.105L215.647 145.666H199.932V158.477H215.647V166.074H199.932V179.554H218.179V187.151H190.994Z" fill="white"/>
<path d="M142.518 187.151V138.069H155.924C160.542 138.069 163.819 138.814 166.426 140.08C171.639 142.538 173.725 147.081 173.725 152.071C173.725 158.626 169.777 162.945 164.117 164.733V164.882C165.606 165.701 167.617 168.382 170.224 172.851L178.417 187.151H168.139L161.063 174.713C158.68 170.319 156.892 168.308 155.701 168.01H151.455V187.151H142.518ZM151.455 160.711H155.477C157.786 160.711 159.425 160.264 160.914 159.445C163 158.253 164.34 156.019 164.34 152.965C164.34 150.358 163.223 148.049 161.063 146.783C159.872 145.964 158.233 145.368 155.552 145.368H151.455V160.711Z" fill="white"/>
<path d="M126.579 163.319V183.95C122.11 186.184 115.556 187.897 108.703 187.897C92.6157 187.897 83.0822 177.544 83.0822 163.468C83.0822 148.572 93.7329 137.623 110.044 137.623C115.779 137.623 120.546 138.74 124.27 140.081V148.423C120.397 146.486 116.002 145.146 110.714 145.146C98.872 145.146 92.6157 152.445 92.6157 162.872C92.6157 173.448 98.7975 180.375 109.374 180.375C112.651 180.375 115.63 179.779 117.566 178.885V163.319H126.579Z" fill="white"/>
</svg>
