<svg width="400" height="400" viewBox="0 0 400 400" fill="none" xmlns="http://www.w3.org/2000/svg">
<rect width="400" height="400" fill="#112231"/>
<path d="M308.386 244.688C308.386 247.376 307.234 250.064 305.314 251.984L260.386 296.144C259.885 296.825 259.175 297.322 258.364 297.557C257.553 297.793 256.687 297.755 255.899 297.449C255.112 297.143 254.448 296.586 254.009 295.864C253.571 295.142 253.382 294.296 253.474 293.456V193.232L307.618 139.472H308.386V244.688Z" fill="#FF4F40"/>
<path d="M91.6168 244.688C91.6168 247.376 92.7688 250.064 94.6888 251.984L139.617 296.144C140.117 296.825 140.828 297.322 141.639 297.557C142.45 297.793 143.316 297.755 144.103 297.449C144.89 297.143 145.554 296.586 145.993 295.864C146.432 295.142 146.62 294.296 146.529 293.456V193.232L92.3848 139.472H91.6168V244.688Z" fill="#0088A6"/>
<path d="M199.231 170.195L132.415 103.379C131.868 102.845 131.173 102.486 130.421 102.35C129.668 102.213 128.892 102.304 128.191 102.611C127.764 102.795 127.374 103.055 127.039 103.379L92.4792 137.939C91.3272 139.091 91.3272 140.243 92.4792 141.395L145.855 194.387L197.695 246.227C198.738 247.379 199.338 247.379 199.999 247.379L199.999 170.579L199.231 170.195Z" fill="#48D3B2"/>
<path d="M200.769 170.195L267.585 103.379C268.132 102.844 268.827 102.486 269.579 102.349C270.332 102.212 271.108 102.303 271.809 102.611C272.236 102.795 272.626 103.055 272.961 103.379L307.521 137.939C308.673 139.091 308.673 140.243 307.521 141.395L254.145 194.387L202.305 246.227C201.262 247.379 200.732 247.379 199.999 247.379L199.999 170.579L200.769 170.195Z" fill="#BBF42E"/>
</svg>
