<svg width="400" height="400" viewBox="0 0 400 400" fill="none" xmlns="http://www.w3.org/2000/svg">
<rect width="400" height="400" fill="#00893F"/>
<path d="M118.86 259.12C107.93 259.12 99.6142 251.28 99.6142 241.063C99.6142 230.846 107.93 223.005 118.622 223.005C129.314 223.005 137.868 230.846 137.868 241.063C137.868 251.28 129.789 259.12 118.86 259.12ZM118.86 231.796C113.87 231.796 110.069 235.836 110.069 241.063C110.069 246.29 113.87 250.329 118.86 250.329C123.849 250.329 127.651 246.29 127.651 241.063C127.651 235.598 123.849 231.796 118.86 231.796ZM205.109 257.932V223.956C205.109 223.718 204.871 223.48 204.633 223.48H195.367C195.129 223.48 194.892 223.718 194.892 223.956V257.695C194.892 257.932 195.129 258.17 195.367 258.17H204.633C204.871 258.17 205.109 258.17 205.109 257.932C205.109 257.695 205.109 257.695 205.109 257.932ZM261.657 259.12C250.728 259.12 242.412 251.28 242.412 241.063C242.412 230.846 250.728 223.005 261.42 223.005C272.349 223.005 280.665 230.846 280.665 241.063C280.665 251.28 272.587 259.12 261.657 259.12ZM261.657 231.559C256.668 231.559 252.866 235.598 252.866 240.825C252.866 246.052 256.668 250.092 261.657 250.092C266.647 250.092 270.449 246.052 270.449 240.825C270.449 235.598 266.647 231.559 261.657 231.559ZM318.444 257.695V236.073C318.444 227.044 314.167 222.53 306.089 222.53C302.049 222.53 298.01 224.193 295.397 227.282V223.956C295.397 223.718 295.159 223.48 294.921 223.48H285.893C285.655 223.48 285.417 223.718 285.417 223.956V257.695C285.417 257.932 285.655 258.17 285.893 258.17H295.159C295.397 258.17 295.634 257.932 295.634 257.695V242.251C295.634 240.825 295.872 239.4 296.109 238.212C297.06 234.648 300.386 232.272 303.95 232.272C307.039 232.272 308.227 233.697 308.227 237.974V257.932C308.227 258.17 308.465 258.408 308.702 258.408H317.969C318.206 258.408 318.444 258.17 318.444 257.695ZM94.6246 258.408H85.1206C84.883 258.408 84.6454 258.17 84.6454 257.932C84.6454 247.24 83.9326 235.123 83.4574 231.321C79.8934 236.311 76.8046 241.776 74.4286 247.478C74.4286 247.716 74.191 247.716 73.9534 247.716H68.7262C68.4886 247.716 68.251 247.716 68.251 247.478C65.875 241.776 62.7862 236.311 59.2222 231.321C58.9846 235.123 58.0342 247.24 58.0342 257.932C58.0342 258.17 57.7966 258.408 57.559 258.408H48.2926C48.055 258.408 47.8174 258.17 47.8174 257.932C47.8174 243.439 48.7678 224.431 51.1438 214.689C51.1438 214.452 51.3814 214.452 51.619 214.214H58.9846C59.2222 214.214 59.2222 214.214 59.2222 214.452C63.9742 219.679 68.0134 225.381 71.1022 231.796C74.4286 225.619 78.2302 219.679 82.9822 214.452L83.2198 214.214H90.5854C90.823 214.214 91.0606 214.452 91.0606 214.689C93.4366 224.431 94.6246 243.439 94.6246 257.932C95.0998 258.17 94.8622 258.408 94.6246 258.408ZM153.312 257.932V244.389C153.312 242.726 153.549 241.063 154.025 239.4C154.975 235.836 158.301 233.222 162.103 233.222C162.578 233.222 163.291 233.222 163.766 233.222C164.004 233.222 164.004 233.222 164.241 233.222L164.479 232.984V223.48C164.479 223.243 164.241 223.005 164.004 223.005C163.529 223.005 163.053 223.005 162.816 223.005C159.014 223.005 155.45 224.906 153.312 228.232V223.956C153.312 223.718 153.074 223.48 152.837 223.48H143.808C143.57 223.48 143.333 223.718 143.333 223.956V257.695C143.333 257.932 143.57 258.17 143.808 258.17H153.074C152.837 258.17 153.074 258.17 153.312 257.932ZM178.497 258.17H169.231C168.993 258.17 168.756 257.932 168.756 257.695V223.956C168.756 223.718 168.993 223.48 169.231 223.48H178.26C178.497 223.48 178.735 223.718 178.735 223.956V228.232C180.873 225.144 184.437 223.243 188.239 223.005C188.714 223.005 189.189 223.005 189.427 223.005C189.665 223.005 189.902 223.243 189.902 223.48V232.509C189.902 232.747 189.902 232.747 189.665 232.747C189.665 232.747 189.427 232.984 189.189 232.747C188.714 232.747 188.001 232.747 187.526 232.747C183.725 232.747 180.398 235.36 179.448 238.924C178.973 240.588 178.735 242.251 178.735 243.914V257.457C179.21 258.17 178.973 258.17 178.497 258.17C178.735 258.17 178.735 258.17 178.497 258.17ZM238.848 247.24C238.848 254.606 233.383 258.645 224.117 258.645C218.652 258.645 214.375 256.744 209.861 253.418C209.623 253.418 209.623 253.18 209.623 252.943V252.705L213.662 246.528C213.662 246.29 213.9 246.29 214.137 246.29H214.375C218.177 248.904 221.265 250.092 224.829 250.092C227.205 250.092 228.631 249.379 228.631 247.953V247.716C228.631 246.052 227.205 245.34 223.404 244.152L221.978 243.676C216.038 242.013 210.573 239.4 210.573 232.747V232.509C210.573 225.856 216.038 221.58 224.592 221.58C228.869 221.58 232.908 222.768 236.709 224.906C236.947 224.906 236.947 225.144 236.947 225.381V225.619L233.145 232.509C233.145 232.747 232.908 232.747 232.67 232.747H232.433C228.869 231.084 226.73 230.371 224.354 230.371C222.216 230.371 220.79 231.321 220.79 232.509V232.747C220.79 234.41 222.929 235.123 226.493 236.073L227.681 236.548C233.145 238.212 238.848 241.063 238.848 247.24ZM340.778 236.548L339.59 236.073C336.026 235.123 334.125 234.41 334.125 232.747V232.509C334.125 231.084 335.551 230.371 337.689 230.371C340.065 230.371 342.441 231.084 345.768 232.747H346.005C346.243 232.747 346.243 232.747 346.481 232.509L350.282 226.332V226.094C350.282 225.856 350.282 225.856 350.045 225.619C346.243 223.48 342.204 222.292 337.927 222.292C329.373 222.292 323.909 226.332 323.909 233.222V233.46C323.909 240.112 329.136 242.726 335.313 244.389L336.739 244.864C340.303 246.052 341.966 246.765 341.966 248.428V248.666C341.729 250.092 340.541 250.804 338.165 250.804C334.601 250.804 331.749 249.616 327.71 247.003H327.473C327.235 247.003 327.235 247.003 326.997 247.24L322.958 253.418V253.656C322.958 253.893 322.958 253.893 323.196 254.131C327.948 257.457 332.225 259.358 337.452 259.358C346.718 259.358 352.183 255.319 352.183 248.191V247.953C351.945 241.063 346.481 238.449 340.778 236.548ZM206.059 211.125C206.059 214.689 203.208 217.54 199.644 217.54C196.08 217.54 193.229 214.689 193.229 211.125C193.229 207.561 196.08 204.71 199.644 204.71C203.208 204.71 206.059 207.561 206.059 211.125Z" fill="white"/>
<path d="M193.703 185.466C193.703 189.03 190.852 192.119 187.05 192.119C183.249 192.119 180.397 189.268 180.397 185.466C180.397 181.902 183.249 178.813 187.05 178.813C190.614 178.813 193.465 181.902 193.703 185.466ZM223.165 158.617C223.165 162.181 220.314 165.27 216.75 165.27C213.186 165.27 210.097 162.419 210.097 158.855C210.097 155.291 212.711 152.202 216.513 152.202C220.077 152.202 223.165 155.053 223.165 158.617ZM207.484 138.659C207.484 147.688 199.643 152.677 199.643 152.677C199.643 152.677 191.802 147.688 191.802 138.659C191.802 129.63 199.643 124.641 199.643 124.641C199.643 124.641 207.484 129.63 207.484 138.659ZM174.457 152.202C174.457 152.202 172.557 161.231 178.972 167.409C185.387 173.586 194.416 171.685 194.416 171.685C194.416 171.685 196.317 162.657 189.901 156.479C183.486 150.301 174.457 152.202 174.457 152.202ZM164.003 167.171C171.844 171.685 172.319 180.714 172.319 180.714C172.319 180.714 164.003 184.991 156.4 180.477C148.559 175.962 148.084 166.933 148.084 166.933C148.084 166.933 156.4 162.657 164.003 167.171ZM159.964 196.871C159.964 196.871 162.102 205.9 170.418 208.989C178.972 212.077 186.337 206.375 186.337 206.375C186.337 206.375 184.437 197.346 175.883 194.257C167.329 191.406 159.964 196.871 159.964 196.871ZM216.513 187.367C212.711 195.445 203.445 196.633 203.445 196.633C203.445 196.633 198.455 188.793 202.257 180.714C206.058 172.636 215.325 171.448 215.325 171.448C215.325 171.448 220.314 179.051 216.513 187.367ZM251.915 166.933C251.915 166.933 243.599 162.657 235.996 167.171C228.155 171.685 227.68 180.952 227.68 180.952C227.68 180.952 235.996 185.229 243.599 180.714C251.44 175.962 251.915 166.933 251.915 166.933ZM229.581 208.989C221.027 212.077 213.661 206.375 213.661 206.375C213.661 206.375 215.562 197.346 224.116 194.257C232.669 191.169 240.035 196.633 240.035 196.633C240.035 196.633 237.897 205.9 229.581 208.989Z" fill="#FCBC00"/>
</svg>
