<svg width="400" height="400" viewBox="0 0 400 400" fill="none" xmlns="http://www.w3.org/2000/svg">
<rect width="400" height="400" fill="black"/>
<path d="M122.217 108.775C122.217 115.327 116.757 120.787 110.205 120.787H90.5489V96.7633H110.569C113.755 96.7633 116.81 98.0288 119.063 100.281C121.315 102.534 122.581 105.589 122.581 108.775H122.217ZM139.325 108.775C139.374 105.033 138.673 101.319 137.263 97.8525C135.854 94.3857 133.764 91.2363 131.118 88.5901C128.472 85.9438 125.322 83.8543 121.856 82.4448C118.389 81.0353 114.675 80.3343 110.933 80.3833H74.1689V161.191H90.5489V137.167H110.933C126.585 137.167 139.325 124.427 139.325 108.775ZM183.005 258.015H242.337V241.999H199.021V228.531C205.591 227.59 212.053 226.005 218.313 223.799L226.321 220.887L220.497 204.871L212.489 207.783C208.102 209.348 203.599 210.565 199.021 211.423V193.951H242.337V177.571H182.641V212.515C172.813 211.423 165.533 207.419 160.801 203.415C152.429 196.135 143.693 181.575 149.881 152.819L151.701 144.447L134.957 140.807L133.137 149.179C126.949 178.299 132.773 201.231 149.517 216.155C158.738 224.178 170.427 228.803 182.641 229.259V258.379L183.005 258.015ZM308.949 278.763C309.016 282.217 308.525 285.659 307.493 288.955C306.401 291.867 304.945 294.779 302.761 296.963C300.76 299.291 298.276 301.154 295.481 302.423C292.541 303.655 289.386 304.289 286.199 304.289C283.012 304.289 279.857 303.655 276.917 302.423C274.122 301.154 271.638 299.291 269.637 296.963C267.817 294.779 265.997 291.867 265.269 288.955C264.114 285.679 263.499 282.237 263.449 278.763C263.449 275.123 264.177 271.483 265.269 268.571C266.361 265.295 267.817 262.747 269.637 260.199C271.63 257.863 274.116 255.998 276.917 254.739C282.992 252.309 289.77 252.309 295.845 254.739C298.646 255.998 301.132 257.863 303.125 260.199C307.002 265.489 309.162 271.842 309.313 278.399L308.949 278.763ZM325.329 278.763C325.657 273.279 324.893 267.785 323.081 262.599C321.269 257.412 318.445 252.638 314.773 248.551C311.321 244.787 307.1 241.808 302.397 239.815C297.34 237.633 291.888 236.518 286.381 236.539C280.751 236.468 275.17 237.584 270.001 239.815C265.298 241.808 261.077 244.787 257.625 248.551C254.349 252.191 251.801 256.923 249.981 262.019C248.161 267.115 247.433 272.939 247.433 278.763C247.433 284.587 248.161 290.411 249.981 295.507C251.801 300.603 254.349 304.971 257.625 308.611C261.085 312.367 265.303 315.345 270.001 317.347C275.097 319.531 280.557 320.623 286.381 320.623C291.888 320.644 297.34 319.529 302.397 317.347C307.089 315.335 311.306 312.359 314.773 308.611C318.413 304.971 320.961 300.603 322.781 295.507C324.601 290.411 325.329 284.587 325.329 278.763Z" fill="white"/>
</svg>
