<svg width="400" height="400" viewBox="0 0 400 400" fill="none" xmlns="http://www.w3.org/2000/svg">
<rect width="400" height="400" fill="#FAFAFA"/>
<path fill-rule="evenodd" clip-rule="evenodd" d="M311.507 126.461C291.862 106.815 260.011 106.815 240.365 126.461L200.001 166.825L235.572 202.396C255.218 222.042 255.218 253.893 235.572 273.538L311.507 197.603C331.153 177.958 331.153 146.106 311.507 126.461Z" fill="#45D0EB"/>
<path fill-rule="evenodd" clip-rule="evenodd" d="M235.571 202.394L200 166.823L164.428 202.394C144.783 222.04 144.783 253.891 164.428 273.537C184.074 293.183 215.926 293.183 235.571 273.537C255.217 253.891 255.217 222.04 235.571 202.394Z" fill="#664277"/>
<path fill-rule="evenodd" clip-rule="evenodd" d="M164.428 202.396L200 166.825L159.635 126.461C139.99 106.815 108.139 106.815 88.493 126.461C68.8474 146.106 68.8474 177.958 88.493 197.603L164.428 273.539C144.783 253.893 144.783 222.042 164.428 202.396Z" fill="#FA476F"/>
</svg>
