<?xml version="1.0" encoding="UTF-8"?>
<svg version="1.1" xmlns="http://www.w3.org/2000/svg" width="858" height="165">
<path d="M0 0 C283.14 0 566.28 0 858 0 C858 54.45 858 108.9 858 165 C574.86 165 291.72 165 0 165 C0 110.55 0 56.1 0 0 Z " fill="#FBFBFB" transform="translate(0,0)"/>
<path d="M0 0 C0 0.66 0 1.32 0 2 C0.5775 2.20625 1.155 2.4125 1.75 2.625 C4.95533616 4.58381654 6.19155552 6.71465919 8 10 C8.28139654 12.78582574 8.38863832 15.12356255 8.25 17.875 C8.23195313 18.56335938 8.21390625 19.25171875 8.1953125 19.9609375 C8.14863748 21.6412381 8.07690939 23.32081163 8 25 C9.32 25.33 10.64 25.66 12 26 C12.24363281 25.27683594 12.48726562 24.55367187 12.73828125 23.80859375 C16.48989541 15.45747739 25.64350114 6.52684017 34.25 3.125 C38 2 38 2 41 2 C41 1.34 41 0.68 41 0 C47.99525034 -2.13791269 54.58788042 -2.36667186 61.875 -2.375 C63.55529297 -2.41173828 63.55529297 -2.41173828 65.26953125 -2.44921875 C78.56073308 -2.49574571 90.10201587 3.08788115 99.6875 12.3125 C102 15 102 15 102 17 C102.66 17 103.32 17 104 17 C104.33773438 17.97582031 104.67546875 18.95164062 105.0234375 19.95703125 C105.47373825 21.24226463 105.92427126 22.52741665 106.375 23.8125 C106.59671875 24.45509766 106.8184375 25.09769531 107.046875 25.75976562 C108.1239885 28.81686717 109.19061861 31.28592791 111 34 C111.23046875 37.3203125 111.23046875 37.3203125 111.1875 41.125 C111.18105469 42.38570312 111.17460937 43.64640625 111.16796875 44.9453125 C111 48 111 48 110 49 C107.79132169 49.09432985 105.57958479 49.11742431 103.36889648 49.11352539 C102.67624695 49.11367142 101.98359741 49.11381744 101.2699585 49.1139679 C98.97030554 49.11326874 96.67073263 49.10547628 94.37109375 49.09765625 C92.78068588 49.09579208 91.19027743 49.09436817 89.59986877 49.09336853 C85.4060407 49.08954329 81.21224705 49.07971295 77.01843262 49.06866455 C72.74211086 49.05845057 68.46578356 49.05387094 64.18945312 49.04882812 C55.79295292 49.03809069 47.39648074 49.02101419 39 49 C39.12633479 51.40167897 39.26173207 53.80227456 39.40234375 56.203125 C39.45424866 57.21656982 39.45424866 57.21656982 39.50720215 58.25048828 C39.82113003 63.43108712 40.91920197 67.29558707 43 72 C43 72.99 43 73.98 43 75 C43.66 75 44.32 75 45 75 C46.296875 76.57421875 46.296875 76.57421875 47.75 78.6875 C52.99681553 85.82619614 58.26806043 89.50376404 67 91 C77.47989579 91.746066 87.04701428 90.86834358 96 85 C97.84304897 83.10110106 99.37781368 81.09929995 101 79 C101.66 79 102.32 79 103 79 C103.66 77.35 104.32 75.7 105 74 C105.66 74 106.32 74 107 74 C105.65889478 82.95666698 99.29973786 91.05857363 92.75 97.0625 C82.90322581 104 82.90322581 104 79 104 C79 104.99 79 105.98 79 107 C-9.44 107 -97.88 107 -189 107 C-189 106.01 -189 105.02 -189 104 C-189.804375 103.731875 -190.60875 103.46375 -191.4375 103.1875 C-192.283125 102.795625 -193.12875 102.40375 -194 102 C-194.33 101.01 -194.66 100.02 -195 99 C-195.66 99 -196.32 99 -197 99 C-202.57902211 92.72721348 -203.85403255 86.48054585 -203.4453125 78.26171875 C-202.28681898 69.77626184 -197.11854237 63.77672436 -191 58 C-187.4472196 55.49215501 -184.46791641 54.48292667 -180.1875 53.8125 C-178.72376953 53.57466797 -178.72376953 53.57466797 -177.23046875 53.33203125 C-176.49441406 53.22246094 -175.75835937 53.11289063 -175 53 C-175 52.34 -175 51.68 -175 51 C-170.67465314 49.44642287 -166.48915684 48.45857326 -161.95703125 47.7109375 C-161.30675461 47.60278717 -160.65647797 47.49463684 -159.98649597 47.38320923 C-158.62297026 47.15745539 -157.25905442 46.93404641 -155.89477539 46.71289062 C-153.80713549 46.3741295 -151.72091441 46.02750143 -149.63476562 45.6796875 C-139.44371595 44 -139.44371595 44 -136 44 C-136.13989034 40.1455938 -136.28798006 36.29154371 -136.4375 32.4375 C-136.47681641 31.35146484 -136.51613281 30.26542969 -136.55664062 29.14648438 C-136.61607328 16.84941103 -136.61607328 16.84941103 -143 7 C-145.67108098 6.04452419 -145.67108098 6.04452419 -148 6 C-148 5.34 -148 4.68 -148 4 C-153.61 4 -159.22 4 -165 4 C-165 4.66 -165 5.32 -165 6 C-165.78375 6.433125 -166.5675 6.86625 -167.375 7.3125 C-170.60969136 9.39194445 -171.12818906 10.27498963 -172 14 C-172.51232063 18.78428647 -172.68047126 22.63905748 -170.5 27 C-167.09097512 29.7272199 -164.27781614 30.21573371 -160 31 C-160.56508523 34.47339053 -161.62643336 35.95006976 -164.3125 38.1875 C-164.90675781 38.69667969 -165.50101563 39.20585938 -166.11328125 39.73046875 C-171.40600176 43.29182313 -178.93414138 42.90481185 -185 42 C-188.25385426 40.12122656 -190.54907545 37.81916691 -193 35 C-193.55558594 34.54496094 -194.11117187 34.08992188 -194.68359375 33.62109375 C-197.15803527 30.57393283 -196.45251338 26.89296156 -196.34375 23.140625 C-195.65878889 16.88257125 -193.50249219 12.06024095 -188.875 7.75 C-180.81432183 1.50947496 -171.60716246 -2.2768573 -161.4140625 -2.1953125 C-160.36138687 -2.19106766 -160.36138687 -2.19106766 -159.28744507 -2.18673706 C-157.06644972 -2.17562512 -154.84587155 -2.15053834 -152.625 -2.125 C-151.11068295 -2.11495854 -149.59635951 -2.10583473 -148.08203125 -2.09765625 C-144.38788742 -2.07571554 -140.69398449 -2.04124875 -137 -2 C-137 -1.34 -137 -0.68 -137 0 C-135.88625 -0.103125 -134.7725 -0.20625 -133.625 -0.3125 C-128.03386248 -0.3625998 -123.74008226 2.28028067 -119 5 C-119 5.66 -119 6.32 -119 7 C-118.443125 7.226875 -117.88625 7.45375 -117.3125 7.6875 C-111.66770742 10.8913012 -109.23265152 15.04626262 -107 21 C-106.64852402 21.77038605 -106.29704803 22.54077209 -105.93492126 23.33450317 C-104.85304562 26.41897265 -104.7418188 28.8818363 -104.72875977 32.14794922 C-104.71347984 33.97542191 -104.71347984 33.97542191 -104.69789124 35.83981323 C-104.69575119 37.14822174 -104.69361115 38.45663025 -104.69140625 39.8046875 C-104.68029699 41.17083811 -104.6679015 42.5369788 -104.65428162 43.90310669 C-104.59906454 49.68775503 -104.56823651 55.47247292 -104.54370117 61.25732422 C-104.52775896 64.80347812 -104.49747231 68.34929104 -104.45893669 71.89526749 C-104.44174067 73.89087771 -104.44123249 75.8866094 -104.4410553 77.8822937 C-104.37084453 84.32827343 -104.18769381 89.32652871 -101 95 C-99.51886719 94.96519531 -99.51886719 94.96519531 -98.0078125 94.9296875 C-96.08582031 94.90261719 -96.08582031 94.90261719 -94.125 94.875 C-92.84882813 94.85179687 -91.57265625 94.82859375 -90.2578125 94.8046875 C-87 95 -87 95 -85 97 C-84.67 97.66 -84.34 98.32 -84 99 C-83.21625 98.505 -82.4325 98.01 -81.625 97.5 C-79 96 -79 96 -77 96 C-76.97680075 85.29904357 -76.95904627 74.59809315 -76.94818783 63.89711666 C-76.94297559 58.9279027 -76.9359081 53.95870599 -76.92456055 48.98950195 C-76.91367268 44.19141534 -76.90771066 39.39334529 -76.90512276 34.59524727 C-76.90327914 32.76728619 -76.89967903 30.939326 -76.89426994 29.11137199 C-76.8869812 26.54550106 -76.88601236 23.97969803 -76.88647461 21.41381836 C-76.8810817 20.28740181 -76.8810817 20.28740181 -76.87557983 19.13822937 C-76.88424712 14.67429384 -77.12508781 10.38274484 -78 6 C-79.81701858 4.59145334 -79.81701858 4.59145334 -82 4 C-82.99 3.34 -83.98 2.68 -85 2 C-85 1.34 -85 0.68 -85 0 C-85.66 0 -86.32 0 -87 0 C-87 -0.66 -87 -1.32 -87 -2 C-73.47 -2 -59.94 -2 -46 -2 C-46 4.27 -46 10.54 -46 17 C-45.34 17 -44.68 17 -44 17 C-43.62294922 15.90558594 -43.62294922 15.90558594 -43.23828125 14.7890625 C-41.90449286 11.78488297 -40.3789009 9.81361439 -38.1875 7.375 C-37.18783203 6.24191406 -37.18783203 6.24191406 -36.16796875 5.0859375 C-33.51992216 2.53808727 -30.81637712 0 -27 0 C-27 -0.66 -27 -1.32 -27 -2 C-16.98981638 -4.96598033 -9.31381548 -5.0393591 0 0 Z " fill="#F9F9F9" transform="translate(353,58)"/>
<path d="M0 0 C34.98 0 69.96 0 106 0 C106 0.99 106 1.98 106 3 C107.85625 3.2784375 107.85625 3.2784375 109.75 3.5625 C119.52592778 5.75206111 127.41847149 11.67936936 134 19 C135.3921875 20.299375 135.3921875 20.299375 136.8125 21.625 C139.02480036 24.0269261 140.0285336 25.90897055 141 29 C141.66 29 142.32 29 143 29 C145.1519437 32.22791555 145.20086443 33.28400809 145 37 C145.66 37 146.32 37 147 37 C149.34774027 46.80749564 149.41233849 59.79670651 145 69 C142.59828578 72.30426924 139.92885454 75.16109109 137 78 C136.33097656 78.70769531 135.66195312 79.41539063 134.97265625 80.14453125 C129.46183028 85.32798142 122.13044736 85.31705449 114.9375 85.4375 C114.18194824 85.45973633 113.42639648 85.48197266 112.64794922 85.50488281 C107.5954271 85.48510777 104.09227561 84.43505676 99.69213867 81.95117188 C97.8997067 80.88117446 97.8997067 80.88117446 95.375 80.0625 C87.28938775 76.44525241 81.74648685 68.40418424 78.5625 60.375 C78.376875 59.59125 78.19125 58.8075 78 58 C77.34 58 76.68 58 76 58 C75.49384702 56.73160474 74.99530901 55.46016898 74.5 54.1875 C74.2215625 53.47980469 73.943125 52.77210937 73.65625 52.04296875 C73 50 73 50 73 47 C74.32 47.66 75.64 48.32 77 49 C77 49.66 77 50.32 77 51 C87.28477888 55.36323952 96.51913958 56.53084064 107.22265625 53.046875 C109.50345011 51.70346235 109.97649349 50.40478743 111 48 C111.680625 47.030625 112.36125 46.06125 113.0625 45.0625 C116.75711313 39.22262763 116.88310001 32.28338273 115.50390625 25.59375 C113.69851661 19.47378513 110.86709454 16.09220412 105.6875 12.3125 C105.130625 11.879375 104.57375 11.44625 104 11 C104 10.34 104 9.68 104 9 C103.01 9 102.02 9 101 9 C101 8.34 101 7.68 101 7 C99.68 7 98.36 7 97 7 C97 6.34 97 5.68 97 5 C94.01957489 5.08792709 91.04178688 5.19492576 88.0625 5.3125 C87.23169922 5.33505859 86.40089844 5.35761719 85.54492188 5.38085938 C77.48177377 5.72597466 70.82822889 7.65476343 64 12 C63.34 12 62.68 12 62 12 C62 12.66 62 13.32 62 14 C61.34 14 60.68 14 60 14 C60 14.66 60 15.32 60 16 C58.83397547 17.16602453 57.66585789 18.33001818 56.48828125 19.484375 C41.25278879 34.99978465 39.80882932 57.01646234 39.9375 77.5625 C39.94252634 78.96679527 39.94708724 80.3710923 39.95117188 81.77539062 C39.96288407 85.18363903 39.97928628 88.5917964 40 92 C40.66 92 41.32 92 42 92 C42.10957031 92.92941406 42.21914063 93.85882813 42.33203125 94.81640625 C43.55224407 104.33009808 44.83921892 110.53238657 51 118 C51.5775 119.0725 52.155 120.145 52.75 121.25 C56.33098081 127.69010383 60.9154663 133.57456251 68 136 C70.00751815 136.98482022 72.00934459 137.98152514 74 139 C74 139.99 74 140.98 74 142 C74.71542969 142.1340625 75.43085937 142.268125 76.16796875 142.40625 C79.83399561 143.17485149 83.39417781 144.23187673 86.98828125 145.28125 C99.8410352 148.3485739 114.55212301 148.57054028 127 144 C127.68964844 143.77183594 128.37929687 143.54367188 129.08984375 143.30859375 C133.91303777 141.63718988 138.38353535 139.35755652 142.8984375 136.98828125 C145 136 145 136 147 136 C147 138 147 138 145.56640625 139.48046875 C130.86956522 152 130.86956522 152 128 152 C128 152.66 128 153.32 128 154 C126.29306569 154.73632461 124.5856264 155.47151276 122.875 156.19921875 C121.34934407 156.85080097 119.82993872 157.51700382 118.3125 158.1875 C116 159 116 159 112 159 C112 159.66 112 160.32 112 161 C110.35 161.33 108.7 161.66 107 162 C107.33 162.99 107.66 163.98 108 165 C72.36 165 36.72 165 0 165 C0 110.55 0 56.1 0 0 Z " fill="#060606" transform="translate(0,0)"/>
<path d="M0 0 C0.90878906 0.22945312 1.81757812 0.45890625 2.75390625 0.6953125 C9.71840659 2.57760989 9.71840659 2.57760989 12 6 C13.2684375 6.556875 13.2684375 6.556875 14.5625 7.125 C22.56201041 11.48836932 27.2465886 17.9157293 31 26 C32.485 26.495 32.485 26.495 34 27 C34 53.73 34 80.46 34 108 C10.9 108 -12.2 108 -36 108 C-36 107.01 -36 106.02 -36 105 C-36.99 104.9071875 -36.99 104.9071875 -38 104.8125 C-42.2072283 103.67304234 -45.41536814 101.42467792 -49 99 C-49.825 98.46375 -50.65 97.9275 -51.5 97.375 C-51.995 96.92125 -52.49 96.4675 -53 96 C-53 95.01 -53 94.02 -53 93 C-53.598125 92.731875 -54.19625 92.46375 -54.8125 92.1875 C-57.01819033 90.99012525 -58.43583187 89.95521016 -60 88 C-60 87.01 -60 86.02 -60 85 C-60.66 85 -61.32 85 -62 85 C-63 83 -64 81 -65 79 C-65.34804688 78.37351562 -65.69609375 77.74703125 -66.0546875 77.1015625 C-66.40789063 76.44929688 -66.76109375 75.79703125 -67.125 75.125 C-67.45757813 74.52945313 -67.79015625 73.93390625 -68.1328125 73.3203125 C-72.72495888 61.03321814 -71.24360851 42.01861152 -67 30 C-64.04380046 24.21613134 -60.60014669 19.55291726 -56 15 C-55.34 14.01 -54.68 13.02 -54 12 C-53.34 12 -52.68 12 -52 12 C-52 11.34 -52 10.68 -52 10 C-36.92540134 -2.21350136 -18.41442355 -5.09937883 0 0 Z " fill="#060606" transform="translate(824,57)"/>
<path d="M0 0 C1.05267563 0.00424484 1.05267563 0.00424484 2.12661743 0.00857544 C4.34761278 0.01968738 6.56819095 0.04477416 8.7890625 0.0703125 C10.30337955 0.08035396 11.81770299 0.08947777 13.33203125 0.09765625 C17.02617508 0.11959696 20.72007801 0.15406375 24.4140625 0.1953125 C24.4140625 0.8553125 24.4140625 1.5153125 24.4140625 2.1953125 C25.5278125 2.0921875 26.6415625 1.9890625 27.7890625 1.8828125 C33.38020002 1.8327127 37.67398024 4.47559317 42.4140625 7.1953125 C42.4140625 7.8553125 42.4140625 8.5153125 42.4140625 9.1953125 C42.9709375 9.4221875 43.5278125 9.6490625 44.1015625 9.8828125 C49.74635508 13.0866137 52.18141098 17.24157512 54.4140625 23.1953125 C54.76553848 23.96569855 55.11701447 24.73608459 55.47914124 25.52981567 C56.56101688 28.61428515 56.6722437 31.0771488 56.68530273 34.34326172 C56.70058266 36.17073441 56.70058266 36.17073441 56.71617126 38.03512573 C56.71831131 39.34353424 56.72045135 40.65194275 56.72265625 42 C56.73376551 43.36615061 56.746161 44.7322913 56.75978088 46.09841919 C56.81499796 51.88306753 56.84582599 57.66778542 56.87036133 63.45263672 C56.88630354 66.99879062 56.91659019 70.54460354 56.95512581 74.09057999 C56.97232183 76.08619021 56.97283001 78.0819219 56.9730072 80.0776062 C57.06951529 89.04882663 57.06951529 89.04882663 60.4140625 97.1953125 C62.84794003 98.41225126 64.83245096 98.51491146 67.5390625 98.7578125 C68.90417969 98.88349609 68.90417969 98.88349609 70.296875 99.01171875 C70.99554688 99.07230469 71.69421875 99.13289063 72.4140625 99.1953125 C71.4140625 102.1953125 71.4140625 102.1953125 69.8203125 103.2578125 C68.54947917 103.8828125 67.27864583 104.5078125 66.0078125 105.1328125 C64.07648652 106.18480608 64.07648652 106.18480608 63.4140625 109.1953125 C33.3840625 109.1953125 3.3540625 109.1953125 -27.5859375 109.1953125 C-27.5859375 108.2053125 -27.5859375 107.2153125 -27.5859375 106.1953125 C-28.3903125 105.9271875 -29.1946875 105.6590625 -30.0234375 105.3828125 C-30.8690625 104.9909375 -31.7146875 104.5990625 -32.5859375 104.1953125 C-32.9159375 103.2053125 -33.2459375 102.2153125 -33.5859375 101.1953125 C-34.2459375 101.1953125 -34.9059375 101.1953125 -35.5859375 101.1953125 C-41.16495961 94.92252598 -42.43997005 88.67585835 -42.03125 80.45703125 C-40.87275648 71.97157434 -35.70447987 65.97203686 -29.5859375 60.1953125 C-26.0331571 57.68746751 -23.05385391 56.67823917 -18.7734375 56.0078125 C-17.30970703 55.76998047 -17.30970703 55.76998047 -15.81640625 55.52734375 C-15.08035156 55.41777344 -14.34429687 55.30820313 -13.5859375 55.1953125 C-13.5859375 54.5353125 -13.5859375 53.8753125 -13.5859375 53.1953125 C-9.26059064 51.64173537 -5.07509434 50.65388576 -0.54296875 49.90625 C0.10730789 49.79809967 0.75758453 49.68994934 1.42756653 49.57852173 C2.79109224 49.35276789 4.15500808 49.12935891 5.51928711 48.90820312 C7.60692701 48.569442 9.69314809 48.22281393 11.77929688 47.875 C21.97034655 46.1953125 21.97034655 46.1953125 25.4140625 46.1953125 C25.27417216 42.3409063 25.12608244 38.48685621 24.9765625 34.6328125 C24.93724609 33.54677734 24.89792969 32.46074219 24.85742188 31.34179688 C24.79798922 19.04472353 24.79798922 19.04472353 18.4140625 9.1953125 C15.74298152 8.23983669 15.74298152 8.23983669 13.4140625 8.1953125 C13.4140625 7.5353125 13.4140625 6.8753125 13.4140625 6.1953125 C7.8040625 6.1953125 2.1940625 6.1953125 -3.5859375 6.1953125 C-3.5859375 6.8553125 -3.5859375 7.5153125 -3.5859375 8.1953125 C-4.3696875 8.6284375 -5.1534375 9.0615625 -5.9609375 9.5078125 C-9.19562886 11.58725695 -9.71412656 12.47030213 -10.5859375 16.1953125 C-11.09825813 20.97959897 -11.26640876 24.83436998 -9.0859375 29.1953125 C-5.67691262 31.9225324 -2.86375364 32.41104621 1.4140625 33.1953125 C0.84897727 36.66870303 -0.21237086 38.14538226 -2.8984375 40.3828125 C-3.49269531 40.89199219 -4.08695313 41.40117188 -4.69921875 41.92578125 C-9.99193926 45.48713563 -17.52007888 45.10012435 -23.5859375 44.1953125 C-26.83979176 42.31653906 -29.13501295 40.01447941 -31.5859375 37.1953125 C-32.14152344 36.74027344 -32.69710937 36.28523438 -33.26953125 35.81640625 C-35.74397277 32.76924533 -35.03845088 29.08827406 -34.9296875 25.3359375 C-34.24472639 19.07788375 -32.08842969 14.25555345 -27.4609375 9.9453125 C-19.40025933 3.70478746 -10.19309996 -0.0815448 0 0 Z " fill="#040404" transform="translate(191.5859375,55.8046875)"/>
<path d="M0 0 C1.68029297 -0.03673828 1.68029297 -0.03673828 3.39453125 -0.07421875 C16.68573308 -0.12074571 28.22701587 5.46288115 37.8125 14.6875 C40.125 17.375 40.125 17.375 40.125 19.375 C40.785 19.375 41.445 19.375 42.125 19.375 C42.46273437 20.35082031 42.80046875 21.32664062 43.1484375 22.33203125 C43.59873825 23.61726463 44.04927126 24.90241665 44.5 26.1875 C44.72171875 26.83009766 44.9434375 27.47269531 45.171875 28.13476562 C46.2489885 31.19186717 47.31561861 33.66092791 49.125 36.375 C49.35546875 39.6953125 49.35546875 39.6953125 49.3125 43.5 C49.30605469 44.76070312 49.29960937 46.02140625 49.29296875 47.3203125 C49.125 50.375 49.125 50.375 48.125 51.375 C45.91632169 51.46932985 43.70458479 51.49242431 41.49389648 51.48852539 C40.80124695 51.48867142 40.10859741 51.48881744 39.3949585 51.4889679 C37.09530554 51.48826874 34.79573263 51.48047628 32.49609375 51.47265625 C30.90568588 51.47079208 29.31527743 51.46936817 27.72486877 51.46836853 C23.5310407 51.46454329 19.33724705 51.45471295 15.14343262 51.44366455 C10.86711086 51.43345057 6.59078356 51.42887094 2.31445312 51.42382812 C-6.08204708 51.41309069 -14.47851926 51.39601419 -22.875 51.375 C-22.74866521 53.77667897 -22.61326793 56.17727456 -22.47265625 58.578125 C-22.43805298 59.25375488 -22.40344971 59.92938477 -22.36779785 60.62548828 C-22.05386997 65.80608712 -20.95579803 69.67058707 -18.875 74.375 C-18.875 75.365 -18.875 76.355 -18.875 77.375 C-18.215 77.375 -17.555 77.375 -16.875 77.375 C-15.578125 78.94921875 -15.578125 78.94921875 -14.125 81.0625 C-8.87818447 88.20119614 -3.60693957 91.87876404 5.125 93.375 C15.60489579 94.121066 25.17201428 93.24334358 34.125 87.375 C35.96804897 85.47610106 37.50281368 83.47429995 39.125 81.375 C39.785 81.375 40.445 81.375 41.125 81.375 C41.785 79.725 42.445 78.075 43.125 76.375 C43.785 76.375 44.445 76.375 45.125 76.375 C43.78389478 85.33166698 37.42473786 93.43357363 30.875 99.4375 C21.02822581 106.375 21.02822581 106.375 17.125 106.375 C17.125 107.365 17.125 108.355 17.125 109.375 C5.245 109.375 -6.635 109.375 -18.875 109.375 C-19.205 108.385 -19.535 107.395 -19.875 106.375 C-22.19043043 105.64859045 -24.52769935 104.99068542 -26.875 104.375 C-32.79687145 102.05774595 -37.51363946 97.9398907 -41.875 93.375 C-41.875 92.715 -41.875 92.055 -41.875 91.375 C-42.535 91.375 -43.195 91.375 -43.875 91.375 C-45.27734375 89.36328125 -45.27734375 89.36328125 -46.8125 86.6875 C-47.31652344 85.81738281 -47.82054687 84.94726562 -48.33984375 84.05078125 C-48.84644531 83.16777344 -49.35304688 82.28476563 -49.875 81.375 C-50.39835937 80.59898437 -50.92171875 79.82296875 -51.4609375 79.0234375 C-53.24062945 75.6902023 -53.92722576 72.3716555 -54.5625 68.6875 C-54.68915039 67.97634033 -54.81580078 67.26518066 -54.94628906 66.5324707 C-55.86413329 61.08663621 -56.23380985 55.89515157 -55.875 50.375 C-55.85566406 49.5190625 -55.83632813 48.663125 -55.81640625 47.78125 C-55.25891972 36.02335223 -50.76006176 26.01102002 -42.875 17.375 C-42.22144531 16.64152344 -41.56789063 15.90804687 -40.89453125 15.15234375 C-36.82414732 10.814275 -33.48803051 8.3179721 -27.875 6.375 C-26.76125 5.7871875 -26.76125 5.7871875 -25.625 5.1875 C-23.875 4.375 -23.875 4.375 -20.875 4.375 C-20.875 3.715 -20.875 3.055 -20.875 2.375 C-13.87974966 0.23708731 -7.28711958 0.00832814 0 0 Z " fill="#0D0D0D" transform="translate(414.875,55.625)"/>
<path d="M0 0 C7.59 0 15.18 0 23 0 C23 0.99 23 1.98 23 3 C23.94359375 2.98646484 23.94359375 2.98646484 24.90625 2.97265625 C31.48909923 3.20067663 34.83440214 4.79580756 39.6015625 9.30859375 C41 11 41 11 41 13 C41.66 13 42.32 13 43 13 C46.65875623 17.08092041 46.28823978 21.29874677 46.203125 26.4765625 C46 29 46 29 45 32 C44.34 32 43.68 32 43 32 C42.773125 32.763125 42.54625 33.52625 42.3125 34.3125 C40.62176495 37.77448129 39.58975819 38.57905405 36 40 C30.31288951 40.60763785 25.32052677 40.2402218 20 38 C20 37.34 20 36.68 20 36 C18.02 35.505 18.02 35.505 16 35 C16 33.68 16 32.36 16 31 C17.65 31 19.3 31 21 31 C21 30.34 21 29.68 21 29 C21.639375 28.896875 22.27875 28.79375 22.9375 28.6875 C23.618125 28.460625 24.29875 28.23375 25 28 C26.10261088 24.69216735 26.23740779 22.04440731 26.3125 18.5625 C26.34988281 17.42941406 26.38726563 16.29632812 26.42578125 15.12890625 C25.91291664 11.36005713 24.9842641 10.27449318 22 8 C18.57767028 6.85922343 15.91326783 6.90184883 12.3125 6.9375 C11.13300781 6.94652344 9.95351563 6.95554687 8.73828125 6.96484375 C7.83464844 6.97644531 6.93101562 6.98804688 6 7 C5.71125 7.763125 5.4225 8.52625 5.125 9.3125 C4 12 4 12 2 15 C1.34 15 0.68 15 0 15 C-0.33 28.53 -0.66 42.06 -1 56 C5.93 56 12.86 56 20 56 C20 56.66 20 57.32 20 58 C15.88259492 61.99630493 12.44178405 62.30239708 6.7578125 62.62109375 C5.49340332 62.69642334 4.22899414 62.77175293 2.92626953 62.84936523 C1.96060059 62.89907471 0.99493164 62.94878418 0 63 C-0.04632306 73.62237067 -0.08186908 84.24471735 -0.10362434 94.86716843 C-0.11406532 99.79950272 -0.1282303 104.73176795 -0.15087891 109.6640625 C-0.17259601 114.4232374 -0.18456626 119.18234584 -0.18975449 123.94156647 C-0.19345227 125.75805966 -0.20067303 127.57454918 -0.21146011 129.3910141 C-0.22595996 131.93360786 -0.22797857 134.47592629 -0.22705078 137.01855469 C-0.23424133 137.77093414 -0.24143188 138.5233136 -0.24884033 139.29849243 C-0.23372271 143.12258669 0.13148561 145.68083173 2 149 C2 150.32 2 151.64 2 153 C2.639375 153.268125 3.27875 153.53625 3.9375 153.8125 C6 155 6 155 7 158 C7.94875 158.12375 8.8975 158.2475 9.875 158.375 C13 159 13 159 15 161 C-3.15 161 -21.3 161 -40 161 C-38.95552083 156.82208333 -37.66635039 155.24961453 -35 152 C-33.73523497 148.2057049 -33.82303544 144.62821451 -33.79467773 140.6730957 C-33.78477814 139.82409698 -33.77487854 138.97509827 -33.76467896 138.10037231 C-33.73307417 135.29220373 -33.70831052 132.48401822 -33.68359375 129.67578125 C-33.66302334 127.72950296 -33.64202685 125.78322912 -33.62062073 123.83695984 C-33.56540901 118.71271372 -33.51599573 113.58842735 -33.46777344 108.46411133 C-33.41755187 103.23580337 -33.36186922 98.00755392 -33.30664062 92.77929688 C-33.19907005 82.51958123 -33.09762259 72.25981479 -33 62 C-37.29 62 -41.58 62 -46 62 C-45 59 -45 59 -42.9375 57.3125 C-39.054411 55.57750279 -36.23718646 55.90892434 -32 56 C-32.05220703 54.04320313 -32.05220703 54.04320313 -32.10546875 52.046875 C-32.59103526 26.434468 -32.59103526 26.434468 -23 16 C-22.52820313 15.47277344 -22.05640625 14.94554687 -21.5703125 14.40234375 C-20.25 13 -20.25 13 -18 11 C-17.34 11 -16.68 11 -16 11 C-16 10.34 -16 9.68 -16 9 C-10.37661751 6.85289032 -4.72210596 4.86763181 1 3 C0.505 1.515 0.505 1.515 0 0 Z " fill="#070707" transform="translate(514,0)"/>
<path d="M0 0 C0 0.66 0 1.32 0 2 C0.5775 2.20625 1.155 2.4125 1.75 2.625 C4.97114028 4.59347462 6.74194141 6.47997747 8 10 C8.97181145 16.80268013 9.3189182 23.10543842 5.1875 28.875 C3.60546875 30.7421875 3.60546875 30.7421875 2 32 C1.01 32 0.02 32 -1 32 C-1.2784375 32.9590625 -1.2784375 32.9590625 -1.5625 33.9375 C-2.036875 34.618125 -2.51125 35.29875 -3 36 C-5.32166397 36.4067333 -7.65681039 36.74501373 -10 37 C-9.87818359 35.37191406 -9.87818359 35.37191406 -9.75390625 33.7109375 C-9.09095684 25.86645061 -9.09095684 25.86645061 -11.453125 18.63671875 C-17.40530012 13.59737721 -23.49178458 13.57157116 -31 14 C-34.50305007 14.63239658 -34.50305007 14.63239658 -37 16 C-37.495 17.485 -37.495 17.485 -38 19 C-38.66 19 -39.32 19 -40 19 C-43.9710233 28.16389992 -45.4540244 36.39226544 -45.3984375 46.359375 C-45.40274277 48.0813913 -45.40274277 48.0813913 -45.40713501 49.8381958 C-45.40916475 52.24841815 -45.40371178 54.65865738 -45.39111328 57.06884766 C-45.37498554 60.75330298 -45.3910304 64.43667124 -45.41015625 68.12109375 C-45.40817478 70.47135658 -45.4043331 72.82161873 -45.3984375 75.171875 C-45.40451019 76.26884705 -45.41058289 77.36581909 -45.4168396 78.49603271 C-45.35133884 85.61908371 -44.52565001 90.13304593 -39.6875 95.625 C-36.91122186 98.0784551 -34.09776758 99.98284902 -31 102 C-31 102.33 -31 102.66 -31 103 C-48.82 103 -66.64 103 -85 103 C-83.12244138 99.24488276 -82.37972575 98.11232859 -79 96 C-78.34 96 -77.68 96 -77 96 C-76.97680075 85.29904357 -76.95904627 74.59809315 -76.94818783 63.89711666 C-76.94297559 58.9279027 -76.9359081 53.95870599 -76.92456055 48.98950195 C-76.91367268 44.19141534 -76.90771066 39.39334529 -76.90512276 34.59524727 C-76.90327914 32.76728619 -76.89967903 30.939326 -76.89426994 29.11137199 C-76.8869812 26.54550106 -76.88601236 23.97969803 -76.88647461 21.41381836 C-76.88287933 20.66287399 -76.87928406 19.91192963 -76.87557983 19.13822937 C-76.88424712 14.67429384 -77.12508781 10.38274484 -78 6 C-79.81701858 4.59145334 -79.81701858 4.59145334 -82 4 C-82.99 3.34 -83.98 2.68 -85 2 C-85 1.34 -85 0.68 -85 0 C-85.66 0 -86.32 0 -87 0 C-87 -0.66 -87 -1.32 -87 -2 C-73.47 -2 -59.94 -2 -46 -2 C-46 4.27 -46 10.54 -46 17 C-45.34 17 -44.68 17 -44 17 C-43.74863281 16.27039063 -43.49726563 15.54078125 -43.23828125 14.7890625 C-41.90449286 11.78488297 -40.3789009 9.81361439 -38.1875 7.375 C-37.52105469 6.61960937 -36.85460937 5.86421875 -36.16796875 5.0859375 C-33.51992216 2.53808727 -30.81637712 0 -27 0 C-27 -0.66 -27 -1.32 -27 -2 C-16.98981638 -4.96598033 -9.31381548 -5.0393591 0 0 Z " fill="#040404" transform="translate(353,58)"/>
<path d="M0 0 C2.63701691 1.94075673 4.87575226 3.82172299 6.4375 6.75 C6.4375 7.74 6.4375 8.73 6.4375 9.75 C7.0975 9.75 7.7575 9.75 8.4375 9.75 C9.78869149 12.45238298 9.56987128 14.61014446 9.5625 17.625 C9.56636719 19.19894531 9.56636719 19.19894531 9.5703125 20.8046875 C9.45748664 23.30676685 9.16258762 25.36756923 8.4375 27.75 C7.7775 27.75 7.1175 27.75 6.4375 27.75 C6.355 28.3275 6.2725 28.905 6.1875 29.5 C5.15519788 32.59690637 4.03587784 33.73625717 1.4375 35.75 C-1.51079848 36.94456921 -4.5022404 37.88684986 -7.5625 38.75 C-7.48128906 37.8321875 -7.40007812 36.914375 -7.31640625 35.96875 C-6.7808558 27.31421593 -6.7808558 27.31421593 -10.75 19.9375 C-14.54525923 16.05955538 -18.62827379 15.62438735 -23.875 15.375 C-29.10464182 15.4621607 -32.76351223 17.17498884 -36.5625 20.75 C-38.32041342 23.29036746 -39.50501061 25.85499191 -40.5625 28.75 C-41.07488724 30.1131987 -41.07488724 30.1131987 -41.59762573 31.50393677 C-42.58118453 34.81285915 -42.80431269 37.40764307 -42.78955078 40.84716797 C-42.78932419 42.61832474 -42.78932419 42.61832474 -42.78909302 44.42526245 C-42.77877045 45.68484772 -42.76844788 46.94443298 -42.7578125 48.2421875 C-42.75356766 50.19380295 -42.75356766 50.19380295 -42.74923706 52.18484497 C-42.74163675 55.6273582 -42.72201973 59.06970003 -42.6998291 62.512146 C-42.67929261 66.03151125 -42.67021873 69.55090447 -42.66015625 73.0703125 C-42.63877002 79.96361163 -42.6046781 86.85679757 -42.5625 93.75 C-41.9025 93.75 -41.2425 93.75 -40.5625 93.75 C-38.5625 96.75 -38.5625 96.75 -38.5625 99.75 C-37.964375 99.853125 -37.36625 99.95625 -36.75 100.0625 C-34.28006736 100.83876455 -33.23998765 101.82088921 -31.5625 103.75 C-32.5625 104.75 -32.5625 104.75 -34.61891174 104.87025452 C-35.52270065 104.86803391 -36.42648956 104.86581329 -37.35766602 104.86352539 C-38.37864883 104.86344986 -39.39963165 104.86337433 -40.45155334 104.86329651 C-41.5619548 104.85813522 -42.67235626 104.85297394 -43.81640625 104.84765625 C-44.94698959 104.8462413 -46.07757294 104.84482635 -47.24241638 104.84336853 C-50.86997065 104.83775019 -54.49746424 104.82519458 -58.125 104.8125 C-60.57747307 104.80748736 -63.0299471 104.80292405 -65.48242188 104.79882812 C-71.50913545 104.7877748 -77.53581339 104.77101884 -83.5625 104.75 C-81.52280717 102.701755 -79.47834507 100.67065393 -77.375 98.6875 C-73.8804613 94.95195863 -74.39672316 90.68731409 -74.36962891 85.86962891 C-74.36145142 85.06767593 -74.35327393 84.26572296 -74.34484863 83.43946838 C-74.32003222 80.78517399 -74.30349009 78.13093286 -74.2890625 75.4765625 C-74.28373882 74.5698518 -74.27841515 73.6631411 -74.27293015 72.72895432 C-74.24621751 67.93161617 -74.2268348 63.1343039 -74.21240234 58.33691406 C-74.19905001 54.36565179 -74.17117119 50.39490176 -74.13037109 46.42382812 C-74.08110489 41.62870343 -74.05628909 36.83404421 -74.04917526 32.03867722 C-74.04245624 30.21180515 -74.02721723 28.38494374 -74.00328445 26.55821609 C-73.97169098 24.00131177 -73.97158657 21.44620813 -73.97900391 18.88916016 C-73.96259857 18.13573837 -73.94619324 17.38231659 -73.92929077 16.60606384 C-73.97611921 12.6603145 -74.40408948 10.94507911 -76.92318726 7.84286499 C-79.50059375 5.69449082 -79.50059375 5.69449082 -82.375 4.125 C-83.4578125 3.444375 -83.4578125 3.444375 -84.5625 2.75 C-84.5625 1.76 -84.5625 0.77 -84.5625 -0.25 C-71.0325 -0.25 -57.5025 -0.25 -43.5625 -0.25 C-43.0675 8.165 -43.0675 8.165 -42.5625 16.75 C-41.9025 16.75 -41.2425 16.75 -40.5625 16.75 C-40.3253125 16.02425781 -40.088125 15.29851562 -39.84375 14.55078125 C-38.3635778 11.31516091 -36.59843526 9.41991715 -34.0625 6.9375 C-33.2684375 6.14730469 -32.474375 5.35710938 -31.65625 4.54296875 C-29.5625 2.75 -29.5625 2.75 -27.5625 2.75 C-27.5625 2.09 -27.5625 1.43 -27.5625 0.75 C-18.69230579 -2.18345005 -8.56619261 -5.08323518 0 0 Z " fill="#030303" transform="translate(628.5625,56.25)"/>
<path d="M0 0 C0.89589844 0.00322266 1.79179688 0.00644531 2.71484375 0.00976562 C4.12056641 0.02233398 4.12056641 0.02233398 5.5546875 0.03515625 C6.49957031 0.03966797 7.44445312 0.04417969 8.41796875 0.04882812 C10.75527137 0.06063268 13.09244811 0.07709866 15.4296875 0.09765625 C15.4296875 1.08765625 15.4296875 2.07765625 15.4296875 3.09765625 C12.02494104 4.00558864 9.03985452 4.06422613 5.5546875 3.91015625 C0.52546011 3.89523273 -2.81948389 4.65787197 -6.5703125 8.09765625 C-10.19425312 12.49229918 -12.70765524 16.41013686 -13.5703125 22.09765625 C-14.2303125 22.09765625 -14.8903125 22.09765625 -15.5703125 22.09765625 C-16.2303125 29.68765625 -16.8903125 37.27765625 -17.5703125 45.09765625 C-15.9203125 45.09765625 -14.2703125 45.09765625 -12.5703125 45.09765625 C-13.0653125 46.08765625 -13.0653125 46.08765625 -13.5703125 47.09765625 C-14.8903125 47.09765625 -16.2103125 47.09765625 -17.5703125 47.09765625 C-17.41146234 56.85972047 -15.77162886 64.31546536 -11.5703125 73.09765625 C-11.09271484 74.37962891 -11.09271484 74.37962891 -10.60546875 75.6875 C-7.60598233 82.6712099 -1.31196303 87.85888393 5.4296875 91.09765625 C13.42023869 93.90947605 25.65659535 93.01256581 33.4296875 90.09765625 C41.06543403 86.15755352 46.08622368 81.1263661 50.31640625 73.671875 C50.68378906 73.15238281 51.05117188 72.63289063 51.4296875 72.09765625 C52.0896875 72.09765625 52.7496875 72.09765625 53.4296875 72.09765625 C53.0996875 75.06765625 52.7696875 78.03765625 52.4296875 81.09765625 C51.7696875 81.09765625 51.1096875 81.09765625 50.4296875 81.09765625 C50.32785156 81.67902344 50.22601562 82.26039063 50.12109375 82.859375 C48.00936375 89.69565348 40.03992004 95.97058863 34.4296875 100.09765625 C33.7696875 100.09765625 33.1096875 100.09765625 32.4296875 100.09765625 C31.9346875 101.58265625 31.9346875 101.58265625 31.4296875 103.09765625 C28.82726336 104.7458582 27.56719971 105.09765625 24.4296875 105.09765625 C24.4296875 106.08765625 24.4296875 107.07765625 24.4296875 108.09765625 C11.5596875 108.09765625 -1.3103125 108.09765625 -14.5703125 108.09765625 C-14.5703125 107.10765625 -14.5703125 106.11765625 -14.5703125 105.09765625 C-15.11558594 104.96230469 -15.66085937 104.82695312 -16.22265625 104.6875 C-26.58976152 101.72800157 -32.56065941 95.53320303 -38.9453125 87.16015625 C-39.45747314 86.49218018 -39.96963379 85.8242041 -40.49731445 85.13598633 C-49.66119269 72.66052242 -49.6612048 58.06004714 -48.5703125 43.09765625 C-47.8320222 38.5521042 -46.26322447 34.36700724 -44.5703125 30.09765625 C-44.08598864 28.43248092 -43.606352 26.76593045 -43.1328125 25.09765625 C-41.74200628 21.04297779 -39.88204192 18.90542684 -36.5703125 16.09765625 C-35.89613281 15.45828125 -35.22195313 14.81890625 -34.52734375 14.16015625 C-26.59931791 6.7370133 -19.94318997 3.91522593 -9.328125 1.7109375 C-1.58912718 -0.01005777 -1.58912718 -0.01005777 0 0 Z " fill="#070707" transform="translate(688.5703125,56.90234375)"/>
<path d="M0 0 C2.14503684 3.48846822 2.23354662 6.24405878 2.1953125 10.296875 C2.18886719 11.50214844 2.18242187 12.70742187 2.17578125 13.94921875 C2.15064453 15.83060547 2.15064453 15.83060547 2.125 17.75 C2.11597656 19.01972656 2.10695313 20.28945312 2.09765625 21.59765625 C2.07409005 24.73196093 2.04118832 27.86588541 2 31 C0.515 31.495 0.515 31.495 -1 32 C-1.33 34.64 -1.66 37.28 -2 40 C-0.35 40.33 1.3 40.66 3 41 C3.20496094 41.90363281 3.40992188 42.80726563 3.62109375 43.73828125 C3.89050781 44.91777344 4.15992188 46.09726563 4.4375 47.3125 C4.70433594 48.48425781 4.97117187 49.65601563 5.24609375 50.86328125 C5.95313969 54.00236971 5.95313969 54.00236971 7 57 C7.825 57.309375 8.65 57.61875 9.5 57.9375 C10.325 58.288125 11.15 58.63875 12 59 C12.495 60.98 12.495 60.98 13 63 C-8.45 63 -29.9 63 -52 63 C-52 62.01 -52 61.02 -52 60 C-52.804375 59.731875 -53.60875 59.46375 -54.4375 59.1875 C-55.283125 58.795625 -56.12875 58.40375 -57 58 C-57.495 56.515 -57.495 56.515 -58 55 C-58.66 55 -59.32 55 -60 55 C-65.57902211 48.72721348 -66.85403255 42.48054585 -66.4453125 34.26171875 C-65.28681898 25.77626184 -60.11854237 19.77672436 -54 14 C-50.4472196 11.49215501 -47.46791641 10.48292667 -43.1875 9.8125 C-42.21167969 9.65394531 -41.23585937 9.49539062 -40.23046875 9.33203125 C-39.49441406 9.22246094 -38.75835937 9.11289063 -38 9 C-38 8.34 -38 7.68 -38 7 C-33.66293983 5.44087738 -29.46729548 4.45683098 -24.921875 3.7109375 C-24.26922668 3.60278717 -23.61657837 3.49463684 -22.94415283 3.38320923 C-21.57642566 3.15748038 -20.2083139 2.93407058 -18.83984375 2.71289062 C-16.74131697 2.37359611 -14.64404546 2.02725777 -12.546875 1.6796875 C-2.32830329 0 -2.32830329 0 0 0 Z " fill="#080808" transform="translate(216,102)"/>
<path d="M0 0 C14.19 0 28.38 0 43 0 C43 0.99 43 1.98 43 3 C44.2375 3.185625 45.475 3.37125 46.75 3.5625 C56.52592778 5.75206111 64.41847149 11.67936936 71 19 C71.928125 19.86625 72.85625 20.7325 73.8125 21.625 C76.02480036 24.0269261 77.0285336 25.90897055 78 29 C78.66 29 79.32 29 80 29 C82.1519437 32.22791555 82.20086443 33.28400809 82 37 C82.66 37 83.32 37 84 37 C86.34774027 46.80749564 86.41233849 59.79670651 82 69 C79.59828578 72.30426924 76.92885454 75.16109109 74 78 C73.33097656 78.70769531 72.66195312 79.41539063 71.97265625 80.14453125 C66.46183028 85.32798142 59.13044736 85.31705449 51.9375 85.4375 C51.18194824 85.45973633 50.42639648 85.48197266 49.64794922 85.50488281 C44.5954271 85.48510777 41.09227561 84.43505676 36.69213867 81.95117188 C34.8997067 80.88117446 34.8997067 80.88117446 32.375 80.0625 C24.28938775 76.44525241 18.74648685 68.40418424 15.5625 60.375 C15.376875 59.59125 15.19125 58.8075 15 58 C14.34 58 13.68 58 13 58 C12.49384702 56.73160474 11.99530901 55.46016898 11.5 54.1875 C11.2215625 53.47980469 10.943125 52.77210937 10.65625 52.04296875 C10 50 10 50 10 47 C11.32 47.66 12.64 48.32 14 49 C14 49.66 14 50.32 14 51 C24.28477888 55.36323952 33.51913958 56.53084064 44.22265625 53.046875 C46.50345011 51.70346235 46.97649349 50.40478743 48 48 C48.680625 47.030625 49.36125 46.06125 50.0625 45.0625 C53.75711313 39.22262763 53.88310001 32.28338273 52.50390625 25.59375 C50.69851661 19.47378513 47.86709454 16.09220412 42.6875 12.3125 C42.130625 11.879375 41.57375 11.44625 41 11 C41 10.34 41 9.68 41 9 C40.01 9 39.02 9 38 9 C38 8.34 38 7.68 38 7 C36.68 7 35.36 7 34 7 C34 6.34 34 5.68 34 5 C30.97893247 5.14184833 27.95820903 5.28835667 24.9375 5.4375 C24.08994141 5.47681641 23.24238281 5.51613281 22.36914062 5.55664062 C17.51999791 5.80003389 12.79371788 6.22598042 8 7 C7.67 6.34 7.34 5.68 7 5 C6.01 5.495 6.01 5.495 5 6 C5 5.34 5 4.68 5 4 C2.69 4.33 0.38 4.66 -2 5 C-2.33 5.99 -2.66 6.98 -3 8 C-3.66 8 -4.32 8 -5 8 C-5 7.34 -5 6.68 -5 6 C-6.32 5.67 -7.64 5.34 -9 5 C-6.03 4.34 -3.06 3.68 0 3 C0 2.01 0 1.02 0 0 Z " fill="#070707" transform="translate(63,0)"/>
<path d="M0 0 C12.02071383 8.45483764 18.66484489 17.94694206 21.20068359 32.43945312 C21.81134995 36.40430157 21.91015625 39.99221553 21.91015625 44.046875 C-2.17984375 44.046875 -26.26984375 44.046875 -51.08984375 44.046875 C-51.08984375 47.676875 -51.08984375 51.306875 -51.08984375 55.046875 C-51.41984375 55.046875 -51.74984375 55.046875 -52.08984375 55.046875 C-52.2844108 53.08923117 -52.47028622 51.13072179 -52.65234375 49.171875 C-52.75675781 48.08132812 -52.86117187 46.99078125 -52.96875 45.8671875 C-53.08984375 43.046875 -53.08984375 43.046875 -52.08984375 41.046875 C-50.02734375 40.421875 -50.02734375 40.421875 -48.08984375 40.046875 C-49.40984375 39.716875 -50.72984375 39.386875 -52.08984375 39.046875 C-52.29467403 31.04711456 -52.22464528 23.78553054 -50.08984375 16.046875 C-49.42984375 16.046875 -48.76984375 16.046875 -48.08984375 16.046875 C-48.06921875 15.0775 -48.04859375 14.108125 -48.02734375 13.109375 C-47.26775509 7.7814031 -43.87132154 3.70774281 -40.08984375 0.046875 C-35.50771688 -2.84676068 -32.08802761 -3.29269624 -26.71484375 -3.140625 C-25.46960938 -3.11355469 -24.224375 -3.08648437 -22.94140625 -3.05859375 C-22.00039063 -3.02378906 -21.059375 -2.98898438 -20.08984375 -2.953125 C-19.75984375 -3.613125 -19.42984375 -4.273125 -19.08984375 -4.953125 C-22.23549421 -5.04157516 -25.3808175 -5.09399335 -28.52734375 -5.140625 C-29.84508789 -5.17833008 -29.84508789 -5.17833008 -31.18945312 -5.21679688 C-36.6902335 -5.27769112 -41.00703496 -4.6231648 -46.10180664 -2.50512695 C-48.45939884 -1.85051367 -49.80033136 -2.17991389 -52.08984375 -2.953125 C-51.09984375 -2.953125 -50.10984375 -2.953125 -49.08984375 -2.953125 C-49.08984375 -3.613125 -49.08984375 -4.273125 -49.08984375 -4.953125 C-33.12628427 -9.69647382 -14.25095804 -9.00819092 0 0 Z " fill="#0F0F0F" transform="translate(723.08984375,62.953125)"/>
<path d="M0 0 C23.76 0 47.52 0 72 0 C72 7.59 72 15.18 72 23 C70.02 23.33 68.04 23.66 66 24 C65.9175 24.70125 65.835 25.4025 65.75 26.125 C64.43250078 31.17541367 62.00204555 34.23844538 57.875 37.375 C55 39 55 39 53 39 C52.67 39.99 52.34 40.98 52 42 C47.4597315 44.06689006 43.09993804 44.31720561 38.1875 44.25 C37.48189941 44.24395752 36.77629883 44.23791504 36.04931641 44.23168945 C27.66292997 44.07260072 19.1730751 43.13310312 12.9609375 36.98046875 C2.37132468 25.37040233 0 15.7372043 0 0 Z " fill="#F7F7F7" transform="translate(786,106)"/>
<path d="M0 0 C1.36318359 0.34417969 1.36318359 0.34417969 2.75390625 0.6953125 C9.71840659 2.57760989 9.71840659 2.57760989 12 6 C13.2684375 6.556875 13.2684375 6.556875 14.5625 7.125 C22.56201041 11.48836932 27.2465886 17.9157293 31 26 C32.485 26.495 32.485 26.495 34 27 C34 34.26 34 41.52 34 49 C10.24 49 -13.52 49 -38 49 C-37.67 53.95 -37.34 58.9 -37 64 C-37.99 63.34 -38.98 62.68 -40 62 C-39.67 57.38 -39.34 52.76 -39 48 C-38.01 48 -37.02 48 -36 48 C-36 47.34 -36 46.68 -36 46 C-36.99 45.67 -37.98 45.34 -39 45 C-39 40.38 -39 35.76 -39 31 C-38.67 31 -38.34 31 -38 31 C-38 35.29 -38 39.58 -38 44 C-23.81 44 -9.62 44 5 44 C5.08607361 35.20513276 5.08607361 35.20513276 3 27 C2.76136991 25.10533458 2.53382884 23.20926433 2.3125 21.3125 C1.38358062 15.41279829 -0.42481676 11.84166202 -5 8 C-5.66 7.67 -6.32 7.34 -7 7 C-7 6.34 -7 5.68 -7 5 C-10.99795892 4.04380267 -14.70803922 3.8960408 -18.8125 3.9375 C-20.55466797 3.95103516 -20.55466797 3.95103516 -22.33203125 3.96484375 C-23.21246094 3.97644531 -24.09289062 3.98804688 -25 4 C-25 4.66 -25 5.32 -25 6 C-29.30840713 4.92289822 -32.63576723 3.96052484 -36 1 C-24.86875653 -3.85726988 -11.57140315 -3.20438856 0 0 Z " fill="#0D0D0D" transform="translate(824,57)"/>
<path d="M0 0 C0 0.66 0 1.32 0 2 C0.556875 2.20625 1.11375 2.4125 1.6875 2.625 C4.9572357 4.56916717 7.21295432 6.66671621 9 10 C9.75923965 13.12676115 10.24359878 16.19853415 10.640625 19.390625 C10.85451972 21.97653856 10.85451972 21.97653856 12 24 C12 28.95 12 33.9 12 39 C-2.19 39 -16.38 39 -31 39 C-31 12.38992537 -31 12.38992537 -20 1 C-19.34 1 -18.68 1 -18 1 C-18 0.34 -18 -0.32 -18 -1 C-11.96066243 -2.71183038 -5.67573523 -2.92941173 0 0 Z " fill="#F6F6F6" transform="translate(817,62)"/>
<path d="M0 0 C4.40181161 2.47833091 6.53820103 5.89760618 8.546875 10.421875 C8.96324219 11.33710937 9.37960937 12.25234375 9.80859375 13.1953125 C12.96369549 21.75748451 11.859375 29.72044628 11.859375 39.046875 C-2.330625 39.046875 -16.520625 39.046875 -31.140625 39.046875 C-31.07875 35.56125 -31.016875 32.075625 -30.953125 28.484375 C-30.94643799 27.39954834 -30.93975098 26.31472168 -30.93286133 25.19702148 C-30.7171867 18.47897309 -29.49507769 15.16098299 -25.140625 10.046875 C-24.83125 9.20125 -24.521875 8.355625 -24.203125 7.484375 C-22.66117364 3.94695717 -20.13352959 1.45338353 -17.140625 -0.953125 C-11.05704558 -2.98098481 -5.85355515 -2.176942 0 0 Z " fill="#F8F7F8" transform="translate(422.140625,61.953125)"/>
<path d="M0 0 C6.55109051 4.18541893 10.13381328 10.67089129 11.87109375 18.08984375 C13.34073954 25.80295029 13.25 32.38271631 13.25 40.4375 C-0.94 40.4375 -15.13 40.4375 -29.75 40.4375 C-29.75 30.90461561 -29.34103733 23.96621365 -25.75 15.4375 C-25.3478125 13.7359375 -25.3478125 13.7359375 -24.9375 12 C-23.20197031 6.79341093 -20.54172841 3.68754308 -16.0625 0.5625 C-10.69923372 -1.25898666 -5.52206712 -1.12951373 0 0 Z " fill="#F5F4F5" transform="translate(701.75,60.5625)"/>
<path d="M0 0 C20.79 0 41.58 0 63 0 C63 0.99 63 1.98 63 3 C61.74703125 3.38671875 60.4940625 3.7734375 59.203125 4.171875 C57.551878 4.69727177 55.90084749 5.22334927 54.25 5.75 C53.425 6.00265625 52.6 6.2553125 51.75 6.515625 C47.14273672 8.00183896 44.24049611 9.25799854 41 13 C39.2675 13.7734375 39.2675 13.7734375 37.5 14.5625 C22.93675244 21.43504379 12.83219479 36.57299183 7 51 C6.34 51 5.68 51 5 51 C4.34 54.3 3.68 57.6 3 61 C2.01 61 1.02 61 0 61 C0 40.87 0 20.74 0 0 Z " fill="#FAFAFA" transform="translate(0,0)"/>
<path d="M0 0 C0.66 0 1.32 0 2 0 C2 1.98 2 3.96 2 6 C2.66 6 3.32 6 4 6 C4.32613281 6.91523437 4.65226563 7.83046875 4.98828125 8.7734375 C5.42527344 9.96195313 5.86226563 11.15046875 6.3125 12.375 C6.74175781 13.55835937 7.17101563 14.74171875 7.61328125 15.9609375 C8.78621555 19.23787198 8.78621555 19.23787198 12 21 C12 21.66 12 22.32 12 23 C12.66 23 13.32 23 14 23 C14 23.99 14 24.98 14 26 C14.66 26 15.32 26 16 26 C16.33 27.65 16.66 29.3 17 31 C17.66 31 18.32 31 19 31 C20.65625 32.93359375 20.65625 32.93359375 22.5 35.4375 C24.79910263 38.74856792 24.79910263 38.74856792 28 41 C28 41.66 28 42.32 28 43 C28.66 43.20625 29.32 43.4125 30 43.625 C32.68447176 44.85538289 34.46276613 46.06351077 36.75 47.875 C40.89508777 51.08334477 45.16022962 53.0554494 50 55 C51.35537542 55.58051925 52.70966328 56.16358892 54.0625 56.75 C55.5165625 57.36875 55.5165625 57.36875 57 58 C57 58.99 57 59.98 57 61 C37.86 61 18.72 61 -1 61 C-1.02094532 53.2013606 -1.04098343 45.40282251 -1.05175018 37.60417938 C-1.05703996 33.97284243 -1.06411357 30.34152865 -1.07543945 26.71020508 C-1.08627184 23.21540025 -1.09227758 19.72061796 -1.09487724 16.22579765 C-1.09763551 14.23760611 -1.10544688 12.24942369 -1.11329651 10.26124573 C-1.11337204 9.06007614 -1.11344757 7.85890656 -1.11352539 6.62133789 C-1.115746 5.55766495 -1.11796661 4.493992 -1.12025452 3.39808655 C-1 1 -1 1 0 0 Z " fill="#F9F9F9" transform="translate(1,104)"/>
<path d="M0 0 C0.66837768 31.00529781 0.66837768 31.00529781 -6.83203125 38.9375 C-11.39586215 43.13724049 -14.21046496 44.84784354 -20.4375 45.1875 C-25.04900531 44.94478919 -27.51621618 44.49646574 -30.828125 41.15625 C-35.84180152 35.53114952 -37.35508129 32.61702857 -37.28515625 25.03515625 C-36.84484931 20.34860154 -35.53029274 15.99067774 -33 12 C-30.859375 10.72265625 -30.859375 10.72265625 -29 10 C-29 9.34 -29 8.68 -29 8 C-19.35090091 3.06770617 -10.99447749 -0.18725387 0 0 Z " fill="#F5F5F5" transform="translate(217,107)"/>
<path d="M0 0 C0 0.66 0 1.32 0 2 C0.5775 2.20625 1.155 2.4125 1.75 2.625 C4.97114028 4.59347462 6.74194141 6.47997747 8 10 C8.97181145 16.80268013 9.3189182 23.10543842 5.1875 28.875 C3.60546875 30.7421875 3.60546875 30.7421875 2 32 C1.01 32 0.02 32 -1 32 C-1.2784375 32.9590625 -1.2784375 32.9590625 -1.5625 33.9375 C-2.036875 34.618125 -2.51125 35.29875 -3 36 C-5.32166397 36.4067333 -7.65681039 36.74501373 -10 37 C-9.87818359 35.37191406 -9.87818359 35.37191406 -9.75390625 33.7109375 C-9.09095684 25.86645061 -9.09095684 25.86645061 -11.453125 18.63671875 C-17.40530012 13.59737721 -23.49178458 13.57157116 -31 14 C-34.50305007 14.63239658 -34.50305007 14.63239658 -37 16 C-37.495 17.485 -37.495 17.485 -38 19 C-38.66 19 -39.32 19 -40 19 C-40.495 20.485 -40.495 20.485 -41 22 C-43.0625 22.6875 -43.0625 22.6875 -45 23 C-45 22.01 -45 21.02 -45 20 C-45.99 20 -46.98 20 -48 20 C-48.19820604 18.31372397 -48.38298309 16.6258679 -48.5625 14.9375 C-48.71912109 13.52791016 -48.71912109 13.52791016 -48.87890625 12.08984375 C-49 9 -49 9 -48 2 C-57.57 2 -67.14 2 -77 2 C-77.33 3.32 -77.66 4.64 -78 6 C-80.49361571 4.79618552 -82.68143083 3.54571278 -85 2 C-85 1.34 -85 0.68 -85 0 C-85.66 0 -86.32 0 -87 0 C-87 -0.66 -87 -1.32 -87 -2 C-73.47 -2 -59.94 -2 -46 -2 C-46 4.27 -46 10.54 -46 17 C-45.34 17 -44.68 17 -44 17 C-43.74863281 16.27039063 -43.49726563 15.54078125 -43.23828125 14.7890625 C-41.90449286 11.78488297 -40.3789009 9.81361439 -38.1875 7.375 C-37.52105469 6.61960937 -36.85460937 5.86421875 -36.16796875 5.0859375 C-33.51992216 2.53808727 -30.81637712 0 -27 0 C-27 -0.66 -27 -1.32 -27 -2 C-16.98981638 -4.96598033 -9.31381548 -5.0393591 0 0 Z " fill="#0C0C0C" transform="translate(353,58)"/>
<path d="M0 0 C2.63701691 1.94075673 4.87575226 3.82172299 6.4375 6.75 C6.4375 7.74 6.4375 8.73 6.4375 9.75 C7.0975 9.75 7.7575 9.75 8.4375 9.75 C9.78869149 12.45238298 9.56987128 14.61014446 9.5625 17.625 C9.56636719 19.19894531 9.56636719 19.19894531 9.5703125 20.8046875 C9.45748664 23.30676685 9.16258762 25.36756923 8.4375 27.75 C7.7775 27.75 7.1175 27.75 6.4375 27.75 C6.355 28.3275 6.2725 28.905 6.1875 29.5 C5.15519788 32.59690637 4.03587784 33.73625717 1.4375 35.75 C-1.51079848 36.94456921 -4.5022404 37.88684986 -7.5625 38.75 C-7.48128906 37.8321875 -7.40007812 36.914375 -7.31640625 35.96875 C-6.7808558 27.31421593 -6.7808558 27.31421593 -10.75 19.9375 C-14.54525923 16.05955538 -18.62827379 15.62438735 -23.875 15.375 C-29.10464182 15.4621607 -32.76351223 17.17498884 -36.5625 20.75 C-38.32041342 23.29036746 -39.50501061 25.85499191 -40.5625 28.75 C-40.90023437 29.52432373 -41.23796875 30.29864746 -41.5859375 31.09643555 C-43.02987369 36.49856182 -42.92167009 41.79730656 -42.9765625 47.3671875 C-42.99592865 48.57948029 -43.0152948 49.79177307 -43.0352478 51.040802 C-43.09489315 54.90213039 -43.14136945 58.76348883 -43.1875 62.625 C-43.22569356 65.24740863 -43.26474609 67.86980491 -43.3046875 70.4921875 C-43.40058247 76.91134839 -43.48567405 83.33058409 -43.5625 89.75 C-43.8925 89.75 -44.2225 89.75 -44.5625 89.75 C-44.58572164 82.42175434 -44.60346504 75.09351669 -44.61431217 67.76524162 C-44.61951956 64.36203583 -44.62657808 60.95885531 -44.63793945 57.55566406 C-44.65093353 53.638675 -44.65574595 49.721696 -44.66015625 45.8046875 C-44.66531754 44.58884979 -44.67047882 43.37301208 -44.67579651 42.12033081 C-44.67587204 40.97960114 -44.67594757 39.83887146 -44.67602539 38.66357422 C-44.678246 37.66429901 -44.68046661 36.6650238 -44.68275452 35.63546753 C-44.5625 32.75 -44.5625 32.75 -43.99290466 29.56790161 C-43.33268329 26.67971261 -43.33268329 26.67971261 -44.5625 23.75 C-44.2325 23.09 -43.9025 22.43 -43.5625 21.75 C-44.2225 21.75 -44.8825 21.75 -45.5625 21.75 C-45.2325 14.82 -44.9025 7.89 -44.5625 0.75 C-49.93782532 0.86973473 -55.31292429 0.99231156 -60.68798828 1.12231445 C-62.51737575 1.16568565 -64.34680427 1.20735911 -66.17626953 1.24731445 C-68.80253486 1.30496418 -71.4285931 1.36867365 -74.0546875 1.43359375 C-75.28600906 1.45866249 -75.28600906 1.45866249 -76.54220581 1.48423767 C-80.6858696 1.4931387 -80.6858696 1.4931387 -84.5625 2.75 C-84.5625 1.76 -84.5625 0.77 -84.5625 -0.25 C-71.0325 -0.25 -57.5025 -0.25 -43.5625 -0.25 C-43.0675 8.165 -43.0675 8.165 -42.5625 16.75 C-41.9025 16.75 -41.2425 16.75 -40.5625 16.75 C-40.3253125 16.02425781 -40.088125 15.29851562 -39.84375 14.55078125 C-38.3635778 11.31516091 -36.59843526 9.41991715 -34.0625 6.9375 C-33.2684375 6.14730469 -32.474375 5.35710938 -31.65625 4.54296875 C-29.5625 2.75 -29.5625 2.75 -27.5625 2.75 C-27.5625 2.09 -27.5625 1.43 -27.5625 0.75 C-18.69230579 -2.18345005 -8.56619261 -5.08323518 0 0 Z " fill="#151515" transform="translate(628.5625,56.25)"/>
<path d="M0 0 C8.25881202 1.06565316 12.91003375 4.44867698 19 10 C19.59039062 10.53753906 20.18078125 11.07507813 20.7890625 11.62890625 C22 13 22 13 22 15 C22.66 15 23.32 15 24 15 C24.81690177 17.22763988 25.62861872 19.4569486 26.4375 21.6875 C26.66759766 22.31333984 26.89769531 22.93917969 27.13476562 23.58398438 C29.14271275 29.14221481 30.13368954 33.90376857 30.0625 39.8125 C30.05347656 40.78832031 30.04445313 41.76414063 30.03515625 42.76953125 C30.02355469 43.50558594 30.01195312 44.24164063 30 45 C5.65738382 45.22092573 -18.66637115 44.58872945 -43 44 C-42.67 43.34 -42.34 42.68 -42 42 C-27.48 42 -12.96 42 2 42 C1.61930217 24.48264201 1.61930217 24.48264201 -5 10 C-5.125 7.3125 -5.125 7.3125 -5 5 C-4.01 5 -3.02 5 -2 5 C-1.34 3.35 -0.68 1.7 0 0 Z " fill="#060606" transform="translate(433,60)"/>
<path d="M0 0 C1.05267563 0.00424484 1.05267563 0.00424484 2.12661743 0.00857544 C4.34761278 0.01968738 6.56819095 0.04477416 8.7890625 0.0703125 C10.30337955 0.08035396 11.81770299 0.08947777 13.33203125 0.09765625 C17.02617508 0.11959696 20.72007801 0.15406375 24.4140625 0.1953125 C24.4140625 0.8553125 24.4140625 1.5153125 24.4140625 2.1953125 C27.0540625 2.1953125 29.6940625 2.1953125 32.4140625 2.1953125 C32.9090625 3.1853125 32.9090625 3.1853125 33.4140625 4.1953125 C31.28871591 4.05462054 29.16378721 3.90760329 27.0390625 3.7578125 C25.85570312 3.67660156 24.67234375 3.59539063 23.453125 3.51171875 C20.4140625 3.1953125 20.4140625 3.1953125 18.4140625 2.1953125 C16.7466019 2.11105156 15.07581063 2.08806107 13.40625 2.09765625 C12.42011719 2.10087891 11.43398437 2.10410156 10.41796875 2.10742188 C8.86916016 2.11999023 8.86916016 2.11999023 7.2890625 2.1328125 C6.24878906 2.13732422 5.20851562 2.14183594 4.13671875 2.14648438 C1.56244288 2.15829298 -1.01171896 2.17476175 -3.5859375 2.1953125 C-3.5859375 2.8553125 -3.5859375 3.5153125 -3.5859375 4.1953125 C-2.57273438 4.16050781 -1.55953125 4.12570313 -0.515625 4.08984375 C0.8359208 4.06168655 2.18748469 4.03438847 3.5390625 4.0078125 C4.20421875 3.98267578 4.869375 3.95753906 5.5546875 3.93164062 C10.28308542 3.86210536 13.36527729 4.79252875 17.4140625 7.1953125 C16.0940625 7.5253125 14.7740625 7.8553125 13.4140625 8.1953125 C13.4140625 7.5353125 13.4140625 6.8753125 13.4140625 6.1953125 C7.8040625 6.1953125 2.1940625 6.1953125 -3.5859375 6.1953125 C-3.5859375 6.8553125 -3.5859375 7.5153125 -3.5859375 8.1953125 C-4.3696875 8.6284375 -5.1534375 9.0615625 -5.9609375 9.5078125 C-9.19562886 11.58725695 -9.71412656 12.47030213 -10.5859375 16.1953125 C-11.09825813 20.97959897 -11.26640876 24.83436998 -9.0859375 29.1953125 C-5.67691262 31.9225324 -2.86375364 32.41104621 1.4140625 33.1953125 C0.84897727 36.66870303 -0.21237086 38.14538226 -2.8984375 40.3828125 C-3.49269531 40.89199219 -4.08695313 41.40117188 -4.69921875 41.92578125 C-9.99193926 45.48713563 -17.52007888 45.10012435 -23.5859375 44.1953125 C-26.83979176 42.31653906 -29.13501295 40.01447941 -31.5859375 37.1953125 C-32.14152344 36.74027344 -32.69710937 36.28523438 -33.26953125 35.81640625 C-35.74397277 32.76924533 -35.03845088 29.08827406 -34.9296875 25.3359375 C-34.24472639 19.07788375 -32.08842969 14.25555345 -27.4609375 9.9453125 C-19.40025933 3.70478746 -10.19309996 -0.0815448 0 0 Z " fill="#101010" transform="translate(191.5859375,55.8046875)"/>
<path d="M0 0 C7.59 0 15.18 0 23 0 C23 0.99 23 1.98 23 3 C23.94359375 2.98646484 23.94359375 2.98646484 24.90625 2.97265625 C31.48909923 3.20067663 34.83440214 4.79580756 39.6015625 9.30859375 C41 11 41 11 41 13 C41.66 13 42.32 13 43 13 C46.65875623 17.08092041 46.28823978 21.29874677 46.203125 26.4765625 C46 29 46 29 45 32 C44.34 32 43.68 32 43 32 C42.773125 32.763125 42.54625 33.52625 42.3125 34.3125 C40.62176495 37.77448129 39.58975819 38.57905405 36 40 C30.31288951 40.60763785 25.32052677 40.2402218 20 38 C20 37.34 20 36.68 20 36 C18.68 35.67 17.36 35.34 16 35 C16 33.68 16 32.36 16 31 C17.65 31 19.3 31 21 31 C21 30.34 21 29.68 21 29 C21.639375 28.896875 22.27875 28.79375 22.9375 28.6875 C23.618125 28.460625 24.29875 28.23375 25 28 C26.10261088 24.69216735 26.23740779 22.04440731 26.3125 18.5625 C26.34988281 17.42941406 26.38726563 16.29632812 26.42578125 15.12890625 C25.91291664 11.36005713 24.9842641 10.27449318 22 8 C18.85069107 6.95023036 16.61185544 6.89868405 13.3125 6.9375 C12.31863281 6.94652344 11.32476563 6.95554687 10.30078125 6.96484375 C9.54152344 6.97644531 8.78226563 6.98804688 8 7 C8.33 6.01 8.66 5.02 9 4 C3.72 4.66 -1.56 5.32 -7 6 C-4.08235 4.0549 -2.37462715 3.54723683 1 3 C0.67 2.01 0.34 1.02 0 0 Z " fill="#0B0B0B" transform="translate(514,0)"/>
<path d="M0 0 C1.32 0 2.64 0 4 0 C4.01417969 0.9178125 4.02835938 1.835625 4.04296875 2.78125 C4.31379114 9.74943698 4.62320861 14.91976192 8.94140625 20.546875 C10 22 10 22 10 24 C10.66 24 11.32 24 12 24 C13.35432675 25.31200404 14.68733482 26.64631404 16 28 C16.66 28.33 17.32 28.66 18 29 C18 29.99 18 30.98 18 32 C-0.48 32 -18.96 32 -38 32 C-38.33 31.01 -38.66 30.02 -39 29 C-37.35 28.67 -35.7 28.34 -34 28 C-34 27.34 -34 26.68 -34 26 C-33.09636719 25.72285156 -32.19273438 25.44570312 -31.26171875 25.16015625 C-30.08222656 24.79792969 -28.90273437 24.43570313 -27.6875 24.0625 C-26.51574219 23.70285156 -25.34398438 23.34320313 -24.13671875 22.97265625 C-22.08446023 22.33627721 -20.03839863 21.67946621 -18 21 C-18 20.34 -18 19.68 -18 19 C-16.33900296 17.68775323 -14.61893656 16.44982835 -12.875 15.25 C-9.46858195 12.8475327 -6.3179424 10.51692222 -3.4375 7.5 C-2.633125 6.675 -1.82875 5.85 -1 5 C-0.34 5 0.32 5 1 5 C1 4.34 1 3.68 1 3 C0.01 3.33 -0.98 3.66 -2 4 C-2 3.34 -2 2.68 -2 2 C-1.34 2 -0.68 2 0 2 C0 1.34 0 0.68 0 0 Z " fill="#F3F2F3" transform="translate(146,133)"/>
<path d="M0 0 C0.99 0 1.98 0 3 0 C3 10.89 3 21.78 3 33 C-6.9 33 -16.8 33 -27 33 C-27.33 32.01 -27.66 31.02 -28 30 C-27.40832031 29.76925781 -26.81664062 29.53851563 -26.20703125 29.30078125 C-21.10729184 27.19599484 -17.70824968 25.19617727 -14 21 C-12.8347355 19.89435368 -11.66796183 18.79029658 -10.5 17.6875 C-5.39164476 12.56801544 -1.9269437 7.00706798 0 0 Z " fill="#F8F8F8" transform="translate(855,132)"/>
<path d="M0 0 C0.66 0 1.32 0 2 0 C2.48828125 1.98567708 2.9765625 3.97135417 3.46484375 5.95703125 C4.53324828 10.2300612 4.53324828 10.2300612 8 13 C8 13.66 8 14.32 8 15 C8.804375 15.2475 9.60875 15.495 10.4375 15.75 C11.283125 16.1625 12.12875 16.575 13 17 C13.495 18.98 13.495 18.98 14 21 C2.45 21 -9.1 21 -21 21 C-21 19.68 -21 18.36 -21 17 C-20.40832031 16.80664062 -19.81664062 16.61328125 -19.20703125 16.4140625 C-17.57822655 15.87732751 -15.95198944 15.33275113 -14.328125 14.78125 C-12.58373429 14.19588399 -10.82591724 13.65027322 -9.0625 13.125 C-6.23894716 11.58488027 -6.042604 9.98879813 -5 7 C-3.70055256 5.30678061 -2.37073786 3.63604196 -1 2 C-0.67 1.34 -0.34 0.68 0 0 Z " fill="#F1F1F1" transform="translate(215,144)"/>
<path d="M0 0 C14.19 0 28.38 0 43 0 C43 0.99 43 1.98 43 3 C43.66 3.33 44.32 3.66 45 4 C44.34 4.33 43.68 4.66 43 5 C43.495 6.485 43.495 6.485 44 8 C43.34 8 42.68 8 42 8 C42.495 9.485 42.495 9.485 43 11 C42.34 11 41.68 11 41 11 C41 10.34 41 9.68 41 9 C40.01 9 39.02 9 38 9 C38 8.34 38 7.68 38 7 C36.68 7 35.36 7 34 7 C34 6.34 34 5.68 34 5 C30.97893247 5.14184833 27.95820903 5.28835667 24.9375 5.4375 C24.08994141 5.47681641 23.24238281 5.51613281 22.36914062 5.55664062 C17.51999791 5.80003389 12.79371788 6.22598042 8 7 C7.67 6.34 7.34 5.68 7 5 C6.01 5.495 6.01 5.495 5 6 C5 5.34 5 4.68 5 4 C2.69 4.33 0.38 4.66 -2 5 C-2.33 5.99 -2.66 6.98 -3 8 C-3.66 8 -4.32 8 -5 8 C-5 7.34 -5 6.68 -5 6 C-6.32 5.67 -7.64 5.34 -9 5 C-6.03 4.34 -3.06 3.68 0 3 C0 2.01 0 1.02 0 0 Z " fill="#101010" transform="translate(63,0)"/>
<path d="M0 0 C1.32 0 2.64 0 4 0 C4 0.66 4 1.32 4 2 C5.98 2 7.96 2 10 2 C9.34 3.98 8.68 5.96 8 8 C-11.8 8 -31.6 8 -52 8 C-52 5 -52 5 -50 2 C-49.34 2.33 -48.68 2.66 -48 3 C-46.39645548 3.09016377 -44.78917778 3.11756075 -43.18310547 3.11352539 C-42.18221893 3.11344986 -41.1813324 3.11337433 -40.15011597 3.11329651 C-39.06674957 3.10813522 -37.98338318 3.10297394 -36.8671875 3.09765625 C-35.76021515 3.0962413 -34.6532428 3.09482635 -33.51272583 3.09336853 C-29.96679007 3.08775772 -26.42091677 3.07520337 -22.875 3.0625 C-20.47526133 3.05748639 -18.07552167 3.05292325 -15.67578125 3.04882812 C-9.78383275 3.03778478 -3.89192084 3.0210361 2 3 C1.34 2.01 0.68 1.02 0 0 Z " fill="#F7F7F7" transform="translate(594,157)"/>
<path d="M0 0 C0.66 0 1.32 0 2 0 C2 0.66 2 1.32 2 2 C9.47488839 1.88238973 16.94963108 1.75755833 24.42431641 1.62768555 C26.96758281 1.58435101 29.51087802 1.54267487 32.05419922 1.50268555 C35.70809619 1.44494742 39.36184831 1.38126275 43.015625 1.31640625 C44.15429016 1.29969376 45.29295532 1.28298126 46.46612549 1.26576233 C48.05732208 1.2358445 48.05732208 1.2358445 49.68066406 1.20532227 C51.07964935 1.18200584 51.07964935 1.18200584 52.50689697 1.15821838 C54.80353862 1.01246792 56.79701127 0.6435967 59 0 C59 1.98 59 3.96 59 6 C39.2 6 19.4 6 -1 6 C-1 1 -1 1 0 0 Z " fill="#E1E1E1" transform="translate(472,159)"/>
<path d="M0 0 C1.13824219 -0.02900391 2.27648437 -0.05800781 3.44921875 -0.08789062 C10.8238163 -0.14292494 16.85687827 0.70232255 23.375 4.3125 C24.035 4.9725 24.695 5.6325 25.375 6.3125 C22.98935923 5.73665568 20.70817216 5.09022405 18.375 4.3125 C17.715 6.2925 17.055 8.2725 16.375 10.3125 C15.385 9.9825 14.395 9.6525 13.375 9.3125 C13.045 9.9725 12.715 10.6325 12.375 11.3125 C11.95605469 10.85230469 11.53710938 10.39210938 11.10546875 9.91796875 C7.33799877 6.42264107 2.243032 5.1385723 -2.8125 4.9375 C-6.70437704 5.32030758 -8.5215077 6.03052037 -11.625 8.3125 C-12.615 8.8075 -12.615 8.8075 -13.625 9.3125 C-14.75 5.5625 -14.75 5.5625 -13.625 3.3125 C-14.615 2.6525 -15.605 1.9925 -16.625 1.3125 C-11.20762968 -0.28790363 -5.60154488 0.04662773 0 0 Z " fill="#0B0B0B" transform="translate(414.625,55.6875)"/>
<path d="M0 0 C-2.64 0 -5.28 0 -8 0 C-8 0.66 -8 1.32 -8 2 C-8.66 2 -9.32 2 -10 2 C-9.67 2.99 -9.34 3.98 -9 5 C-9.66 5 -10.32 5 -11 5 C-11 4.34 -11 3.68 -11 3 C-14.99795892 2.04380267 -18.70803922 1.8960408 -22.8125 1.9375 C-24.55466797 1.95103516 -24.55466797 1.95103516 -26.33203125 1.96484375 C-27.21246094 1.97644531 -28.09289062 1.98804688 -29 2 C-29 2.66 -29 3.32 -29 4 C-33.30840713 2.92289822 -36.63576723 1.96052484 -40 -1 C-28.27486075 -6.1164244 -11.41592738 -6.10559712 0 0 Z " fill="#161616" transform="translate(828,59)"/>
<path d="M0 0 C2 2 2 2 4 5 C3.67 5.66 3.34 6.32 3 7 C3.64479813 7 4.28959625 7 4.95393372 7 C22.63595581 7 40.31797791 7 58 7 C58 7.66 58 8.32 58 9 C39.85 9 21.7 9 3 9 C3 9.66 3 10.32 3 11 C0.23547967 12.38226016 -2.0461363 12.09525387 -5.125 12.0625 C-6.22070312 12.05347656 -7.31640625 12.04445312 -8.4453125 12.03515625 C-9.70988281 12.01775391 -9.70988281 12.01775391 -11 12 C-10.3046875 8.21875 -10.3046875 8.21875 -7.5625 6.25 C-5 5 -5 5 -3 5 C-3 4.34 -3 3.68 -3 3 C-5.97 2.67 -8.94 2.34 -12 2 C-12 1.67 -12 1.34 -12 1 C-10.56274129 0.83126522 -9.12518162 0.66509263 -7.6875 0.5 C-6.88699219 0.4071875 -6.08648437 0.314375 -5.26171875 0.21875 C-3 0 -3 0 0 0 Z " fill="#C0BFC0" transform="translate(266,153)"/>
<path d="M0 0 C0.33 0 0.66 0 1 0 C1 1.98 1 3.96 1 6 C-23.09 6 -47.18 6 -72 6 C-72 9.63 -72 13.26 -72 17 C-72.33 17 -72.66 17 -73 17 C-73.19397476 15.02145742 -73.38001321 13.0421352 -73.5625 11.0625 C-73.66691406 9.96035156 -73.77132812 8.85820313 -73.87890625 7.72265625 C-73.91886719 6.82417969 -73.95882812 5.92570312 -74 5 C-73 4 -73 4 -70.10838318 3.87974548 C-68.81376663 3.88196609 -67.51915009 3.88418671 -66.18530273 3.88647461 C-65.11706772 3.88625557 -65.11706772 3.88625557 -64.0272522 3.8860321 C-61.66266888 3.8867313 -59.29816339 3.89452394 -56.93359375 3.90234375 C-55.29834537 3.90420791 -53.66309643 3.90563182 -52.02784729 3.90663147 C-47.71565215 3.91045682 -43.40349048 3.92028725 -39.09130859 3.93133545 C-34.69434054 3.9415492 -30.29736711 3.94612901 -25.90039062 3.95117188 C-17.26691169 3.96190951 -8.63346 3.97898613 0 4 C0 2.68 0 1.36 0 0 Z " fill="#6D6D6D" transform="translate(744,101)"/>
<path d="M0 0 C2.14503684 3.48846822 2.23354662 6.24405878 2.1953125 10.296875 C2.18886719 11.50214844 2.18242187 12.70742187 2.17578125 13.94921875 C2.15902344 15.20347656 2.14226562 16.45773438 2.125 17.75 C2.11597656 19.01972656 2.10695312 20.28945312 2.09765625 21.59765625 C2.07409005 24.73196093 2.04118832 27.86588541 2 31 C1.01 31.495 1.01 31.495 0 32 C0.33 23.09 0.66 14.18 1 5 C-3.99549276 5.9415644 -3.99549276 5.9415644 -8.99072266 6.88452148 C-12.98697405 7.63578428 -16.98605773 8.34789266 -21 9 C-21 8.34 -21 7.68 -21 7 C-26.77759884 6.87963336 -32.27959989 7.1679418 -38 8 C-35.13804976 6.09203317 -33.79840252 5.59811162 -30.53515625 5 C-29.21898315 4.7539502 -29.21898315 4.7539502 -27.8762207 4.50292969 C-26.94769287 4.33696289 -26.01916504 4.17099609 -25.0625 4 C-24.11914795 3.82629883 -23.1757959 3.65259766 -22.20385742 3.47363281 C-19.47074752 2.9735049 -16.7359995 2.48404547 -14 2 C-12.9471582 1.8134082 -12.9471582 1.8134082 -11.87304688 1.62304688 C-2.63042665 0 -2.63042665 0 0 0 Z " fill="#323232" transform="translate(216,102)"/>
<path d="M0 0 C0 3 0 3 -1 5 C18.305 5.495 18.305 5.495 38 6 C38 4.02 38 2.04 38 0 C39.66926454 0.97473126 41.33535642 1.95489789 43 2.9375 C43.928125 3.48277344 44.85625 4.02804688 45.8125 4.58984375 C46.534375 5.05519531 47.25625 5.52054688 48 6 C48 6.33 48 6.66 48 7 C30.18 7 12.36 7 -6 7 C-4.11656068 3.23312136 -3.30867531 2.20578354 0 0 Z " fill="#202020" transform="translate(274,154)"/>
<path d="M0 0 C0.66 0 1.32 0 2 0 C1.67 2.97 1.34 5.94 1 9 C0.34 9 -0.32 9 -1 9 C-1.09152344 9.57234375 -1.18304687 10.1446875 -1.27734375 10.734375 C-2.17688458 13.55455705 -3.56952241 15.07584262 -5.5625 17.25 C-6.20316406 17.95640625 -6.84382812 18.6628125 -7.50390625 19.390625 C-8.24447266 20.18726563 -8.24447266 20.18726563 -9 21 C-9.66 20.34 -10.32 19.68 -11 19 C-10.67 18.67 -10.34 18.34 -10 18 C-11.32 17.34 -12.64 16.68 -14 16 C-13.49210938 15.68289062 -12.98421875 15.36578125 -12.4609375 15.0390625 C-7.10639878 11.40920666 -4.24051965 7.68455955 -1.2265625 1.9765625 C-0.82179688 1.32429687 -0.41703125 0.67203125 0 0 Z " fill="#141414" transform="translate(740,129)"/>
<path d="M0 0 C1.13824219 -0.02900391 2.27648437 -0.05800781 3.44921875 -0.08789062 C10.8238163 -0.14292494 16.85687827 0.70232255 23.375 4.3125 C24.035 4.9725 24.695 5.6325 25.375 6.3125 C22.98935923 5.73665568 20.70817216 5.09022405 18.375 4.3125 C18.045 5.3025 17.715 6.2925 17.375 7.3125 C15.375 5.9375 15.375 5.9375 13.375 4.3125 C13.375 3.6525 13.375 2.9925 13.375 2.3125 C5.455 2.3125 -2.465 2.3125 -10.625 2.3125 C-9.305 2.6425 -7.985 2.9725 -6.625 3.3125 C-6.625 3.9725 -6.625 4.6325 -6.625 5.3125 C-8.8977675 6.80774178 -11.1929943 8.09649715 -13.625 9.3125 C-14.75 5.5625 -14.75 5.5625 -13.625 3.3125 C-14.615 2.6525 -15.605 1.9925 -16.625 1.3125 C-11.20762968 -0.28790363 -5.60154488 0.04662773 0 0 Z " fill="#222222" transform="translate(414.625,55.6875)"/>
<path d="M0 0 C7.26 0 14.52 0 22 0 C20 3 20 3 17.8359375 3.51171875 C16.61777344 3.59873047 16.61777344 3.59873047 15.375 3.6875 C14.55773437 3.75324219 13.74046875 3.81898437 12.8984375 3.88671875 C12.27195312 3.92410156 11.64546875 3.96148437 11 4 C13.64 4.33 16.28 4.66 19 5 C19 5.33 19 5.66 19 6 C15.37 6.33 11.74 6.66 8 7 C8.33 6.01 8.66 5.02 9 4 C3.72 4.66 -1.56 5.32 -7 6 C-4.08235 4.0549 -2.37462715 3.54723683 1 3 C0.67 2.01 0.34 1.02 0 0 Z " fill="#353535" transform="translate(514,0)"/>
<path d="M0 0 C7.92 0 15.84 0 24 0 C24 1.32 24 2.64 24 4 C20.98968256 4.93423645 20.13349732 5.04449911 17 4 C14.42734182 3.92970879 11.88358569 3.90629168 9.3125 3.9375 C8.61060547 3.94201172 7.90871094 3.94652344 7.18554688 3.95117188 C5.45699462 3.96293073 3.72848635 3.98086546 2 4 C1.34 2.68 0.68 1.36 0 0 Z " fill="#0C0C0C" transform="translate(186,57)"/>
<path d="M0 0 C13.53 0 27.06 0 41 0 C41 6.27 41 12.54 41 19 C41.66 19 42.32 19 43 19 C43.28875 18.195625 43.5775 17.39125 43.875 16.5625 C45 14 45 14 47 13 C47 14.98 47 16.96 47 19 C46.34 19 45.68 19 45 19 C44.67 19.66 44.34 20.32 44 21 C42.68 21 41.36 21 40 21 C40 14.4 40 7.8 40 1 C26.8 1.33 13.6 1.66 0 2 C0 1.34 0 0.68 0 0 Z " fill="#434343" transform="translate(266,56)"/>
<path d="M0 0 C1.32 0 2.64 0 4 0 C4 0.66 4 1.32 4 2 C5.32 2.66 6.64 3.32 8 4 C7 5 7 5 4.71580505 5.12025452 C3.70542679 5.11803391 2.69504852 5.11581329 1.65405273 5.11352539 C0.5129454 5.11344986 -0.62816193 5.11337433 -1.80384827 5.11329651 C-3.0454924 5.10813522 -4.28713654 5.10297394 -5.56640625 5.09765625 C-7.46204567 5.09553383 -7.46204567 5.09553383 -9.39598083 5.09336853 C-12.76124889 5.08870582 -16.1264499 5.0797148 -19.49169922 5.06866455 C-22.9234967 5.05844846 -26.35530109 5.05387049 -29.78710938 5.04882812 C-36.52475824 5.0377738 -43.26237525 5.0210171 -50 5 C-50 4.01 -50 3.02 -50 2 C-49.01 2.495 -49.01 2.495 -48 3 C-46.39645548 3.09016377 -44.78917778 3.11756075 -43.18310547 3.11352539 C-42.18221893 3.11344986 -41.1813324 3.11337433 -40.15011597 3.11329651 C-39.06674957 3.10813522 -37.98338318 3.10297394 -36.8671875 3.09765625 C-35.76021515 3.0962413 -34.6532428 3.09482635 -33.51272583 3.09336853 C-29.96679007 3.08775772 -26.42091677 3.07520337 -22.875 3.0625 C-20.47526133 3.05748639 -18.07552167 3.05292325 -15.67578125 3.04882812 C-9.78383275 3.03778478 -3.89192084 3.0210361 2 3 C1.34 2.01 0.68 1.02 0 0 Z " fill="#8E8E8E" transform="translate(594,157)"/>
<path d="M0 0 C0.99 0 1.98 0 3 0 C2.67 1.98 2.34 3.96 2 6 C-17.14 6 -36.28 6 -56 6 C-56 5.67 -56 5.34 -56 5 C-38.18 5 -20.36 5 -2 5 C-2 4.34 -2 3.68 -2 3 C-1.01 3 -0.02 3 1 3 C0.505 1.515 0.505 1.515 0 0 Z " fill="#E0E0E0" transform="translate(323,159)"/>
<path d="M0 0 C1.32 0.33 2.64 0.66 4 1 C3.34 2.65 2.68 4.3 2 6 C-17.14 6 -36.28 6 -56 6 C-56 5.67 -56 5.34 -56 5 C-37.85 5 -19.7 5 -1 5 C-1 4.34 -1 3.68 -1 3 C-0.34 2.67 0.32 2.34 1 2 C0.505 1.01 0.505 1.01 0 0 Z " fill="#DFDFDF" transform="translate(600,159)"/>
<path d="M0 0 C0.66 0 1.32 0 2 0 C2 0.66 2 1.32 2 2 C9.47488839 1.88238973 16.94963108 1.75755833 24.42431641 1.62768555 C26.96758281 1.58435101 29.51087802 1.54267487 32.05419922 1.50268555 C35.70809619 1.44494742 39.36184831 1.38126275 43.015625 1.31640625 C44.15429016 1.29969376 45.29295532 1.28298126 46.46612549 1.26576233 C48.05732208 1.2358445 48.05732208 1.2358445 49.68066406 1.20532227 C51.07964935 1.18200584 51.07964935 1.18200584 52.50689697 1.15821838 C54.80353862 1.01246792 56.79701127 0.6435967 59 0 C58.67 0.99 58.34 1.98 58 3 C38.53 3 19.06 3 -1 3 C-0.67 2.01 -0.34 1.02 0 0 Z " fill="#8C8C8C" transform="translate(472,159)"/>
<path d="M0 0 C0.33 0.99 0.66 1.98 1 3 C1.71027344 3.04898437 2.42054688 3.09796875 3.15234375 3.1484375 C4.53099609 3.26058594 4.53099609 3.26058594 5.9375 3.375 C7.31228516 3.47941406 7.31228516 3.47941406 8.71484375 3.5859375 C9.84599609 3.79089844 9.84599609 3.79089844 11 4 C11.33 4.66 11.66 5.32 12 6 C10.4221875 5.938125 10.4221875 5.938125 8.8125 5.875 C5.20737411 5.99320085 3.24947413 6.64605244 0 8 C-0.99 7.67 -1.98 7.34 -3 7 C-3 6.34 -3 5.68 -3 5 C-5.97 5 -8.94 5 -12 5 C-11.67 4.34 -11.34 3.68 -11 3 C-8.4375 2.375 -8.4375 2.375 -6 2 C-6 1.67 -6 1.34 -6 1 C-4.02 0.67 -2.04 0.34 0 0 Z " fill="#383738" transform="translate(536,0)"/>
<path d="M0 0 C0 0.99 0 1.98 0 3 C-0.99 3 -1.98 3 -3 3 C-3.2475 4.19625 -3.495 5.3925 -3.75 6.625 C-4.77382519 10.79449098 -6.43678148 13.5823753 -9 17 C-10.32 15.35 -11.64 13.7 -13 12 C-12.34 12 -11.68 12 -11 12 C-9.68531648 9.47176247 -8.57663535 6.95922857 -7.5 4.3125 C-5.43157303 -0.25527622 -5.02797687 0 0 0 Z " fill="#323232" transform="translate(858,129)"/>
<path d="M0 0 C0 2 0 2 -1.64453125 3.65625 C-2.35996094 4.2646875 -3.07539063 4.873125 -3.8125 5.5 C-4.87404297 6.41265625 -4.87404297 6.41265625 -5.95703125 7.34375 C-8 9 -8 9 -11 11 C-11 10.01 -11 9.02 -11 8 C-11.65226563 8.2165625 -12.30453125 8.433125 -12.9765625 8.65625 C-17.77521132 10.18502308 -21.89921898 11.40269324 -27 11 C-27 10.67 -27 10.34 -27 10 C-26.11699219 9.78085938 -25.23398438 9.56171875 -24.32421875 9.3359375 C-16.89794247 7.3736776 -10.72779247 5.12726059 -4.109375 1.171875 C-2 0 -2 0 0 0 Z " fill="#202020" transform="translate(147,136)"/>
<path d="M0 0 C1.34362885 0.00031689 2.68728332 0.01162897 4.03076172 0.03173828 C4.73820526 0.03456818 5.4456488 0.03739807 6.17453003 0.04031372 C8.43667432 0.05151941 10.69842437 0.07662399 12.96044922 0.10205078 C14.49299559 0.11208011 16.02554816 0.12120604 17.55810547 0.12939453 C21.31737223 0.15145992 25.07634386 0.18599183 28.83544922 0.22705078 C28.83544922 0.88705078 28.83544922 1.54705078 28.83544922 2.22705078 C31.47544922 2.22705078 34.11544922 2.22705078 36.83544922 2.22705078 C37.33044922 3.21705078 37.33044922 3.21705078 37.83544922 4.22705078 C35.71010263 4.08635882 33.58517393 3.93934157 31.46044922 3.78955078 C30.27708984 3.70833984 29.09373047 3.62712891 27.87451172 3.54345703 C24.83544922 3.22705078 24.83544922 3.22705078 22.83544922 2.22705078 C20.73015989 2.14161183 18.62213765 2.11990354 16.51513672 2.12939453 C14.62988281 2.13422852 14.62988281 2.13422852 12.70654297 2.13916016 C11.38783203 2.14753906 10.06912109 2.15591797 8.71044922 2.16455078 C7.3706071 2.16956589 6.03076321 2.17412878 4.69091797 2.17822266 C1.40571716 2.19003993 -1.87939475 2.20651461 -5.16455078 2.22705078 C-3.16455078 0.22705078 -3.16455078 0.22705078 0 0 Z " fill="#626262" transform="translate(187.16455078125,55.77294921875)"/>
<path d="M0 0 C0.98087819 3.44352787 0.77000993 5.49803705 0 9 C-0.08947582 10.83162259 -0.13015112 12.66620048 -0.125 14.5 C-0.12757813 15.4178125 -0.13015625 16.335625 -0.1328125 17.28125 C-0.00220917 19.954777 0.4696334 22.38184108 1 25 C1.04120851 26.457751 1.04210038 27.91727449 1 29.375 C0.9464814 33.3688255 1.33032884 37.06568191 2 41 C1.34 40.67 0.68 40.34 0 40 C-2.24795399 33.17698473 -2.30915808 25.98382956 -2.25 18.875 C-2.26160156 17.46927734 -2.26160156 17.46927734 -2.2734375 16.03515625 C-2.25753076 10.34849558 -1.61705507 5.45435241 0 0 Z " fill="#484848" transform="translate(642,92)"/>
<path d="M0 0 C1.14311646 0.00797607 1.14311646 0.00797607 2.30932617 0.01611328 C9.60766914 0.13851411 16.41889359 0.76364421 22.9375 4.25 C20.2975 4.25 17.6575 4.25 14.9375 4.25 C14.9375 3.59 14.9375 2.93 14.9375 2.25 C6.3575 2.25 -2.2225 2.25 -11.0625 2.25 C-7.31059084 -0.25127277 -4.34275552 -0.0534695 0 0 Z " fill="#656565" transform="translate(805.0625,54.75)"/>
<path d="M0 0 C-0.99 2.97 -1.98 5.94 -3 9 C-3.33 7.68 -3.66 6.36 -4 5 C-4.556875 5.495 -5.11375 5.99 -5.6875 6.5 C-8.38162983 8.24754367 -9.85375007 8.26218749 -13 8 C-13 7.34 -13 6.68 -13 6 C-12.01 5.67 -11.02 5.34 -10 5 C-8.64172029 3.35360035 -7.30745749 1.68704193 -6 0 C-4 -1 -4 -1 0 0 Z " fill="#D9D9D9" transform="translate(365,84)"/>
<path d="M0 0 C-1.16142685 4.35535069 -2.07699505 6.64619703 -6 9 C-6.625 7.1875 -6.625 7.1875 -7 5 C-6.34 4.01 -5.68 3.02 -5 2 C-5.495 2.33 -5.99 2.66 -6.5 3 C-10.09090894 4.43636358 -13.14456127 4.12851462 -17 4 C-17 3.67 -17 3.34 -17 3 C-13.97265625 2.26757812 -13.97265625 2.26757812 -10.9453125 1.53515625 C-7.00412071 0.45093281 -4.25187391 -0.07873841 0 0 Z " fill="#1E1E1E" transform="translate(731,146)"/>
<path d="M0 0 C0.886875 0.12375 1.77375 0.2475 2.6875 0.375 C4.11773178 5.04709049 5.09130045 9.50603697 5.6875 14.375 C3.6875 13.375 3.6875 13.375 2.5625 11.1875 C1.60421764 8.10730669 1.53834184 5.58190052 1.6875 2.375 C1.0275 2.375 0.3675 2.375 -0.3125 2.375 C-0.9725 3.695 -1.6325 5.015 -2.3125 6.375 C-2.6425 5.715 -2.9725 5.055 -3.3125 4.375 C-4.3025 5.365 -5.2925 6.355 -6.3125 7.375 C-6.9725 7.045 -7.6325 6.715 -8.3125 6.375 C-4.12788462 0.46730769 -4.12788462 0.46730769 0 0 Z " fill="#3E3E3E" transform="translate(215.3125,141.625)"/>
<path d="M0 0 C1.98 0.99 1.98 0.99 4 2 C4 2.66 4 3.32 4 4 C4.763125 4.28875 5.52625 4.5775 6.3125 4.875 C9 6 9 6 12 8 C7.545 9.485 7.545 9.485 3 11 C0 3.375 0 3.375 0 0 Z " fill="#1F1F1F" transform="translate(73,47)"/>
<path d="M0 0 C0.66 0 1.32 0 2 0 C1.41892368 3.7602985 0.34800504 6.53035032 -1.5625 9.8125 C-2.01753906 10.60269531 -2.47257812 11.39289063 -2.94140625 12.20703125 C-3.46541016 13.09455078 -3.46541016 13.09455078 -4 14 C-6.475 13.01 -6.475 13.01 -9 12 C-8.21654285 10.82780457 -7.42297164 9.66236332 -6.625 8.5 C-6.18414062 7.8503125 -5.74328125 7.200625 -5.2890625 6.53125 C-4.86367188 6.0259375 -4.43828125 5.520625 -4 5 C-3.34 5 -2.68 5 -2 5 C-1.34 3.35 -0.68 1.7 0 0 Z " fill="#303030" transform="translate(458,132)"/>
<path d="M0 0 C0.33 0 0.66 0 1 0 C1.08133791 1.91595968 1.13934367 3.83291932 1.1875 5.75 C1.22230469 6.81734375 1.25710938 7.8846875 1.29296875 8.984375 C0.9694088 12.31488541 0.34811426 13.65757124 -2 16 C-2.66 16 -3.32 16 -4 16 C-4 16.66 -4 17.32 -4 18 C-4.66 18 -5.32 18 -6 18 C-6.33 19.32 -6.66 20.64 -7 22 C-8.32 21.67 -9.64 21.34 -11 21 C-11 19.68 -11 18.36 -11 17 C-9.35 17 -7.7 17 -6 17 C-6 16.34 -6 15.68 -6 15 C-5.360625 14.896875 -4.72125 14.79375 -4.0625 14.6875 C-3.0415625 14.3471875 -3.0415625 14.3471875 -2 14 C-0.99740493 10.99221479 -0.69685358 8.46179353 -0.4375 5.3125 C-0.35371094 4.31863281 -0.26992188 3.32476563 -0.18359375 2.30078125 C-0.12300781 1.54152344 -0.06242188 0.78226563 0 0 Z " fill="#4D4D4D" transform="translate(541,14)"/>
<path d="M0 0 C7.47337417 -0.57242866 13.33321971 0.48711961 20 4 C20.66 4.66 21.32 5.32 22 6 C19.61435923 5.42415568 17.33317216 4.77772405 15 4 C14.67 4.99 14.34 5.98 14 7 C12 5.625 12 5.625 10 4 C10 3.34 10 2.68 10 2 C6.7 1.67 3.4 1.34 0 1 C0 0.67 0 0.34 0 0 Z " fill="#474747" transform="translate(418,56)"/>
<path d="M0 0 C0.66 0.33 1.32 0.66 2 1 C0.68 1.33 -0.64 1.66 -2 2 C-2 2.66 -2 3.32 -2 4 C-3.609375 5.5859375 -3.609375 5.5859375 -5.75 7.375 C-8.6243732 9.81617866 -11.38543992 12.27649992 -14 15 C-12.52307692 8.35384615 -12.52307692 8.35384615 -9.875 6.5625 C-8.946875 6.2840625 -8.946875 6.2840625 -8 6 C-8 5.34 -8 4.68 -8 4 C-6.71349294 3.30289269 -5.42059335 2.61757124 -4.125 1.9375 C-3.40570313 1.55464844 -2.68640625 1.17179687 -1.9453125 0.77734375 C-1.30335938 0.52082031 -0.66140625 0.26429687 0 0 Z " fill="#BFBFBF" transform="translate(196,111)"/>
<path d="M0 0 C0.66 0.33 1.32 0.66 2 1 C1.01 1.8971875 1.01 1.8971875 0 2.8125 C-2.3373846 4.87501834 -2.3373846 4.87501834 -2 8 C-4.64 8 -7.28 8 -10 8 C-10 6.68 -10 5.36 -10 4 C-9.36191406 3.79503906 -8.72382813 3.59007812 -8.06640625 3.37890625 C-7.24011719 3.10949219 -6.41382813 2.84007812 -5.5625 2.5625 C-4.73878906 2.29566406 -3.91507813 2.02882812 -3.06640625 1.75390625 C-1.03780412 1.17844506 -1.03780412 1.17844506 0 0 Z " fill="#B9B9B9" transform="translate(204,157)"/>
<path d="M0 0 C0.640625 1.76953125 0.640625 1.76953125 1 4 C0.109375 5.88671875 0.109375 5.88671875 -1.25 7.6875 C-1.68828125 8.28949219 -2.1265625 8.89148438 -2.578125 9.51171875 C-4 11 -4 11 -7 12 C-7.33 11.01 -7.66 10.02 -8 9 C-7.34 9 -6.68 9 -6 9 C-6 8.01 -6 7.02 -6 6 C-6.66 5.67 -7.32 5.34 -8 5 C-7.05125 4.54625 -6.1025 4.0925 -5.125 3.625 C-1.99686321 2.19761746 -1.99686321 2.19761746 0 0 Z " fill="#090909" transform="translate(212,145)"/>
<path d="M0 0 C1.32 0 2.64 0 4 0 C3.67 3.3 3.34 6.6 3 10 C2.01 10.33 1.02 10.66 0 11 C0 10.01 0 9.02 0 8 C-0.99 7.67 -1.98 7.34 -3 7 C-1.68 6.34 -0.36 5.68 1 5 C1 4.34 1 3.68 1 3 C0.01 3.33 -0.98 3.66 -2 4 C-2 3.34 -2 2.68 -2 2 C-1.34 2 -0.68 2 0 2 C0 1.34 0 0.68 0 0 Z " fill="#DBDBDB" transform="translate(146,133)"/>
<path d="M0 0 C1.8871875 0.0309375 1.8871875 0.0309375 3.8125 0.0625 C3.8125 0.3925 3.8125 0.7225 3.8125 1.0625 C3.11382812 1.16046875 2.41515625 1.2584375 1.6953125 1.359375 C0.78523438 1.50890625 -0.12484375 1.6584375 -1.0625 1.8125 C-1.96742188 1.95171875 -2.87234375 2.0909375 -3.8046875 2.234375 C-6.32127328 2.83889802 -6.32127328 2.83889802 -7.46875 5 C-8.16821366 7.00715658 -8.74217749 8.98432829 -9.1875 11.0625 C-9.8475 11.0625 -10.5075 11.0625 -11.1875 11.0625 C-11.5175 10.7325 -11.8475 10.4025 -12.1875 10.0625 C-12.8475 10.0625 -13.5075 10.0625 -14.1875 10.0625 C-12.6286666 6.23627257 -10.23316418 3.81102621 -7.1875 1.0625 C-4.43671116 0.14557039 -2.82801087 -0.04636083 0 0 Z " fill="#B7B7B7" transform="translate(412.1875,59.9375)"/>
<path d="M0 0 C4 2 8 4 12 6 C12 6.66 12 7.32 12 8 C14.31 8 16.62 8 19 8 C19 9.32 19 10.64 19 12 C17.68 12 16.36 12 15 12 C15 11.01 15 10.02 15 9 C14.34 8.938125 13.68 8.87625 13 8.8125 C7.6307065 7.35831634 3.09276463 4.63914694 0 0 Z " fill="#696969" transform="translate(773,153)"/>
<path d="M0 0 C0.33 0.99 0.66 1.98 1 3 C-1.92212039 6.35502712 -3.62581702 7.40954555 -8 8 C-10.56062375 8.11626908 -13.12426865 8.17494745 -15.6875 8.1875 C-16.70166992 8.20586914 -16.70166992 8.20586914 -17.73632812 8.22460938 C-19.49247427 8.2298516 -21.24811122 8.12232123 -23 8 C-23.66 7.34 -24.32 6.68 -25 6 C-23.53240234 6.05220703 -23.53240234 6.05220703 -22.03515625 6.10546875 C-14.47147656 6.26165093 -7.98696838 6.25255425 -1 3 C-0.67 2.01 -0.34 1.02 0 0 Z " fill="#5E5E5E" transform="translate(110,49)"/>
<path d="M0 0 C5.28 0 10.56 0 16 0 C16 0.99 16 1.98 16 3 C14.68 3.33 13.36 3.66 12 4 C12 3.34 12 2.68 12 2 C8.37 2 4.74 2 1 2 C0.67 1.34 0.34 0.68 0 0 Z " fill="#010101" transform="translate(688,57)"/>
<path d="M0 0 C3.11055322 2.07370215 3.78693454 2.6227802 5 6 C5.30078125 9.34765625 5.30078125 9.34765625 5.3125 13.0625 C5.32925781 14.29097656 5.34601563 15.51945312 5.36328125 16.78515625 C5 20 5 20 3.48046875 21.93359375 C2.74763672 22.46146484 2.74763672 22.46146484 2 23 C2.10699219 22.17757812 2.21398437 21.35515625 2.32421875 20.5078125 C3.1392026 12.91882311 2.83963431 7.10710734 0 0 Z " fill="#727272" transform="translate(356,62)"/>
<path d="M0 0 C8.13952903 -0.61046468 13.5737569 -0.2922002 20 5 C17.29120665 6.35439668 14.99066732 6.06501451 12 6 C12 5.01 12 4.02 12 3 C9.56612247 1.78306124 7.58161154 1.68040104 4.875 1.4375 C3.96492187 1.35371094 3.05484375 1.26992188 2.1171875 1.18359375 C1.41851563 1.12300781 0.71984375 1.06242187 0 1 C0 0.67 0 0.34 0 0 Z " fill="#4D4D4D" transform="translate(612,54)"/>
<path d="M0 0 C9.41002278 -0.18451025 9.41002278 -0.18451025 14 1 C13.01 2.32 12.02 3.64 11 5 C10.01 4.67 9.02 4.34 8 4 C8 3.34 8 2.68 8 2 C5.03 2 2.06 2 -1 2 C-0.67 1.34 -0.34 0.68 0 0 Z " fill="#0E0E0E" transform="translate(525,3)"/>
<path d="M0 0 C0.66 0.33 1.32 0.66 2 1 C0.4027394 2.81901911 -1.2021871 4.63009734 -2.8125 6.4375 C-3.26431641 6.95376953 -3.71613281 7.47003906 -4.18164062 8.00195312 C-6.43034335 10.51327806 -7.74549181 11.91516394 -11 13 C-9.46356148 9.31930113 -7.21849055 7.01224796 -4.375 4.25 C-3.55773437 3.45078125 -2.74046875 2.6515625 -1.8984375 1.828125 C-0.95871094 0.92320313 -0.95871094 0.92320313 0 0 Z " fill="#404040" transform="translate(380,65)"/>
<path d="M0 0 C2.97 0 5.94 0 9 0 C8 3 8 3 5.625 4.3125 C4.75875 4.539375 3.8925 4.76625 3 5 C2.01 4.34 1.02 3.68 0 3 C0 2.01 0 1.02 0 0 Z " fill="#262626" transform="translate(255,155)"/>
<path d="M0 0 C0.66 0 1.32 0 2 0 C1.67 2.97 1.34 5.94 1 9 C0.34 9 -0.32 9 -1 9 C-1.33 10.32 -1.66 11.64 -2 13 C-3.35055201 10.29889598 -3 7.99210994 -3 5 C-1.625 2.3125 -1.625 2.3125 0 0 Z " fill="#7A7A7A" transform="translate(740,129)"/>
<path d="M0 0 C0.33 0 0.66 0 1 0 C1 3.3 1 6.6 1 10 C1.66 10 2.32 10 3 10 C3.28875 9.195625 3.5775 8.39125 3.875 7.5625 C5 5 5 5 7 4 C7 5.98 7 7.96 7 10 C6.34 10 5.68 10 5 10 C4.67 10.66 4.34 11.32 4 12 C2.68 12 1.36 12 0 12 C0 8.04 0 4.08 0 0 Z " fill="#3C3C3C" transform="translate(306,65)"/>
<path d="M0 0 C0.99 0 1.98 0 3 0 C5.1519437 3.22791555 5.20086443 4.28400809 5 8 C0.32307692 6.52307692 0.32307692 6.52307692 -1.3125 3.875 C-1.539375 3.25625 -1.76625 2.6375 -2 2 C-1.34 2 -0.68 2 0 2 C0 1.34 0 0.68 0 0 Z " fill="#E0DFE0" transform="translate(77,45)"/>
<path d="M0 0 C0.99 0.33 1.98 0.66 3 1 C1.25740319 10.59453303 1.25740319 10.59453303 -2 14 C-2 12.35 -2 10.7 -2 9 C-1.34 9 -0.68 9 0 9 C-0.66 6.69 -1.32 4.38 -2 2 C-1.34 2 -0.68 2 0 2 C0 1.34 0 0.68 0 0 Z " fill="#1F1F1F" transform="translate(46,25)"/>
<path d="M0 0 C0.556875 0.226875 1.11375 0.45375 1.6875 0.6875 C1.3575 2.3375 1.0275 3.9875 0.6875 5.6875 C-1.9525 5.3575 -4.5925 5.0275 -7.3125 4.6875 C-7.3125 4.0275 -7.3125 3.3675 -7.3125 2.6875 C-3.15982824 -0.42700382 -3.15982824 -0.42700382 0 0 Z " fill="#2B2B2B" transform="translate(846.3125,142.3125)"/>
<path d="M0 0 C0.99 0.33 1.98 0.66 3 1 C3 7.6 3 14.2 3 21 C2.67 21 2.34 21 2 21 C1.93941406 19.98679687 1.87882813 18.97359375 1.81640625 17.9296875 C1.73193296 16.57811486 1.64728843 15.22655291 1.5625 13.875 C1.50352539 12.87726563 1.50352539 12.87726563 1.44335938 11.859375 C1.187848 7.84981183 0.73217587 3.95005804 0 0 Z " fill="#515051" transform="translate(827,80)"/>
<path d="M0 0 C0 0.66 0 1.32 0 2 C-0.66 2.66 -1.32 3.32 -2 4 C-2 4.66 -2 5.32 -2 6 C-4.64 6.33 -7.28 6.66 -10 7 C-10 6.34 -10 5.68 -10 5 C-8.3203125 3.7109375 -8.3203125 3.7109375 -6.125 2.375 C-5.40570312 1.92898437 -4.68640625 1.48296875 -3.9453125 1.0234375 C-2 0 -2 0 0 0 Z " fill="#343434" transform="translate(782,62)"/>
<path d="M0 0 C1.10176129 3.35216734 0.89303058 5.75121078 0.1875 9.1875 C0.01605469 10.06792969 -0.15539062 10.94835938 -0.33203125 11.85546875 C-0.66267578 12.91701172 -0.66267578 12.91701172 -1 14 C-1.99 14.495 -1.99 14.495 -3 15 C-3.66 14.67 -4.32 14.34 -5 14 C-5 12.68 -5 11.36 -5 10 C-4.01 10 -3.02 10 -2 10 C-1.855625 8.906875 -1.71125 7.81375 -1.5625 6.6875 C-1 3 -1 3 0 0 Z " fill="#707070" transform="translate(5,51)"/>
<path d="M0 0 C6.6 0 13.2 0 20 0 C20 0.66 20 1.32 20 2 C18.02 2.99 16.04 3.98 14 5 C14 4.34 14 3.68 14 3 C14.66 3 15.32 3 16 3 C16 2.34 16 1.68 16 1 C10.72 1 5.44 1 0 1 C0 0.67 0 0.34 0 0 Z " fill="#3A3A3A" transform="translate(514,56)"/>
<path d="M0 0 C1.50416548 3.00833096 0.60839737 5.34961578 0.0625 8.625 C-0.13214844 9.81351563 -0.32679688 11.00203125 -0.52734375 12.2265625 C-0.68332031 13.14179687 -0.83929688 14.05703125 -1 15 C-1.66 15 -2.32 15 -3 15 C-3.08142927 13.2507786 -3.13938541 11.50045458 -3.1875 9.75 C-3.22230469 8.77546875 -3.25710938 7.8009375 -3.29296875 6.796875 C-2.96075202 3.62531258 -2.11327721 2.32959693 0 0 Z " fill="#929292" transform="translate(395,75)"/>
<path d="M0 0 C0.66 1.32 1.32 2.64 2 4 C0.90716423 5.03295436 -0.19970579 6.05107835 -1.3125 7.0625 C-1.92738281 7.63097656 -2.54226563 8.19945312 -3.17578125 8.78515625 C-3.77777344 9.18605469 -4.37976563 9.58695313 -5 10 C-5.99 9.67 -6.98 9.34 -8 9 C-5.36 6.03 -2.72 3.06 0 0 Z " fill="#CACACA" transform="translate(850,143)"/>
<path d="M0 0 C1.26886324 2.53772648 0.82173578 3.35668366 0.125 6.0625 C-0.99010856 10.70376266 -1.54763515 15.25016908 -2 20 C-2.33 20 -2.66 20 -3 20 C-3.08165496 17.79229195 -3.13948488 15.58369575 -3.1875 13.375 C-3.23970703 11.53035156 -3.23970703 11.53035156 -3.29296875 9.6484375 C-2.9787947 5.73592336 -1.96906533 3.35929782 0 0 Z " fill="#707070" transform="translate(153,127)"/>
<path d="M0 0 C1 2 1 2 0.44140625 3.9453125 C0.15136719 4.66460937 -0.13867188 5.38390625 -0.4375 6.125 C-0.72496094 6.84945312 -1.01242187 7.57390625 -1.30859375 8.3203125 C-1.53675781 8.87460938 -1.76492188 9.42890625 -2 10 C-2.33 8.68 -2.66 7.36 -3 6 C-4.32 6.99 -5.64 7.98 -7 9 C-7.66 8.67 -8.32 8.34 -9 8 C-7.88625 7.13375 -7.88625 7.13375 -6.75 6.25 C-4.33912357 4.27746474 -2.15957299 2.23955718 0 0 Z " fill="#404040" transform="translate(738,135)"/>
<path d="M0 0 C1.6168484 3.23369679 0.00851816 6.30628257 -0.9375 9.625 C-1.13279297 10.33140625 -1.32808594 11.0378125 -1.52929688 11.765625 C-2.01314492 13.51219844 -2.50575123 15.25634124 -3 17 C-3.33 17 -3.66 17 -4 17 C-4.22755952 10.40077399 -3.76610404 5.64915606 0 0 Z " fill="#848484" transform="translate(791,71)"/>
<path d="M0 0 C0.66 0.33 1.32 0.66 2 1 C0.71480435 3.86697492 -0.57129254 5.97607712 -3 8 C-3.66 8 -4.32 8 -5 8 C-5.33 8.99 -5.66 9.98 -6 11 C-5.55530671 5.96014269 -3.28656638 3.62365012 0 0 Z " fill="#4B4B4B" transform="translate(165,65)"/>
<path d="M0 0 C0.66 0.33 1.32 0.66 2 1 C1.21625 1.598125 0.4325 2.19625 -0.375 2.8125 C-3.14574323 4.91085249 -3.14574323 4.91085249 -5 8 C-7 7 -7 7 -9 5 C-3.375 1.125 -3.375 1.125 0 0 Z " fill="#313131" transform="translate(669,61)"/>
<path d="M0 0 C0.66 0 1.32 0 2 0 C2 0.66 2 1.32 2 2 C2.639375 2.28875 3.27875 2.5775 3.9375 2.875 C6 4 6 4 7 6 C6.34 6.66 5.68 7.32 5 8 C4.5875 7.54625 4.175 7.0925 3.75 6.625 C1.93591905 4.94049626 0.24714373 4.00734029 -2 3 C-1.34 2.67 -0.68 2.34 0 2 C0 1.34 0 0.68 0 0 Z " fill="#1E1E1E" transform="translate(422,59)"/>
<path d="M0 0 C1.65 0 3.3 0 5 0 C5 1.32 5 2.64 5 4 C-2.5 6.125 -2.5 6.125 -7 5 C-4.36 4.34 -1.72 3.68 1 3 C0.67 2.01 0.34 1.02 0 0 Z " fill="#707070" transform="translate(514,0)"/>
<path d="M0 0 C5.28 0 10.56 0 16 0 C15.01 1.485 15.01 1.485 14 3 C12.0546875 3.29296875 12.0546875 3.29296875 9.875 3.1875 C8.59625 3.125625 7.3175 3.06375 6 3 C6 2.67 6 2.34 6 2 C3.03 1.505 3.03 1.505 0 1 C0 0.67 0 0.34 0 0 Z " fill="#232323" transform="translate(520,0)"/>
<path d="M0 0 C0 0.66 0 1.32 0 2 C-4.24633878 5.41778487 -7.59305933 6.56744475 -13 7 C-10.84545751 4.64283596 -8.80280126 3.21033856 -5.9375 1.8125 C-5.24527344 1.46832031 -4.55304688 1.12414062 -3.83984375 0.76953125 C-2 0 -2 0 0 0 Z " fill="#4B4B4B" transform="translate(147,136)"/>
<path d="M0 0 C0.66 0 1.32 0 2 0 C2 0.66 2 1.32 2 2 C2.556875 2.226875 3.11375 2.45375 3.6875 2.6875 C6.63246684 4.35896766 8.68156544 6.55276352 11 9 C10.67 9.66 10.34 10.32 10 11 C8.02 9.35 6.04 7.7 4 6 C3.67 6.66 3.34 7.32 3 8 C3 6.35 3 4.7 3 3 C2.34 3 1.68 3 1 3 C0.67 2.01 0.34 1.02 0 0 Z " fill="#3F3F3F" transform="translate(232,63)"/>
<path d="M0 0 C0 3 0 3 -1 5 C0.65 5.33 2.3 5.66 4 6 C4 6.33 4 6.66 4 7 C0.7 7 -2.6 7 -6 7 C-4.11656068 3.23312136 -3.30867531 2.20578354 0 0 Z " fill="#3C3C3C" transform="translate(274,154)"/>
<path d="M0 0 C2.31 0 4.62 0 7 0 C7.33 1.32 7.66 2.64 8 4 C5.36 3.67 2.72 3.34 0 3 C0 2.01 0 1.02 0 0 Z " fill="#B4B4B4" transform="translate(537,0)"/>
<path d="M0 0 C-0.33 1.32 -0.66 2.64 -1 4 C-2.98 4 -4.96 4 -7 4 C-7 3.01 -7 2.02 -7 1 C-3.375 -1.125 -3.375 -1.125 0 0 Z " fill="#EDEDED" transform="translate(720,161)"/>
<path d="M0 0 C1.32 0.33 2.64 0.66 4 1 C6.42857143 8.42857143 6.42857143 8.42857143 5 12 C5 11.01 5 10.02 5 9 C4.34 9 3.68 9 3 9 C3 7.02 3 5.04 3 3 C2.01 3.33 1.02 3.66 0 4 C0 2.68 0 1.36 0 0 Z " fill="#6F6F6F" transform="translate(0,101)"/>
<path d="M0 0 C0.66 0 1.32 0 2 0 C2 1.32 2 2.64 2 4 C0.35 4.66 -1.3 5.32 -3 6 C-3 6.66 -3 7.32 -3 8 C-3.66 8 -4.32 8 -5 8 C-5 7.34 -5 6.68 -5 6 C-6.32 5.67 -7.64 5.34 -9 5 C-6.03 4.34 -3.06 3.68 0 3 C0 2.01 0 1.02 0 0 Z " fill="#444444" transform="translate(63,0)"/>
<path d="M0 0 C2.31 0.33 4.62 0.66 7 1 C6.01 1.495 6.01 1.495 5 2 C5 2.99 5 3.98 5 5 C3.35 5 1.7 5 0 5 C0 3.35 0 1.7 0 0 Z " fill="#3E3E3E" transform="translate(427,160)"/>
<path d="M0 0 C2.03833424 1.2739589 4.03852126 2.61061923 6 4 C6 4.66 6 5.32 6 6 C4.02 6 2.04 6 0 6 C0 4.02 0 2.04 0 0 Z " fill="#151515" transform="translate(312,154)"/>
<path d="M0 0 C1.98 0.99 1.98 0.99 4 2 C4 2.66 4 3.32 4 4 C4.66 4.33 5.32 4.66 6 5 C5.01 5.33 4.02 5.66 3 6 C2.67 6.66 2.34 7.32 2 8 C0.74335022 5.09399739 0 3.20395416 0 0 Z " fill="#373737" transform="translate(73,47)"/>
<path d="M0 0 C0 3.38023517 -0.87455622 5.83468937 -2 9 C-2.66 9 -3.32 9 -4 9 C-4 10.32 -4 11.64 -4 13 C-4.66 13 -5.32 13 -6 13 C-4.75696561 7.82069003 -3.14512215 4.29833361 0 0 Z " fill="#5B5B5B" transform="translate(490,17)"/>
<path d="M0 0 C2.64 0.33 5.28 0.66 8 1 C8 2.32 8 3.64 8 5 C6.68 5 5.36 5 4 5 C4 4.01 4 3.02 4 2 C2.68 1.34 1.36 0.68 0 0 Z " fill="#616161" transform="translate(670,160)"/>
<path d="M0 0 C0.33 1.32 0.66 2.64 1 4 C-5.75 3.25 -5.75 3.25 -8 1 C-2.25 0 -2.25 0 0 0 Z " fill="#2B2B2B" transform="translate(216,102)"/>
<path d="M0 0 C5.75 3.625 5.75 3.625 8 7 C5.69 6.67 3.38 6.34 1 6 C0.67 4.02 0.34 2.04 0 0 Z " fill="#333333" transform="translate(445,65)"/>
<path d="M0 0 C0.66 0.33 1.32 0.66 2 1 C1.34 2.65 0.68 4.3 0 6 C-4 6 -4 6 -6 5 C-4.02 3.35 -2.04 1.7 0 0 Z " fill="#393939" transform="translate(34,15)"/>
<path d="M0 0 C1.32 0 2.64 0 4 0 C3.6875 1.875 3.6875 1.875 3 4 C2.01 4.66 1.02 5.32 0 6 C-0.38218767 4.34385343 -0.71395102 2.67542976 -1 1 C-0.67 0.67 -0.34 0.34 0 0 Z " fill="#0E0E0E" transform="translate(132,144)"/>
<path d="M0 0 C0.99 0 1.98 0 3 0 C2.67 1.98 2.34 3.96 2 6 C-0.475 5.01 -0.475 5.01 -3 4 C-1.6875 2 -1.6875 2 0 0 Z " fill="#202020" transform="translate(452,140)"/>
<path d="M0 0 C0.66 0 1.32 0 2 0 C2.33 0.99 2.66 1.98 3 3 C1.6875 4.5 1.6875 4.5 0 6 C-0.99 6 -1.98 6 -3 6 C-2.42655063 3.13275314 -2.1385485 2.1385485 0 0 Z " fill="#EFEFEF" transform="translate(848,132)"/>
<path d="M0 0 C0.33 0.66 0.66 1.32 1 2 C1.99 2.33 2.98 2.66 4 3 C3.21625 3.4125 2.4325 3.825 1.625 4.25 C-1.05891656 6.0392777 -1.88098949 7.04988139 -3 10 C-3.66 10 -4.32 10 -5 10 C-3.66511872 6.40608886 -2.03977277 3.24509304 0 0 Z " fill="#3E3E3E" transform="translate(764,76)"/>
<path d="M0 0 C0.66 0.33 1.32 0.66 2 1 C0.12050295 4.57104439 -1.17053157 6.54744301 -5 8 C-3.62845496 5.04590299 -2.01136276 2.55991624 0 0 Z " fill="#B8B8B8" transform="translate(797,63)"/>
<path d="M0 0 C2 1 2 1 2.8125 2.875 C3 5 3 5 1.5625 6.75 C1.046875 7.1625 0.53125 7.575 0 8 C-0.66 7.01 -1.32 6.02 -2 5 C-1.34 5 -0.68 5 0 5 C0 4.01 0 3.02 0 2 C-0.66 1.67 -1.32 1.34 -2 1 C-1.34 0.67 -0.68 0.34 0 0 Z " fill="#1F1F1F" transform="translate(206,149)"/>
<path d="M0 0 C0.86625 0.556875 0.86625 0.556875 1.75 1.125 C0.76 2.115 -0.23 3.105 -1.25 4.125 C-4.25 3.125 -4.25 3.125 -6.25 1.125 C-2.80384615 -1.09038462 -2.80384615 -1.09038462 0 0 Z " fill="#212121" transform="translate(446.25,146.875)"/>
<path d="M0 0 C-0.33 0.99 -0.66 1.98 -1 3 C-4.63 3.33 -8.26 3.66 -12 4 C-12 3.67 -12 3.34 -12 3 C-10.56445975 2.49440092 -9.1264798 1.9957251 -7.6875 1.5 C-6.88699219 1.2215625 -6.08648437 0.943125 -5.26171875 0.65625 C-3 0 -3 0 0 0 Z " fill="#616161" transform="translate(132,143)"/>
<path d="M0 0 C0.99 0 1.98 0 3 0 C2.4140625 6.15234375 2.4140625 6.15234375 2 8 C1.01 8.495 1.01 8.495 0 9 C0.33 7.35 0.66 5.7 1 4 C0.34 4 -0.32 4 -1 4 C-0.67 2.68 -0.34 1.36 0 0 Z " fill="#A1A1A1" transform="translate(459,128)"/>
<path d="M0 0 C1 2 1 2 1 5 C1.33 5.66 1.66 6.32 2 7 C-0.64 7 -3.28 7 -6 7 C-4.02 4.69 -2.04 2.38 0 0 Z " fill="#BEBEBE" transform="translate(140,73)"/>
<path d="M0 0 C0.66 1.32 1.32 2.64 2 4 C0.625 5.5 0.625 5.5 -1 7 C-1.66 7 -2.32 7 -3 7 C-3.33 7.99 -3.66 8.98 -4 10 C-4.33 9.34 -4.66 8.68 -5 8 C-4.00390625 6.0546875 -4.00390625 6.0546875 -2.5625 3.875 C-2.08941406 3.15054687 -1.61632813 2.42609375 -1.12890625 1.6796875 C-0.75636719 1.12539063 -0.38382813 0.57109375 0 0 Z " fill="#B1B1B1" transform="translate(52,23)"/>
<path d="M0 0 C2.49361571 1.20381448 4.68143083 2.45428722 7 4 C6.67 4.66 6.34 5.32 6 6 C3.13275314 5.42655063 2.1385485 5.1385485 0 3 C0 2.01 0 1.02 0 0 Z " fill="#E5E5E5" transform="translate(104,11)"/>
<path d="M0 0 C1.32 0.33 2.64 0.66 4 1 C3.01 1.495 3.01 1.495 2 2 C2.66 2.66 3.32 3.32 4 4 C1.09399739 5.25664978 -0.79604584 6 -4 6 C-2.68 4.02 -1.36 2.04 0 0 Z " fill="#CDCDCD" transform="translate(520,7)"/>
<path d="M0 0 C0 0.99 0 1.98 0 3 C-0.99 3 -1.98 3 -3 3 C-3.33 3.66 -3.66 4.32 -4 5 C-4.66 4.67 -5.32 4.34 -6 4 C-6 3.01 -6 2.02 -6 1 C-4 0 -4 0 0 0 Z " fill="#828282" transform="translate(858,129)"/>
<path d="M0 0 C-0.66 0 -1.32 0 -2 0 C-2.33 0.99 -2.66 1.98 -3 3 C-3.66 3 -4.32 3 -5 3 C-5 2.34 -5 1.68 -5 1 C-6.98 1.33 -8.96 1.66 -11 2 C-7.75267347 -1.24732653 -4.25451414 -1.41817138 0 0 Z " fill="#D7D7D7" transform="translate(210,109)"/>
<path d="M0 0 C0.66 0.33 1.32 0.66 2 1 C0.68 1.33 -0.64 1.66 -2 2 C-2.33 3.32 -2.66 4.64 -3 6 C-4.32 5.34 -5.64 4.68 -7 4 C-1.7265625 0.77734375 -1.7265625 0.77734375 0 0 Z " fill="#424242" transform="translate(174,60)"/>
<path d="M0 0 C0.33 0.66 0.66 1.32 1 2 C-0.25 4.5625 -0.25 4.5625 -2 7 C-2.99 7.33 -3.98 7.66 -5 8 C-3.8141763 4.62496331 -2.72426311 2.35277269 0 0 Z " fill="#4E4E4E" transform="translate(19,29)"/>
<path d="M0 0 C4.77576339 0.4682121 8.04476345 1.24331998 12 4 C9.3333581 5.33332095 7.83319697 4.67102033 5 4 C5 3.34 5 2.68 5 2 C3.35 1.67 1.7 1.34 0 1 C0 0.67 0 0.34 0 0 Z " fill="#666666" transform="translate(108,4)"/>
<path d="M0 0 C0.66 0.99 1.32 1.98 2 3 C0.68 4.32 -0.64 5.64 -2 7 C-2.99 6.67 -3.98 6.34 -5 6 C-3.35 4.02 -1.7 2.04 0 0 Z " fill="#BEBEBE" transform="translate(734,145)"/>
<path d="M0 0 C2.50037734 2.17424117 3.43628586 3.73045798 4 7 C2.35 6.67 0.7 6.34 -1 6 C-0.67 4.02 -0.34 2.04 0 0 Z " fill="#C1C1C1" transform="translate(365,137)"/>
<path d="M0 0 C0.33 0 0.66 0 1 0 C1.125 2.875 1.125 2.875 1 6 C0.34 6.66 -0.32 7.32 -1 8 C-1 7.01 -1 6.02 -1 5 C-1.66 5 -2.32 5 -3 5 C-1.125 1.125 -1.125 1.125 0 0 Z " fill="#4F4F4F" transform="translate(853,132)"/>
<path d="M0 0 C0.66 1.32 1.32 2.64 2 4 C-0.33214148 5.20628008 -2.49642139 6.1654738 -5 7 C-3.70700306 4.11562221 -2.34058637 2.12780579 0 0 Z " fill="#2E2E2E" transform="translate(594,64)"/>
<path d="M0 0 C0.33 1.32 0.66 2.64 1 4 C-0.32 4.99 -1.64 5.98 -3 7 C-3.66 6.67 -4.32 6.34 -5 6 C-3.35 4.02 -1.7 2.04 0 0 Z " fill="#B1B1B1" transform="translate(213,148)"/>
<path d="M0 0 C1.32 0.33 2.64 0.66 4 1 C4 2.32 4 3.64 4 5 C2.68 5 1.36 5 0 5 C0 3.35 0 1.7 0 0 Z " fill="#686868" transform="translate(854,83)"/>
<path d="M0 0 C5.75 0.875 5.75 0.875 8 2 C5.6875 3.5625 5.6875 3.5625 3 5 C2.01 4.67 1.02 4.34 0 4 C0 2.68 0 1.36 0 0 Z " fill="#BBBBBB" transform="translate(499,4)"/>
<path d="M0 0 C1.32 0 2.64 0 4 0 C4 0.99 4 1.98 4 3 C4.66 3.33 5.32 3.66 6 4 C4.35 4 2.7 4 1 4 C0.67 2.68 0.34 1.36 0 0 Z " fill="#7F7F7F" transform="translate(102,0)"/>
</svg>
