<?xml version="1.0" encoding="UTF-8"?>
<svg version="1.1" xmlns="http://www.w3.org/2000/svg" width="148" height="116">
<path d="M0 0 C48.84 0 97.68 0 148 0 C148 38.28 148 76.56 148 116 C99.16 116 50.32 116 0 116 C0 77.72 0 39.44 0 0 Z " fill="#FEFEFE" transform="translate(0,0)"/>
<path d="M0 0 C1.640625 1.1328125 1.640625 1.1328125 4.015625 4.1953125 C4.68126541 8.017802 4.77116741 11.68422768 3.015625 15.1953125 C0.045625 15.1953125 -2.924375 15.1953125 -5.984375 15.1953125 C-6.314375 12.8853125 -6.644375 10.5753125 -6.984375 8.1953125 C-7.644375 8.1953125 -8.304375 8.1953125 -8.984375 8.1953125 C-9.314375 11.4953125 -9.644375 14.7953125 -9.984375 18.1953125 C-5.694375 18.1953125 -1.404375 18.1953125 3.015625 18.1953125 C3.015625 20.8353125 3.015625 23.4753125 3.015625 26.1953125 C-0.944375 26.1953125 -4.904375 26.1953125 -8.984375 26.1953125 C-8.984375 27.1853125 -8.984375 28.1753125 -8.984375 29.1953125 C-12.614375 29.1953125 -16.244375 29.1953125 -19.984375 29.1953125 C-20.09263449 25.65282133 -20.17181905 22.11366001 -20.234375 18.5703125 C-20.26789062 17.57128906 -20.30140625 16.57226562 -20.3359375 15.54296875 C-20.41460765 9.60337248 -20.216643 5.76793772 -15.984375 1.1953125 C-11.44846997 -1.94703135 -5.04937582 -2.04758153 0 0 Z " fill="#0A0A0A" transform="translate(60.984375,43.8046875)"/>
<path d="M0 0 C3.3 0 6.6 0 10 0 C10.33 1.98 10.66 3.96 11 6 C11.66 6 12.32 6 13 6 C13.33 4.02 13.66 2.04 14 0 C17.3 0 20.6 0 24 0 C23.71125 1.381875 23.4225 2.76375 23.125 4.1875 C22.04849499 9.43546194 21.36702077 14.6986803 20.7578125 20.01953125 C19.68094087 24.25485626 17.68899118 26.86146951 14.0703125 29.30078125 C11.57169341 30.14465449 9.50879533 30.23074142 6.875 30.1875 C6.00617188 30.18105469 5.13734375 30.17460938 4.2421875 30.16796875 C2 30 2 30 0 29 C0 25.37 0 21.74 0 18 C3.3 18.33 6.6 18.66 10 19 C10.33 18.34 10.66 17.68 11 17 C8.69 16.67 6.38 16.34 4 16 C3.32815382 13.89748139 2.66269032 11.79292237 2 9.6875 C1.443125 7.92986328 1.443125 7.92986328 0.875 6.13671875 C0 3 0 3 0 0 Z " fill="#080808" transform="translate(66,44)"/>
<path d="M0 0 C3.63 0 7.26 0 11 0 C11 5.28 11 10.56 11 16 C9.68 16 8.36 16 7 16 C7.845625 16.86625 8.69125 17.7325 9.5625 18.625 C11.71753785 21.20127754 12 21.71216458 12 25.25 C11 28 11 28 8 30 C4.64508176 30.51614127 3.42000842 30.29842704 0.625 28.3125 C-1 26 -1 26 -1 23.5625 C0.18759278 20.5192935 1.84359039 18.43465602 4 16 C2.68 16 1.36 16 0 16 C0 10.72 0 5.44 0 0 Z " fill="#010101" transform="translate(92,44)"/>
<path d="M0 0 C3 0 3 0 5.75 2.625 C7.77527084 5.19929005 8 5.80128204 8 9.25 C7 12 7 12 4 14 C0.64508176 14.51614127 -0.57999158 14.29842704 -3.375 12.3125 C-5 10 -5 10 -5 7.5625 C-3.78782934 4.45631268 -2.32091386 2.38917603 0 0 Z " fill="#0F0F0F" transform="translate(96,60)"/>
<path d="M0 0 C0.99 0.33 1.98 0.66 3 1 C3 3.31 3 5.62 3 8 C5.97 8 8.94 8 12 8 C11.67 8.99 11.34 9.98 11 11 C7.04 11 3.08 11 -1 11 C-1.09765625 3.28515625 -1.09765625 3.28515625 -1 1 C-0.67 0.67 -0.34 0.34 0 0 Z " fill="#BEBEBE" transform="translate(52,51)"/>
</svg>
