<?xml version="1.0" encoding="UTF-8"?>
<svg version="1.1" xmlns="http://www.w3.org/2000/svg" width="474" height="163">
<path d="M0 0 C156.42 0 312.84 0 474 0 C474 53.79 474 107.58 474 163 C317.58 163 161.16 163 0 163 C0 109.21 0 55.42 0 0 Z " fill="#FDFDFD" transform="translate(0,0)"/>
<path d="M0 0 C44.22 0 88.44 0 134 0 C134 0.66 134 1.32 134 2 C134.99 2.12375 134.99 2.12375 136 2.25 C145.56995411 4.64248853 152.38799138 10.24767876 157.75 18.375 C158.85716266 20.23602847 159.94302813 22.11001413 161 24 C161.36480469 24.62390625 161.72960937 25.2478125 162.10546875 25.890625 C165.84619082 33.6881865 165.08719676 44.45310156 163.12109375 52.67578125 C159.05414557 64.09813407 152.52911876 71.99669152 142 78 C138.72049059 79.51224309 135.41579457 80.82990867 132 82 C132.67804688 82.1959375 133.35609375 82.391875 134.0546875 82.59375 C146.15787253 86.48286209 155.29499253 94.2322116 161.31640625 105.453125 C165.69222603 115.63795989 165.34453497 126.86333312 162.125 137.3125 C158.3403341 146.74720845 151.63522351 153.76583248 143 159 C140.66718014 159.91246829 138.4475711 160.41258294 136 161 C136 161.66 136 162.32 136 163 C91.12 163 46.24 163 0 163 C0 109.21 0 55.42 0 0 Z " fill="#040404" transform="translate(0,0)"/>
<path d="M0 0 C40.59 0 81.18 0 123 0 C123 27.06 123 54.12 123 82 C116.565 82.99 116.565 82.99 110 84 C98.76836119 88.62479245 91.34587164 95.00848822 86 106 C84.8385543 108.96278224 83.84468584 111.93245668 83 115 C80.60961579 112.60961579 80.07857348 110.67373842 78.9375 107.5 C75.04871319 97.97247231 68.3070172 90.48926712 59 86 C58.07574219 85.52433594 58.07574219 85.52433594 57.1328125 85.0390625 C48.04986372 81.18676127 35.28684839 81.52344603 26 84.5 C15.97546353 88.88862196 8.05011074 96.36892447 3.97265625 106.5703125 C3.24777727 108.70152351 2.58565053 110.82692829 2 113 C1.34 113 0.68 113 0 113 C0 75.71 0 38.42 0 0 Z " fill="#FEFEFE" transform="translate(0,0)"/>
<path d="M0 0 C40.59 0 81.18 0 123 0 C123 13.2 123 26.4 123 40 C82.41 40 41.82 40 0 40 C0 26.8 0 13.6 0 0 Z " fill="#FEFEFE" transform="translate(0,123)"/>
<path d="M0 0 C1.30453125 -0.02835937 2.6090625 -0.05671875 3.953125 -0.0859375 C8.53742271 0.47059247 11.47934026 2.10434026 14.75 5.375 C14.98529412 10.90441176 14.98529412 10.90441176 13.75 13.375 C13.09 13.375 12.43 13.375 11.75 13.375 C11.75 14.035 11.75 14.695 11.75 15.375 C12.74 15.705 13.73 16.035 14.75 16.375 C16.29586876 19.46673752 16.04359521 21.96929552 15.75 25.375 C13.53136971 28.28217073 12.23055071 29.21481643 8.75 30.375 C6.05001293 30.49682523 3.38721229 30.56011299 0.6875 30.5625 C-0.04533203 30.57474609 -0.77816406 30.58699219 -1.53320312 30.59960938 C-3.44026507 30.60486299 -5.34684886 30.49718272 -7.25 30.375 C-9.93487165 27.69012835 -9.50769449 26.31023019 -9.515625 22.5625 C-9.51820313 21.40492187 -9.52078125 20.24734375 -9.5234375 19.0546875 C-9.51570313 17.84039062 -9.50796875 16.62609375 -9.5 15.375 C-9.50773437 14.16070312 -9.51546875 12.94640625 -9.5234375 11.6953125 C-9.52085937 10.53773437 -9.51828125 9.38015625 -9.515625 8.1875 C-9.51336914 7.12144531 -9.51111328 6.05539063 -9.50878906 4.95703125 C-8.93234536 -0.79435419 -4.81294657 0.04718575 0 0 Z " fill="#0E0E0E" transform="translate(355.25,91.625)"/>
<path d="M0 0 C1.134375 0.020625 2.26875 0.04125 3.4375 0.0625 C5.66958565 4.27084486 7.27407395 8.37230161 8.625 12.9375 C8.96917969 14.08992188 9.31335938 15.24234375 9.66796875 16.4296875 C9.92191406 17.29851562 10.17585937 18.16734375 10.4375 19.0625 C12.48927715 13.78650163 14.24254586 8.51247292 15.7890625 3.06640625 C16.4375 1.0625 16.4375 1.0625 17.4375 0.0625 C20.875 -0.1875 20.875 -0.1875 24.4375 0.0625 C26.70788301 3.46807452 26.69421558 4.71969174 26.703125 8.71875 C26.70699219 10.37583984 26.70699219 10.37583984 26.7109375 12.06640625 C26.70320313 13.22011719 26.69546875 14.37382813 26.6875 15.5625 C26.69523437 16.71621094 26.70296875 17.86992188 26.7109375 19.05859375 C26.70835937 20.16332031 26.70578125 21.26804687 26.703125 22.40625 C26.70086914 23.41880859 26.69861328 24.43136719 26.69628906 25.47460938 C26.4375 28.0625 26.4375 28.0625 24.4375 31.0625 C20.5625 30.1875 20.5625 30.1875 19.4375 29.0625 C19.20268307 26.87957226 19.02386677 24.69046826 18.875 22.5 C18.74931641 20.70369141 18.74931641 20.70369141 18.62109375 18.87109375 C18.56050781 17.94425781 18.49992187 17.01742187 18.4375 16.0625 C18.12296875 16.97773437 17.8084375 17.89296875 17.484375 18.8359375 C17.05640625 20.02445313 16.6284375 21.21296875 16.1875 22.4375 C15.76984375 23.62085937 15.3521875 24.80421875 14.921875 26.0234375 C13.4375 29.0625 13.4375 29.0625 11.265625 30.4765625 C10.66234375 30.66992188 10.0590625 30.86328125 9.4375 31.0625 C5.93392517 28.36203688 5.35482905 25.02763333 4.25 20.875 C3.90582031 19.60269531 3.56164062 18.33039063 3.20703125 17.01953125 C2.95308594 16.04371094 2.69914063 15.06789063 2.4375 14.0625 C2.38851562 15.12210938 2.33953125 16.18171875 2.2890625 17.2734375 C2.21403291 18.66148497 2.13848515 20.04950451 2.0625 21.4375 C2.0315625 22.13617188 2.000625 22.83484375 1.96875 23.5546875 C1.6640625 28.8359375 1.6640625 28.8359375 -0.5625 31.0625 C-2.6875 30.6875 -2.6875 30.6875 -4.5625 30.0625 C-4.58715746 25.9507744 -4.60533959 21.83907722 -4.61743164 17.72729492 C-4.6224708 16.32754772 -4.62930216 14.9278058 -4.63793945 13.52807617 C-4.6500232 11.52004223 -4.65519807 9.51197043 -4.66015625 7.50390625 C-4.66539307 6.29420166 -4.67062988 5.08449707 -4.67602539 3.83813477 C-4.5058671 -0.32214391 -4.29632565 0.07537413 0 0 Z " fill="#090909" transform="translate(209.5625,91.9375)"/>
<path d="M0 0 C2.55821849 0.30587395 4.6713536 -0.1209634 7.15625 -0.7421875 C9.63635861 1.73792111 8.48682895 8.119791 8.53125 11.4453125 C8.56863281 12.48751953 8.60601562 13.52972656 8.64453125 14.60351562 C8.74365108 23.26548717 8.74365108 23.26548717 5.91015625 26.9296875 C2.48290792 29.82704921 0.70861342 30.21383151 -3.6171875 30.4453125 C-6.82871086 30.17486843 -9.15906336 28.97876547 -11.84375 27.2578125 C-11.51375 25.6078125 -11.18375 23.9578125 -10.84375 22.2578125 C-6.96875 23.1328125 -6.96875 23.1328125 -5.84375 24.2578125 C-3.84416636 24.29862033 -1.84329746 24.30035606 0.15625 24.2578125 C0.48625 22.6078125 0.81625 20.9578125 1.15625 19.2578125 C0.16625 19.9178125 -0.82375 20.5778125 -1.84375 21.2578125 C-5.82208499 21.11314577 -8.10106996 20.86368306 -11.21875 18.3203125 C-14.25722635 14.46378482 -14.2038235 11.02404859 -13.84375 6.2578125 C-12.98811763 3.37977634 -12.04087733 2.43104561 -9.78125 0.4453125 C-6.13720892 -1.02781049 -3.81083553 -0.5970309 0 0 Z " fill="#0F0F0F" transform="translate(324.84375,100.7421875)"/>
<path d="M0 0 C2.475 0.495 2.475 0.495 5 1 C5 10.57 5 20.14 5 30 C3.68 30.33 2.36 30.66 1 31 C0.34 30.34 -0.32 29.68 -1 29 C-1.66 29.66 -2.32 30.32 -3 31 C-7.61575651 31.51286183 -10.32995906 30.85447629 -14 28 C-16.57467628 23.79260218 -16.56611568 19.80340574 -16 15 C-14.37599816 11.36532921 -13.33886956 10.22591304 -10 8 C-4.65454545 7.67272727 -4.65454545 7.67272727 -2 9 C-1.855625 7.700625 -1.71125 6.40125 -1.5625 5.0625 C-1.125 1.125 -1.125 1.125 0 0 Z " fill="#0E0E0E" transform="translate(448,92)"/>
<path d="M0 0 C3.05357079 1.61320721 5.23833566 3.03060902 7.375 5.75 C8.33387734 9.20195844 8.5738278 12.48005629 8 16 C5.83342194 19.55937825 3.83733343 21.45946468 0 23 C-4.41085424 23.23296765 -7.98138743 22.78942474 -11.5 20.0625 C-14.69992101 15.66260861 -14.76840648 11.3120274 -14 6 C-9.80794679 0.5944577 -6.7438041 -0.56198368 0 0 Z " fill="#111111" transform="translate(252,100)"/>
<path d="M0 0 C0.85464844 -0.00515625 1.70929688 -0.0103125 2.58984375 -0.015625 C5.21923987 0.26683777 6.83912569 0.83738635 9.0625 2.25 C10.2107685 4.546537 10.17811175 5.83313167 10.16015625 8.3828125 C10.15693359 9.18847656 10.15371094 9.99414062 10.15039062 10.82421875 C10.14201172 11.66597656 10.13363281 12.50773437 10.125 13.375 C10.12048828 14.22449219 10.11597656 15.07398437 10.11132812 15.94921875 C10.09952874 18.04950909 10.08159306 20.1497633 10.0625 22.25 C8.25 22.875 8.25 22.875 6.0625 23.25 C5.0725 22.59 4.0825 21.93 3.0625 21.25 C2.52625 21.58 1.99 21.91 1.4375 22.25 C-1.60943922 23.53292178 -3.65782701 23.65995912 -6.9375 23.25 C-9.375 21.6875 -9.375 21.6875 -10.9375 19.25 C-10.875 15.625 -10.875 15.625 -9.9375 12.25 C-6.93309979 10.24706653 -5.22756055 9.75728374 -1.75 9.125 C-0.84894531 8.95742187 0.05210937 8.78984375 0.98046875 8.6171875 C1.66753906 8.49601562 2.35460937 8.37484375 3.0625 8.25 C3.0625 7.59 3.0625 6.93 3.0625 6.25 C0.14597826 6.08318891 0.14597826 6.08318891 -2.9375 6.25 C-3.5975 6.91 -4.2575 7.57 -4.9375 8.25 C-7.0625 7.875 -7.0625 7.875 -8.9375 7.25 C-8.625 4.875 -8.625 4.875 -7.9375 2.25 C-4.71002945 0.09835297 -3.73244361 -0.02245079 0 0 Z " fill="#0A0A0A" transform="translate(396.9375,99.75)"/>
<path d="M0 0 C1.98 0.99 3.96 1.98 6 3 C6 8.61 6 14.22 6 20 C-0.80898876 23.40449438 -0.80898876 23.40449438 -5.1875 22.875 C-6.02667969 22.78992188 -6.86585938 22.70484375 -7.73046875 22.6171875 C-10.3293584 21.91043266 -11.39894393 21.14711162 -13 19 C-12.6875 16.8125 -12.6875 16.8125 -12 15 C-7.91621717 15.74250597 -3.98060777 16.82923301 0 18 C0 17.01 0 16.02 0 15 C-0.60328125 14.89042969 -1.2065625 14.78085938 -1.828125 14.66796875 C-10.59410915 12.9289106 -10.59410915 12.9289106 -13 10 C-13.5625 7.0625 -13.5625 7.0625 -13 4 C-9.43395715 -0.23467589 -5.30635451 -1.06510913 0 0 Z " fill="#0F0F0F" transform="translate(468,100)"/>
<path d="M0 0 C1.67293936 0.30027117 3.33985384 0.63557767 5 1 C7.0745356 1.1490712 7.0745356 1.1490712 9 0 C12.91744373 -0.52232583 14.47098966 -0.39830457 17.671875 2.01171875 C20.59636567 5.76546936 20.64778925 8.631233 20.4375 13.1875 C20.43169922 13.91130859 20.42589844 14.63511719 20.41992188 15.38085938 C20.29613095 20.70386905 20.29613095 20.70386905 18 23 C14.46428571 22.46428571 14.46428571 22.46428571 13 21 C12.76472227 18.65012738 12.58613583 16.29443961 12.4375 13.9375 C12.31181641 12.00197266 12.31181641 12.00197266 12.18359375 10.02734375 C12.12300781 9.02832031 12.06242187 8.02929688 12 7 C10.10820797 6.3185177 10.10820797 6.3185177 8 6 C5.14206684 8.85793316 5.59200059 11.14665584 5.375 15.125 C5.26285156 17.04699219 5.26285156 17.04699219 5.1484375 19.0078125 C5.09945313 19.99523437 5.05046875 20.98265625 5 22 C1.25 23.125 1.25 23.125 -1 22 C-1.02887814 18.52085059 -1.04675687 15.04173169 -1.0625 11.5625 C-1.07087891 10.56927734 -1.07925781 9.57605469 -1.08789062 8.55273438 C-1.09111328 7.60849609 -1.09433594 6.66425781 -1.09765625 5.69140625 C-1.10289307 4.81685791 -1.10812988 3.94230957 -1.11352539 3.04125977 C-1 1 -1 1 0 0 Z " fill="#191919" transform="translate(290,100)"/>
<path d="M0 0 C1.175625 0.0825 2.35125 0.165 3.5625 0.25 C5.83288301 3.65557452 5.81921558 4.90719174 5.828125 8.90625 C5.83199219 10.56333984 5.83199219 10.56333984 5.8359375 12.25390625 C5.82820313 13.40761719 5.82046875 14.56132813 5.8125 15.75 C5.82023437 16.90371094 5.82796875 18.05742188 5.8359375 19.24609375 C5.83335937 20.35082031 5.83078125 21.45554687 5.828125 22.59375 C5.82586914 23.60630859 5.82361328 24.61886719 5.82128906 25.66210938 C5.5625 28.25 5.5625 28.25 3.5625 31.25 C-0.3125 30.375 -0.3125 30.375 -1.4375 29.25 C-1.67231693 27.06707226 -1.85113323 24.87796826 -2 22.6875 C-2.08378906 21.48996094 -2.16757813 20.29242188 -2.25390625 19.05859375 C-2.31449219 18.13175781 -2.37507812 17.20492187 -2.4375 16.25 C-3.4275 18.89 -4.4175 21.53 -5.4375 24.25 C-6.4275 23.26 -7.4175 22.27 -8.4375 21.25 C-9.4275 21.25 -10.4175 21.25 -11.4375 21.25 C-11.1075 20.59 -10.7775 19.93 -10.4375 19.25 C-8.36714703 13.98001061 -6.63261467 8.70053822 -5.0859375 3.25390625 C-4.00162218 -0.09702002 -3.79202889 0.27578392 0 0 Z " fill="#191919" transform="translate(230.4375,91.75)"/>
<path d="M0 0 C1.32 0 2.64 0 4 0 C4 0.99 4 1.98 4 3 C4.515625 2.505 5.03125 2.01 5.5625 1.5 C8.90028661 -0.55402253 11.14399755 -0.41314312 15 0 C17.203125 0.91796875 17.203125 0.91796875 19 3 C19.50544816 6.2386123 19.37429535 9.41996645 19.25 12.6875 C19.23195313 13.58017578 19.21390625 14.47285156 19.1953125 15.39257812 C19.14817759 17.59613504 19.08240657 19.79752601 19 22 C17.125 22.625 17.125 22.625 15 23 C12.06552643 20.06552643 12.53841577 16.81740544 12.375 12.875 C12.33632813 12.12089844 12.29765625 11.36679688 12.2578125 10.58984375 C12.16348969 8.72696816 12.08065338 6.86351745 12 5 C10.02 5.33 8.04 5.66 6 6 C5.67 11.28 5.34 16.56 5 22 C3.35 22.33 1.7 22.66 0 23 C-1.62200515 21.37799485 -1.1299075 19.57976969 -1.1328125 17.34375 C-1.13410156 16.40402344 -1.13539063 15.46429688 -1.13671875 14.49609375 C-1.13285156 13.50738281 -1.12898438 12.51867187 -1.125 11.5 C-1.12886719 10.51128906 -1.13273437 9.52257812 -1.13671875 8.50390625 C-1.13542969 7.56417969 -1.13414062 6.62445313 -1.1328125 5.65625 C-1.13168457 4.78806641 -1.13055664 3.91988281 -1.12939453 3.02539062 C-1 1 -1 1 0 0 Z " fill="#0D0D0D" transform="translate(411,100)"/>
<path d="M0 0 C0 1.32 0 2.64 0 4 C0.99 4.928125 0.99 4.928125 2 5.875 C4 8 4 8 4.4375 11 C3.95486486 14.3094981 3.09896083 15.48124701 1 18 C0.29485154 20.14733927 0.29485154 20.14733927 0 22 C-6.37534247 21.50958904 -6.37534247 21.50958904 -9.375 19.0625 C-12.41347635 15.20597232 -12.3600735 11.76623609 -12 7 C-11.10031185 3.97377622 -10.22327902 3.1689679 -7.6875 1.25 C-4.84590033 -0.07167427 -3.08973124 -0.26483411 0 0 Z " fill="#161616" transform="translate(323,100)"/>
<path d="M0 0 C2.3125 0 2.3125 0 5 1 C7.09524827 4.70697771 8.00247441 8.88982512 9 13 C9.19335938 12.39671875 9.38671875 11.7934375 9.5859375 11.171875 C9.84632813 10.37265625 10.10671875 9.5734375 10.375 8.75 C10.63023437 7.96109375 10.88546875 7.1721875 11.1484375 6.359375 C11.95173667 4.13372042 12.89711662 2.09068328 14 0 C16.475 0.495 16.475 0.495 19 1 C18.60293233 7.75015037 16.926154 18.073846 12 23 C9.625 23.375 9.625 23.375 7 23 C4.33151258 19.27669164 2.80828602 15.22278654 1.25 10.9375 C0.80140625 9.72964844 0.3528125 8.52179688 -0.109375 7.27734375 C-0.94713922 4.19451839 -1.18334761 2.89342922 0 0 Z " fill="#121212" transform="translate(260,100)"/>
<path d="M0 0 C3.13400486 0.49160861 5.15469072 0.30280246 8.1875 -0.5 C8.56968767 1.15614657 8.90145102 2.82457024 9.1875 4.5 C8.1875 5.5 8.1875 5.5 5.625 5.5625 C4.4184375 5.5315625 4.4184375 5.5315625 3.1875 5.5 C3.13851563 6.55960937 3.08953125 7.61921875 3.0390625 8.7109375 C2.96403291 10.09898497 2.88848515 11.48700451 2.8125 12.875 C2.7815625 13.57367188 2.750625 14.27234375 2.71875 14.9921875 C2.4140625 20.2734375 2.4140625 20.2734375 0.1875 22.5 C-3.34821429 21.96428571 -3.34821429 21.96428571 -4.8125 20.5 C-4.89919432 19.0112814 -4.91953494 17.518555 -4.91015625 16.02734375 C-4.90693359 15.12822266 -4.90371094 14.22910156 -4.90039062 13.30273438 C-4.89201172 12.35720703 -4.88363281 11.41167969 -4.875 10.4375 C-4.87048828 9.48810547 -4.86597656 8.53871094 -4.86132812 7.56054688 C-4.8495011 5.20696935 -4.83302025 2.85351523 -4.8125 0.5 C-2.8125 -0.5 -2.8125 -0.5 0 0 Z " fill="#1A1A1A" transform="translate(377.8125,100.5)"/>
<path d="M0 0 C0.598125 0.20625 1.19625 0.4125 1.8125 0.625 C1.4825 1.285 1.1525 1.945 0.8125 2.625 C3.4525 2.625 6.0925 2.625 8.8125 2.625 C9.1425 5.265 9.4725 7.905 9.8125 10.625 C5.67041608 12.20293673 2.25059352 13.20388176 -2.1875 12.625 C-4.625 11.0625 -4.625 11.0625 -6.1875 8.625 C-6.125 5 -6.125 5 -5.1875 1.625 C-2.1875 -0.375 -2.1875 -0.375 0 0 Z " fill="#131313" transform="translate(392.1875,110.375)"/>
<path d="M0 0 C1.65 0.33 3.3 0.66 5 1 C5 7.93 5 14.86 5 22 C3.68 22.33 2.36 22.66 1 23 C-1 21 -1 21 -1.24291992 18.95288086 C-1.23881104 18.13182861 -1.23470215 17.31077637 -1.23046875 16.46484375 C-1.22853516 15.57345703 -1.22660156 14.68207031 -1.22460938 13.76367188 C-1.21236328 12.83103516 -1.20011719 11.89839844 -1.1875 10.9375 C-1.18685547 10.00099609 -1.18621094 9.06449219 -1.18554688 8.09960938 C-1.14019224 1.14019224 -1.14019224 1.14019224 0 0 Z " fill="#050505" transform="translate(281,100)"/>
<path d="M0 0 C2.83181098 -0.43566323 4.36063578 -0.39684676 6.8125 1.125 C8.55957504 3.88353953 8.39203417 5.79838764 8 9 C6.8125 11.375 6.8125 11.375 5 13 C2.4375 13.4375 2.4375 13.4375 0 13 C-2.45811625 9.31282562 -2.31118164 7.35654296 -2 3 C-1.34 2.01 -0.68 1.02 0 0 Z " fill="#EEEEEE" transform="translate(246,105)"/>
<path d="M0 0 C0.66 0 1.32 0 2 0 C1.67 0.99 1.34 1.98 1 3 C0.34 3 -0.32 3 -1 3 C-2.53202319 7.59606958 -2.7074455 12.75975593 -1.25 17.375 C0.39573611 19.51445694 1.39235258 20.22475347 4 21 C8.66029854 20.59829968 8.66029854 20.59829968 13 19 C12.125 24.875 12.125 24.875 11 26 C8.0625 26.1875 8.0625 26.1875 5 26 C4.34 25.34 3.68 24.68 3 24 C2.175 24.020625 1.35 24.04125 0.5 24.0625 C-0.325 24.041875 -1.15 24.02125 -2 24 C-4.0140956 20.9788566 -4.26836596 20.19339983 -4.4140625 16.76953125 C-4.45273437 15.96708984 -4.49140625 15.16464844 -4.53125 14.33789062 C-4.5621875 13.50451172 -4.593125 12.67113281 -4.625 11.8125 C-4.66367187 10.96751953 -4.70234375 10.12253906 -4.7421875 9.25195312 C-4.83636279 7.16832476 -4.91926675 5.08419247 -5 3 C-3.35 2.67 -1.7 2.34 0 2 C0 1.34 0 0.68 0 0 Z " fill="#F4F3F4" transform="translate(314,100)"/>
<path d="M0 0 C5.67276511 -0.29341888 8.99067246 -0.00559652 14 3 C14 5.64 14 8.28 14 11 C12.3934324 10.74379316 10.7897517 10.46944129 9.1875 10.1875 C8.29417969 10.03667969 7.40085937 9.88585937 6.48046875 9.73046875 C3.81678744 8.94604607 2.74309678 8.11372201 1 6 C1.99 4.68 2.98 3.36 4 2 C2.68 1.34 1.36 0.68 0 0 Z " fill="#191919" transform="translate(460,100)"/>
<path d="M0 0 C2.375 0.75 2.375 0.75 3.375 1.75 C3.54296875 3.74609375 3.54296875 3.74609375 3.5625 6.1875 C3.57667969 6.99058594 3.59085937 7.79367188 3.60546875 8.62109375 C3.375 10.75 3.375 10.75 1.375 12.75 C-1.125 12.5625 -1.125 12.5625 -3.625 11.75 C-5.93782587 8.28076119 -6.04978586 6.82794425 -5.625 2.75 C-3.92079816 -0.03053984 -3.27136899 -0.31155895 0 0 Z " fill="#E9E9E9" transform="translate(443.625,105.25)"/>
<path d="M0 0 C0.99 0 1.98 0 3 0 C3 0.66 3 1.32 3 2 C3.66 2 4.32 2 5 2 C5 2.66 5 3.32 5 4 C4.34 4 3.68 4 3 4 C3.33 4.66 3.66 5.32 4 6 C4.07116382 8.37402501 4.08409085 10.75000677 4.0625 13.125 C4.05347656 14.40632813 4.04445313 15.68765625 4.03515625 17.0078125 C4.02355469 17.99523437 4.01195312 18.98265625 4 20 C2.0625 20.5625 2.0625 20.5625 0 21 C-1.55606751 19.44393249 -1.12970769 17.94042629 -1.1328125 15.78125 C-1.13410156 14.93175781 -1.13539063 14.08226563 -1.13671875 13.20703125 C-1.13285156 12.31371094 -1.12898438 11.42039062 -1.125 10.5 C-1.12886719 9.60667969 -1.13273437 8.71335937 -1.13671875 7.79296875 C-1.13542969 6.94347656 -1.13414062 6.09398438 -1.1328125 5.21875 C-1.13168457 4.43435547 -1.13055664 3.64996094 -1.12939453 2.84179688 C-1 1 -1 1 0 0 Z " fill="#060606" transform="translate(291,102)"/>
<path d="M0 0 C1.60454372 3.20908744 1.48018091 6.51868838 1 10 C-0.87584438 13.26535874 -2.05475322 14.63112321 -5.5625 16 C-8 16 -8 16 -9.8125 14.5625 C-10.204375 14.046875 -10.59625 13.53125 -11 13 C-9.7934375 11.948125 -9.7934375 11.948125 -8.5625 10.875 C-5.70905659 7.67357569 -5.54948579 6.12114343 -5 2 C-2 0 -2 0 0 0 Z " fill="#090909" transform="translate(259,106)"/>
<path d="M0 0 C1.2375 0.1546875 1.2375 0.1546875 2.5 0.3125 C4.81282587 3.78173881 4.92478586 5.23455575 4.5 9.3125 C3.3125 11.25 3.3125 11.25 1.5 12.3125 C-2.92105263 11.89144737 -2.92105263 11.89144737 -4.5 10.3125 C-4.77314815 4.57638889 -4.77314815 4.57638889 -4.5 2.3125 C-2.5 0.3125 -2.5 0.3125 0 0 Z " fill="#E9E8E9" transform="translate(322.5,104.6875)"/>
<path d="M0 0 C0.33 0 0.66 0 1 0 C1.03996094 1.10859375 1.07992188 2.2171875 1.12109375 3.359375 C1.29384081 11.34556077 1.29384081 11.34556077 5.03125 17.91796875 C7.36871024 18.90835369 9.50899554 19.53376922 12 20 C12.99 20.33 13.98 20.66 15 21 C15 21.99 15 22.98 15 24 C9.375 24.25 9.375 24.25 6 22 C5.01 22 4.02 22 3 22 C3 23.32 3 24.64 3 26 C2.01 26.33 1.02 26.66 0 27 C0 18.09 0 9.18 0 0 Z " fill="#BBBBBB" transform="translate(453,94)"/>
<path d="M0 0 C0.33 1.32 0.66 2.64 1 4 C1.99 4 2.98 4 4 4 C5.82421875 5.64453125 5.82421875 5.64453125 7.6875 7.8125 C8.31011719 8.52019531 8.93273437 9.22789063 9.57421875 9.95703125 C11 12 11 12 11 15 C11.66 15.33 12.32 15.66 13 16 C8.35525026 16.32405231 5.70894272 15.88473323 2 13 C0.12121651 9.99394641 -0.22839563 7.76545135 -0.125 4.25 C-0.10695313 3.45078125 -0.08890625 2.6515625 -0.0703125 1.828125 C-0.04710937 1.22484375 -0.02390625 0.6215625 0 0 Z " fill="#181818" transform="translate(432,107)"/>
<path d="M0 0 C1.45792884 -0.05399736 2.91642712 -0.09279177 4.375 -0.125 C5.18710937 -0.14820312 5.99921875 -0.17140625 6.8359375 -0.1953125 C9 0 9 0 11 2 C10.44444444 6.55555556 10.44444444 6.55555556 9 8 C7.48071962 8.07179964 5.95832518 8.08392007 4.4375 8.0625 C3.61121094 8.05347656 2.78492188 8.04445313 1.93359375 8.03515625 C1.29550781 8.02355469 0.65742188 8.01195313 0 8 C0 5.36 0 2.72 0 0 Z " fill="#E5E5E5" transform="translate(353,109)"/>
<path d="M0 0 C2.97 0 5.94 0 9 0 C9.625 2.375 9.625 2.375 10 5 C8 7 8 7 6.0546875 7.1953125 C4.03645833 7.13020833 2.01822917 7.06510417 0 7 C0 4.69 0 2.38 0 0 Z " fill="#E3E3E3" transform="translate(353,98)"/>
<path d="M0 0 C0.66 0.33 1.32 0.66 2 1 C1.96519531 2.10408203 1.96519531 2.10408203 1.9296875 3.23046875 C1.91164063 4.20628906 1.89359375 5.18210937 1.875 6.1875 C1.84019531 7.63189453 1.84019531 7.63189453 1.8046875 9.10546875 C2.0086456 12.12812778 2.73125368 14.26769985 4 17 C2.33333333 17 0.66666667 17 -1 17 C-1.02684679 14.35409986 -1.04676357 11.70846904 -1.0625 9.0625 C-1.07087891 8.30775391 -1.07925781 7.55300781 -1.08789062 6.77539062 C-1.09652441 4.85005687 -1.05224333 2.92464419 -1 1 C-0.67 0.67 -0.34 0.34 0 0 Z " fill="#CFCFCF" transform="translate(431,104)"/>
<path d="M0 0 C3.4877577 0.22746246 6.54887462 1.14400968 9.875 2.1875 C9.875 3.5075 9.875 4.8275 9.875 6.1875 C8.2684324 5.93129316 6.6647517 5.65694129 5.0625 5.375 C4.16917969 5.22417969 3.27585937 5.07335937 2.35546875 4.91796875 C-0.30821256 4.13354607 -1.38190322 3.30122201 -3.125 1.1875 C-2.125 0.1875 -2.125 0.1875 0 0 Z " fill="#E4E4E4" transform="translate(464.125,104.8125)"/>
<path d="M0 0 C0.90105469 0.01804687 1.80210937 0.03609375 2.73046875 0.0546875 C3.41753906 0.07789062 4.10460937 0.10109375 4.8125 0.125 C4.8125 0.455 4.8125 0.785 4.8125 1.125 C0.3575 1.62 0.3575 1.62 -4.1875 2.125 C-3.8575 3.445 -3.5275 4.765 -3.1875 6.125 C-3.8475 6.785 -4.5075 7.445 -5.1875 8.125 C-7.3125 7.75 -7.3125 7.75 -9.1875 7.125 C-8.875 4.75 -8.875 4.75 -8.1875 2.125 C-4.87379 -0.08414 -3.8428979 -0.09981553 0 0 Z " fill="#1C1C1C" transform="translate(397.1875,99.875)"/>
<path d="M0 0 C0.66 0.66 1.32 1.32 2 2 C1.525625 2.886875 1.05125 3.77375 0.5625 4.6875 C-0.79737149 7.57042756 -1.54060386 9.87610623 -2 13 C-2.66 13 -3.32 13 -4 13 C-4.05395478 11.37536158 -4.09277195 9.75021459 -4.125 8.125 C-4.14820313 7.22007813 -4.17140625 6.31515625 -4.1953125 5.3828125 C-4 3 -4 3 -2 1 C-1.34 0.67 -0.68 0.34 0 0 Z " fill="#DFDFDF" transform="translate(4,100)"/>
<path d="M0 0 C0 4 0 8 0 12 C-0.66 11.67 -1.32 11.34 -2 11 C-2 10.34 -2 9.68 -2 9 C-2.99 9 -3.98 9 -5 9 C-5.25 6.75 -5.25 6.75 -5 4 C-1.64864865 0 -1.64864865 0 0 0 Z " fill="#030303" transform="translate(438,102)"/>
<path d="M0 0 C1.67542976 0.28604898 3.34385343 0.61781233 5 1 C5.33 1.99 5.66 2.98 6 4 C4.35 3.67 2.7 3.34 1 3 C0.67 9.27 0.34 15.54 0 22 C-0.33 22 -0.66 22 -1 22 C-1.02887814 18.52085059 -1.04675687 15.04173169 -1.0625 11.5625 C-1.07087891 10.56927734 -1.07925781 9.57605469 -1.08789062 8.55273438 C-1.09111328 7.60849609 -1.09433594 6.66425781 -1.09765625 5.69140625 C-1.10289307 4.81685791 -1.10812988 3.94230957 -1.11352539 3.04125977 C-1 1 -1 1 0 0 Z " fill="#2B2B2B" transform="translate(290,100)"/>
<path d="M0 0 C0.625 1.8125 0.625 1.8125 1 4 C0.01 5.485 0.01 5.485 -1 7 C-4.125 7.1875 -4.125 7.1875 -7 7 C-7 6.01 -7 5.02 -7 4 C-4.69 2.68 -2.38 1.36 0 0 Z " fill="#DEDEDE" transform="translate(326,119)"/>
<path d="M0 0 C-0.875 3.875 -0.875 3.875 -2 5 C-3.99958364 5.04080783 -6.00045254 5.04254356 -8 5 C-8 3.68 -8 2.36 -8 1 C-5.29120665 -0.35439668 -2.99066732 -0.06501451 0 0 Z " fill="#E4E4E4" transform="translate(401,113)"/>
<path d="M0 0 C1.4540625 0.0309375 1.4540625 0.0309375 2.9375 0.0625 C2.9375 1.3825 2.9375 2.7025 2.9375 4.0625 C0.2975 4.3925 -2.3425 4.7225 -5.0625 5.0625 C-3.9375 0.08035714 -3.9375 0.08035714 0 0 Z " fill="#E4E4E4" transform="translate(397.0625,104.9375)"/>
<path d="M0 0 C1.67542976 0.28604898 3.34385343 0.61781233 5 1 C4.67 1.66 4.34 2.32 4 3 C2.68 3 1.36 3 0 3 C0 8.94 0 14.88 0 21 C-0.33 21 -0.66 21 -1 21 C-1.02888146 17.68751813 -1.04675799 14.37506833 -1.0625 11.0625 C-1.07087891 10.11697266 -1.07925781 9.17144531 -1.08789062 8.19726562 C-1.09111328 7.29814453 -1.09433594 6.39902344 -1.09765625 5.47265625 C-1.10289307 4.64000244 -1.10812988 3.80734863 -1.11352539 2.94946289 C-1 1 -1 1 0 0 Z " fill="#272727" transform="translate(281,100)"/>
<path d="M0 0 C0 1.32 0 2.64 0 4 C-2.66666667 4 -5.33333333 4 -8 4 C-8.99 4.66 -9.98 5.32 -11 6 C-8.60159776 0.46522561 -5.82500047 -0.25888891 0 0 Z " fill="#1E1E1E" transform="translate(444,100)"/>
<path d="M0 0 C1.65 0.33 3.3 0.66 5 1 C4.67 2.65 4.34 4.3 4 6 C2.35 5.67 0.7 5.34 -1 5 C-0.67 3.35 -0.34 1.7 0 0 Z " fill="#141414" transform="translate(281,92)"/>
<path d="M0 0 C1.98 0.495 1.98 0.495 4 1 C5.125 4.75 5.125 4.75 4 7 C1.525 6.01 1.525 6.01 -1 5 C-0.67 3.35 -0.34 1.7 0 0 Z " fill="#181818" transform="translate(314,123)"/>
<path d="M0 0 C0.66 0.99 1.32 1.98 2 3 C1 5 1 5 -1.1875 6.125 C-4.26769331 7.08328236 -6.79309948 7.14915816 -10 7 C-10 6.67 -10 6.34 -10 6 C-8.35 5.67 -6.7 5.34 -5 5 C-5.33 4.01 -5.66 3.02 -6 2 C-4.02 1.34 -2.04 0.68 0 0 Z " fill="#313131" transform="translate(400,116)"/>
<path d="M0 0 C2.45823172 3.68734758 3.01242616 6.69699971 4 11 C3.34 11 2.68 11 2 11 C1.67 12.98 1.34 14.96 1 17 C0.67 17 0.34 17 0 17 C0 11.39 0 5.78 0 0 Z " fill="#DBDBDB" transform="translate(211,103)"/>
<path d="M0 0 C0.33 0 0.66 0 1 0 C1 3.96 1 7.92 1 12 C0.01 12.495 0.01 12.495 -1 13 C-1.66 12.67 -2.32 12.34 -3 12 C-2.01 8.04 -1.02 4.08 0 0 Z " fill="#EBEBEB" transform="translate(228,104)"/>
<path d="M0 0 C2.64 0.33 5.28 0.66 8 1 C8 1.99 8 2.98 8 4 C6.02 4 4.04 4 2 4 C1.34 2.68 0.68 1.36 0 0 Z " fill="#F0F0F0" transform="translate(460,114)"/>
<path d="M0 0 C0.33 0 0.66 0 1 0 C1.66 3.63 2.32 7.26 3 11 C0.525 12.485 0.525 12.485 -2 14 C-1.34 9.38 -0.68 4.76 0 0 Z " fill="#DEDEDE" transform="translate(237,108)"/>
<path d="M0 0 C1.32 0 2.64 0 4 0 C4 0.99 4 1.98 4 3 C3.01 3.495 3.01 3.495 2 4 C1.01 5.485 1.01 5.485 0 7 C-0.66 6.67 -1.32 6.34 -2 6 C-1.34 4.02 -0.68 2.04 0 0 Z " fill="#212121" transform="translate(274,100)"/>
<path d="M0 0 C2.97 0 5.94 0 9 0 C8.34 1.32 7.68 2.64 7 4 C4.69 3.34 2.38 2.68 0 2 C0 1.34 0 0.68 0 0 Z " fill="#E9E8E9" transform="translate(134,0)"/>
<path d="M0 0 C0.99 0.495 0.99 0.495 2 1 C2 1.99 2 2.98 2 4 C2.66 4 3.32 4 4 4 C5.625 6 5.625 6 7 8 C5.68 8 4.36 8 3 8 C0.4345406 5.4345406 0.45953913 3.52313332 0 0 Z " fill="#272727" transform="translate(215,114)"/>
<path d="M0 0 C1.32 0 2.64 0 4 0 C3.25 1.9375 3.25 1.9375 2 4 C-0.125 4.75 -0.125 4.75 -2 5 C-1.125 1.125 -1.125 1.125 0 0 Z " fill="#242424" transform="translate(328,100)"/>
<path d="M0 0 C0.66 0 1.32 0 2 0 C1.67 0.99 1.34 1.98 1 3 C0.34 3 -0.32 3 -1 3 C-1.66 4.32 -2.32 5.64 -3 7 C-3.66 5.68 -4.32 4.36 -5 3 C-3.35 2.67 -1.7 2.34 0 2 C0 1.34 0 0.68 0 0 Z " fill="#E4E4E4" transform="translate(314,100)"/>
<path d="M0 0 C0.66 0.66 1.32 1.32 2 2 C1.34 3.32 0.68 4.64 0 6 C-0.99 5.67 -1.98 5.34 -3 5 C-2.625 3.0625 -2.625 3.0625 -2 1 C-1.34 0.67 -0.68 0.34 0 0 Z " fill="#EEEEEE" transform="translate(4,100)"/>
</svg>
