<svg version="1.1" id="Layer_1" xmlns="http://www.w3.org/2000/svg" xmlns:xlink="http://www.w3.org/1999/xlink" x="0px" y="0px" viewBox="-162.1 -67 373.2 137" style="enable-background:new -162.1 -67 373.2 137;" xml:space="preserve">
 <path d="M-96.6-5c0,4.4-1.7,8.6-4.8,11.7c-3.1,3.1-7.2,4.9-11.6,4.9h-26.6v-33.2h26.6c4.4,0,8.5,1.7,11.6,4.9
	C-98.3-13.6-96.6-9.4-96.6-5C-96.6-5-96.6-5-96.6-5z M-73.2-4.9L-73.2-4.9c0-10.5-4.1-20.5-11.4-27.9c-7.2-7.4-17.1-11.5-27.5-11.5
	h-50.1V67.5h22.5V34.4h27.6c10.3,0,20.2-4.2,27.5-11.5C-77.3,15.5-73.2,5.5-73.2-4.9C-73.2-4.9-73.2-4.9-73.2-4.9z M11.1,67.5h81.2
	V44.8H33.5V32.4c10.2-3,20.7-7.8,31.1-14.5l9.5-6L62.3-7.4l-9.5,6c-6.1,3.9-12.5,7.2-19.2,9.9v-30.2h58.8v-22.7H11.1v57.7
	C0.2,13.8-8.4,10.9-14.7,7.3c-12.8-7.2-28-24-28-62.9V-67h-22.5v11.4c0,39.5,13.7,68.1,39.5,82.8c10.6,6,22.5,9.1,34.6,9
	c0.7,0,1.5,0,2.2,0C11.2,36.1,11.1,67.5,11.1,67.5z M188.9,11.8c0,4.8-0.7,9.6-2.2,14.2c-1.3,4.1-3.4,8-6.2,11.3
	c-2.7,3.1-6,5.7-9.8,7.4c-4,1.8-8.4,2.7-12.8,2.7c-4.4,0.1-8.8-0.9-12.9-2.7c-3.8-1.7-7.1-4.3-9.8-7.4c-2.8-3.3-4.9-7.1-6.2-11.3
	c-2.9-9.2-2.9-19.1,0-28.4c1.3-4.1,3.4-8,6.2-11.3c2.7-3.2,6-5.7,9.8-7.4c4-1.8,8.4-2.7,12.9-2.7c4.4-0.1,8.8,0.8,12.8,2.7
	c3.8,1.7,7.1,4.3,9.8,7.4c2.8,3.3,4.9,7.2,6.2,11.3C188.2,2.2,188.9,7,188.9,11.8L188.9,11.8z M211.1,11.8
	c0.1-7.9-1.2-15.8-3.7-23.2c-2.3-6.8-5.9-13.1-10.7-18.5c-4.6-5.2-10.4-9.4-16.8-12.2c-6.5-2.9-13.9-4.4-22-4.4s-15.5,1.5-22.1,4.4
	c-6.4,2.8-12.2,7-16.8,12.2c-4.7,5.4-8.4,11.7-10.6,18.5c-4.9,15.1-4.9,31.4,0,46.5c2.3,6.8,5.9,13.1,10.6,18.5
	c4.7,5.2,10.4,9.3,16.9,12.1c6.6,2.9,14,4.4,22.1,4.4c8.1,0,15.5-1.5,22-4.4c6.4-2.8,12.1-6.9,16.8-12.1c4.8-5.4,8.4-11.7,10.6-18.5
	C209.9,27.6,211.2,19.7,211.1,11.8">
 </path>
</svg>