<svg xmlns="http://www.w3.org/2000/svg" width="200" height="53" xmlns:xlink="http://www.w3.org/1999/xlink">
 <g fill="none" fill-rule="evenodd">
  <path fill="#FA476F" d="M26.811 26.908L37.33 16.39 25.394 4.454c-5.81-5.81-15.228-5.81-21.037 0-5.81 5.81-5.81 15.228 0 21.037L26.81 47.945c-5.809-5.809-5.809-15.227 0-21.037">
  </path>
  <path fill="#45D0EB" d="M70.303 4.454c-5.81-5.81-15.228-5.81-21.037 0L37.33 16.39l10.519 10.518c5.809 5.81 5.809 15.228 0 21.037l22.454-22.454c5.81-5.81 5.81-15.228 0-21.037">
  </path>
  <path fill="#664277" d="M47.849 26.908L37.33 16.39 26.811 26.908c-5.809 5.81-5.809 15.228 0 21.037 5.81 5.81 15.228 5.81 21.038 0 5.809-5.809 5.809-15.227 0-21.037">
  </path>
  <path fill="#3D4250" d="M116.447 21.74v4.42h-3.938v14.345h-5.545V26.159h-3.415v-4.42h3.415v-7.192h5.545v7.192h3.938zm6.992 18.765h-5.585V11.533h5.585v13.14c.764-2.33 3.496-3.336 5.264-3.336 4.943 0 7.514 3.295 7.514 8.961v10.207h-5.585V30.499c0-2.451-1.768-3.737-3.456-3.737-1.768 0-3.737.965-3.737 3.818v9.925zm20.654 0h-5.585V21.739h5.585v4.541c.965-3.496 3.376-4.943 5.305-4.943 1.325 0 2.33.242 3.214.684l-1.005 5.022c-1.004-.482-1.968-.562-2.852-.562-3.215 0-4.662 2.531-4.662 7.474v6.55zm9.604 0V21.739h5.545v18.766h-5.545zm2.773-28.972c1.888 0 3.415 1.406 3.415 3.255 0 1.848-1.527 3.295-3.415 3.295-1.89 0-3.496-1.447-3.496-3.295 0-1.849 1.607-3.255 3.496-3.255zm3.857 10.206h5.947l4.38 11.653 4.34-11.653h5.987l-7.956 18.766h-4.782l-7.916-18.766zm34.075 16.636c-1.206 1.808-4.018 2.491-5.465 2.491-4.782 0-9.563-3.737-9.563-9.764 0-6.027 4.781-9.765 9.563-9.765 1.205 0 4.018.402 5.465 2.492v-2.09h5.545v18.766h-5.545v-2.13zm-4.54-2.813c2.29 0 4.54-1.647 4.54-4.46 0-2.813-2.25-4.46-4.54-4.46-2.331 0-4.702 1.768-4.702 4.46s2.37 4.46 4.701 4.46z">
  </path>
 </g>
</svg>