<?xml version="1.0" encoding="UTF-8"?>
<svg version="1.1" xmlns="http://www.w3.org/2000/svg" width="1406" height="362">
<path d="M0 0 C4.57501074 3.95034581 7.66572133 7.81377415 8.30859375 13.94140625 C8.57371702 21.38895997 7.91077542 27.31230025 5.40234375 34.2734375 C5.13577972 35.04211655 4.8692157 35.81079559 4.59457397 36.60276794 C4.02761298 38.23602729 3.45616651 39.86773564 2.88052368 41.49795532 C1.70791858 44.82996151 0.56930282 48.17318933 -0.57051086 51.51652527 C-2.29565797 56.57370299 -4.03610291 61.62564953 -5.77539062 66.67797852 C-6.6406363 69.19242203 -7.50403563 71.70749336 -8.3671875 74.22265625 C-8.6327243 74.9922316 -8.89826111 75.76180695 -9.17184448 76.55470276 C-10.44489091 79.7084477 -10.44489091 79.7084477 -11 83 C-6.85374585 82.0852301 -2.7080126 81.16812448 1.4375 80.25 C2.67056885 79.97704102 3.9036377 79.70408203 5.17407227 79.42285156 C12.61872106 77.76902627 20.04626553 76.0619453 27.45605469 74.25878906 C31.51618844 73.28935783 35.55591425 72.58446823 39.6875 72 C44.34745065 71.24777814 47.48331083 70.34085471 51 67 C55.33252741 59.31470761 57.79090885 51.01561357 60.46875 42.64257812 C63.11405607 34.69278595 65.95216353 26.8672175 73 21.875 C76.5994099 20.82517211 78.44562498 20.78999999 82 22 C85.37283218 24.54836209 86.78346604 26.0894275 87.76733398 30.22680664 C88.03014944 34.48893978 87.30816588 37.22465865 85.91015625 41.24609375 C85.68678085 41.90207047 85.46340546 42.55804718 85.23326111 43.23390198 C84.5237418 45.3069405 83.79359028 47.37198314 83.0625 49.4375 C82.57478451 50.85043333 82.08844244 52.26384153 81.60351562 53.67773438 C80.41817074 57.12412236 79.21422464 60.56366491 78 64 C78.96267288 63.87178612 78.96267288 63.87178612 79.9447937 63.74098206 C86.66118092 62.84678234 93.37786711 61.95485438 100.09472656 61.06420898 C102.59708167 60.73210231 105.09936155 60.39942826 107.6015625 60.06616211 C111.21073808 59.5855613 114.8201847 59.10704253 118.4296875 58.62890625 C119.53738495 58.48095108 120.6450824 58.33299591 121.78634644 58.18055725 C149.50518837 54.5189448 149.50518837 54.5189448 158 61 C156.94337979 66.00793954 155.18674054 68.97489092 151 72 C147.97607422 72.8359375 147.97607422 72.8359375 144.1796875 73.4375 C143.45772186 73.55476944 142.73575623 73.67203888 141.99191284 73.79286194 C134.44885969 74.99169742 126.88059053 76.03757938 119.3203125 77.12109375 C118.66780266 77.21472765 118.01529282 77.30836155 117.34300995 77.40483284 C115.33678651 77.69269645 113.33050878 77.98017904 111.32421875 78.26757812 C110.31816275 78.41190985 110.31816275 78.41190985 109.29178238 78.55915737 C105.83803188 79.05359324 102.3835328 79.54141843 98.92724609 80.01782227 C96.19034202 80.39545062 93.45503611 80.78216862 90.72091675 81.17945862 C88.16649418 81.55053589 85.61011196 81.9084198 83.05178833 82.25157166 C81.90564056 82.42177322 80.7594928 82.59197479 79.57861328 82.76733398 C78.06667892 82.98026344 78.06667892 82.98026344 76.52420044 83.19749451 C73.40502421 84.18915746 72.59780342 85.18302281 71 88 C70.12005235 90.09278064 70.12005235 90.09278064 69.5012207 92.35253906 C69.24669632 93.21117554 68.99217194 94.06981201 68.72993469 94.95446777 C68.33187874 96.3459906 68.33187874 96.3459906 67.92578125 97.765625 C67.64079269 98.73842407 67.35580414 99.71122314 67.06217957 100.71350098 C66.13560739 103.88952824 65.22287012 107.06929333 64.3125 110.25 C63.99941895 111.3368811 63.68633789 112.42376221 63.36376953 113.5435791 C48.93766198 159.5025793 48.93766198 159.5025793 43 207 C43.76739502 205.84890747 43.76739502 205.84890747 44.55029297 204.67456055 C45.27361816 203.58957275 45.99694336 202.50458496 46.7421875 201.38671875 C47.1373909 200.79375504 47.5325943 200.20079132 47.93977356 199.58985901 C50.15856635 196.26101058 52.3786147 192.93301008 54.60083008 189.60644531 C58.68890697 183.48425413 62.77323222 177.36028832 66.80566406 171.20124817 C68.38701552 168.78650271 69.97426132 166.37565828 71.56182861 163.96499634 C72.65439413 162.30043786 73.73822769 160.6301582 74.82177734 158.9597168 C87.88047011 139.15552525 87.88047011 139.15552525 97 137 C102.64807132 136.77937221 106.66631983 138.27101938 111 142 C115.03594873 148.54102035 115.13937345 154.74224788 115.17578125 162.19140625 C115.19902746 164.04363055 115.22314655 165.89584407 115.24804688 167.74804688 C115.28271897 170.63019534 115.31226034 173.51195836 115.32592773 176.39428711 C115.42651189 194.18530328 116.84261077 211.87328814 125 228 C125.49886719 228.98742187 125.99773438 229.97484375 126.51171875 230.9921875 C130.91956824 239.36377066 134.86525352 245.52281101 144 249 C148.85660357 249.84716694 152.61522524 249.67825703 157.0625 247.5 C160.36512095 244.68925877 163.59948555 241.80970627 166.82421875 238.91015625 C169.47370763 236.58412382 171.88749691 234.66482723 175 233 C177.16796875 233.41015625 177.16796875 233.41015625 179 234 C180.05215062 246.82621711 180.05215062 246.82621711 177.7578125 251.56640625 C175.97688505 253.6633047 174.17437381 255.31596557 172 257 C171.31292969 257.55042969 170.62585937 258.10085938 169.91796875 258.66796875 C160.9094899 265.24172359 151.14365355 268.4166899 140 267 C126.79817885 263.98090964 117.23306415 254.86904999 109.8984375 243.83984375 C97.15757059 223.19187452 95.17880136 198.55202829 92 175 C89.2322203 177.62461227 87.07754774 180.18796816 85.07421875 183.4296875 C84.53240967 184.29674316 83.99060059 185.16379883 83.43237305 186.05712891 C82.85656494 186.98702637 82.28075684 187.91692383 81.6875 188.875 C48.41533235 241.86155588 48.41533235 241.86155588 36 246 C31.61232811 246.6988429 28.73465038 246.3465332 24.6875 244.4375 C20.58350052 240.71526791 19.20484384 236.80819554 18.59594727 231.43334961 C18.58619873 230.18561768 18.5764502 228.93788574 18.56640625 227.65234375 C18.5563002 226.62366432 18.5563002 226.62366432 18.54598999 225.57420349 C18.53266918 223.36152903 18.54524324 221.15013353 18.5625 218.9375 C18.5638797 218.18277405 18.5652594 217.4280481 18.56668091 216.65045166 C18.60771698 204.50988981 19.79686433 193.02649746 22.54248047 181.17480469 C23.25181356 177.80301217 23.62782269 174.4240313 24 171 C23.47535156 171.90234375 22.95070313 172.8046875 22.41015625 173.734375 C15.20309492 186.08042614 7.79479584 198.30333638 0.3480835 210.5057373 C-1.87341616 214.14691578 -4.08605403 217.79327021 -6.2911377 221.44441223 C-7.3599376 223.21201846 -8.43198758 224.97760562 -9.50537109 226.74243164 C-10.83250831 228.92466356 -12.15481546 231.10984377 -13.47119141 233.29858398 C-17.53339285 239.95085539 -21.96532044 246.05093139 -27 252 C-27.52634033 252.62197266 -28.05268066 253.24394531 -28.5949707 253.88476562 C-37.49783908 264.18880462 -47.65349103 274.4606834 -61.79296875 276.37890625 C-67.9737147 276.64318642 -73.04769191 275.86388873 -78 272 C-88.83802822 260.86021694 -90.08105943 246.48068896 -90.65893555 231.72509766 C-90.83219653 227.40203558 -91.16990903 223.26021893 -92 219 C-93.68870774 220.83223263 -95.37597178 222.66576277 -97.0625 224.5 C-97.52849609 225.0053125 -97.99449219 225.510625 -98.47460938 226.03125 C-101.15235482 228.94580287 -103.78173267 231.89325261 -106.37109375 234.88671875 C-121.41966467 252.12570879 -142.83924474 274.78776516 -167.11303711 277.2109375 C-174.16428668 277.59045876 -179.71458839 275.29118578 -185.1875 270.9375 C-193.42257788 263.17161123 -194.94675457 253.90973622 -196 243 C-196.66 243 -197.32 243 -198 243 C-198.9075 243.94875 -199.815 244.8975 -200.75 245.875 C-214.21260317 259.644841 -232.52556371 269.10590821 -251.9375 269.4375 C-263.26510294 269.35133806 -273.20582389 266.16934738 -282 259 C-282.68707031 258.44828125 -283.37414062 257.8965625 -284.08203125 257.328125 C-291.94898513 250.28847984 -297.38367009 239.41634833 -299 229 C-299.06969021 226.33071024 -299.02488405 223.67088836 -299 221 C-302.89673419 221.05467777 -306.79168277 221.1501629 -310.6875 221.25 C-311.73228516 221.26417969 -312.77707031 221.27835938 -313.85351562 221.29296875 C-338.62792454 222.0028372 -363.58337577 227.20603312 -388.02056408 231.15403175 C-392.4996947 231.87759002 -396.97982812 232.59263253 -401.46337891 233.28833008 C-405.88941897 233.97521366 -410.311864 234.68189097 -414.73245239 235.40300179 C-416.39627228 235.67105311 -418.06122042 235.93220243 -419.7272644 236.18606377 C-422.03526251 236.53917464 -424.33773519 236.91765384 -426.640625 237.30249023 C-427.65338249 237.4484388 -427.65338249 237.4484388 -428.68659973 237.59733582 C-433.53605329 238.44816477 -435.8916744 240.24620003 -439 244 C-440.48896344 246.82876274 -440.48896344 246.82876274 -441.54296875 249.9609375 C-441.97198486 251.13906006 -442.40100098 252.31718262 -442.84301758 253.53100586 C-443.29198979 254.81205315 -443.74012823 256.09339292 -444.1875 257.375 C-444.66439751 258.71186988 -445.14186576 260.04853629 -445.61987305 261.38500977 C-459.53995123 295.56868138 -459.53995123 295.56868138 -466 331 C-460.39 328.03 -454.78 325.06 -449 322 C-447.16482654 327.50552037 -450.59102086 333.73862505 -452.89160156 338.87988281 C-455.91059379 344.65453667 -460.5016227 349.3521298 -465 354 C-465.6909375 354.75925781 -466.381875 355.51851563 -467.09375 356.30078125 C-470.01307547 358.90304883 -473.22610405 359.19595229 -477 359 C-481.05763553 357.49717203 -482.58772494 356.61841259 -485 353 C-489.97465611 317.3675795 -471.60223324 273.8603475 -462 240 C-462.90709717 239.7230127 -462.90709717 239.7230127 -463.83251953 239.44042969 C-471.21487537 237.10102399 -475.88761681 234.54335245 -479.9375 227.75 C-482.41361282 219.0107783 -481.17611412 211.96847722 -477 204 C-471.47034547 194.24853455 -464.88372865 185.96911199 -457 178 C-456.38189453 177.37351563 -455.76378906 176.74703125 -455.12695312 176.1015625 C-451.89463962 172.83428789 -448.64763168 169.58244711 -445.3828125 166.34765625 C-444.80047852 165.76773926 -444.21814453 165.18782227 -443.61816406 164.59033203 C-442.24630738 163.24207095 -440.8413432 161.92762615 -439.4296875 160.62109375 C-433.36244148 154.0758814 -429.8223917 146.84163736 -426.86328125 138.5 C-426.50191071 137.51427505 -426.14054016 136.52855011 -425.76821899 135.51295471 C-425.00176918 133.42132206 -424.24008278 131.3279385 -423.48287964 129.23294067 C-421.51577799 123.79921412 -419.50511306 118.38173181 -417.4921875 112.96484375 C-416.90494148 111.38315651 -416.90494148 111.38315651 -416.30583191 109.76951599 C-393.47710553 48.58343605 -393.47710553 48.58343605 -377.05859375 37.71484375 C-373.07618902 36.33195937 -369.13917756 36.35702096 -365 37 C-361.33927381 39.46538702 -360.23616318 40.93247152 -359.28442383 45.23461914 C-358.97707301 49.30352189 -359.48733716 52.24408787 -360.51171875 56.18359375 C-360.68121536 56.84279312 -360.85071198 57.50199249 -361.02534485 58.1811676 C-361.38483646 59.56685276 -361.75075736 60.95088448 -362.12280273 62.33325195 C-362.68402021 64.42453317 -363.22139505 66.52088238 -363.75585938 68.61914062 C-368.63278649 87.39549155 -368.63278649 87.39549155 -376 92 C-376.64485352 92.05986084 -377.28970703 92.11972168 -377.95410156 92.18139648 C-380.7318191 93.29281497 -381.2861214 95.03270708 -382.4352417 97.68727112 C-382.83081268 98.66384926 -382.83081268 98.66384926 -383.234375 99.66015625 C-383.51726379 100.32462265 -383.80015259 100.98908905 -384.09161377 101.6736908 C-384.99200891 103.79760349 -385.87111529 105.92960858 -386.75 108.0625 C-387.35669159 109.50383742 -387.9647483 110.94460104 -388.57421875 112.38476562 C-390.0654021 115.91671367 -391.53755295 119.4560623 -393 123 C-389.94085173 122.37366393 -387.6649373 121.36242528 -385.0078125 119.734375 C-384.23147461 119.26298096 -383.45513672 118.79158691 -382.65527344 118.3059082 C-381.8202832 117.7924585 -380.98529297 117.27900879 -380.125 116.75 C-378.32072742 115.6542644 -376.51602429 114.55923752 -374.7109375 113.46484375 C-373.7734668 112.89491699 -372.83599609 112.32499023 -371.87011719 111.73779297 C-364.45819118 107.25003443 -356.98866713 102.85985784 -349.51123047 98.48242188 C-347.23517694 97.13882893 -344.97715536 95.76994862 -342.72265625 94.390625 C-331.01179275 87.34019248 -315.05150548 79.19927404 -301 82 C-295.67114201 83.73947178 -291.48559546 86.56378759 -288 91 C-286.73308492 94.72156304 -286.7907367 96.41871305 -288.125 100.125 C-290.17688621 103.27122552 -291.85543495 104.95381823 -295 107 C-297.953125 107.109375 -297.953125 107.109375 -301.25 106.75 C-310.80129892 106.49104925 -317.8032608 110.4589952 -326 115 C-326.97864014 115.52980469 -326.97864014 115.52980469 -327.97705078 116.0703125 C-347.47983937 126.7108842 -365.95930141 139.83027475 -383.83984375 152.96875 C-386.73978259 155.09734785 -389.66982913 157.17315129 -392.62890625 159.21875 C-393.77528564 160.01369873 -393.77528564 160.01369873 -394.94482422 160.82470703 C-396.37865138 161.81586776 -397.81614668 162.80175637 -399.25830078 163.78076172 C-416.65022271 175.84185935 -422.17902172 194.83028835 -429 214 C-423.77001186 213.48721773 -418.54112949 212.96390927 -413.3125 212.4375 C-412.47876862 212.35407349 -411.64503723 212.27064697 -410.78604126 212.18469238 C-398.75518968 210.97547659 -386.74613072 209.62821023 -374.7421875 208.17578125 C-373.40720931 208.01578866 -372.07220243 207.85603521 -370.73716736 207.69651794 C-370.07321237 207.6171465 -369.40925737 207.53777506 -368.72518253 207.45599842 C-367.38042991 207.29525886 -366.03566963 207.13458328 -364.69090176 206.97397137 C-361.3968037 206.57935256 -358.10406946 206.17685237 -354.81216431 205.76412964 C-337.45251703 203.58897542 -320.4980501 202.52889168 -303 203 C-303.33 202.34 -303.66 201.68 -304 201 C-304.50769563 195.90639791 -304.66596892 191.44293266 -302.5 186.75 C-300.46154923 184.50770416 -298.63064223 182.93245509 -296.26953125 181.09765625 C-290.99214547 176.5076359 -288.28849169 170.86304812 -285.1875 164.6875 C-283.97517346 162.3573839 -282.75900032 160.02926524 -281.5390625 157.703125 C-280.94383789 156.56423828 -280.34861328 155.42535156 -279.73535156 154.25195312 C-261.69294768 120.44148328 -261.69294768 120.44148328 -245.87890625 114.6953125 C-238.32124982 112.86998978 -229.5442702 112.47343788 -222.68359375 116.58984375 C-218.00316495 120.5101101 -214.32642829 125.42534265 -213.76171875 131.609375 C-213.30925523 150.75572594 -221.16231541 168.96277033 -234 183 C-234.55558594 183.64710938 -235.11117187 184.29421875 -235.68359375 184.9609375 C-244.85427385 194.96902937 -257.53465587 202.17313435 -268.875 209.4765625 C-271.10799809 210.8273694 -271.10799809 210.8273694 -272 213 C-272.68014902 222.84908097 -272.31176115 230.9850474 -266.8125 239.3125 C-261.23153371 244.64542334 -255.61739086 246.66147922 -247.92578125 247.09765625 C-233.23014849 246.60714781 -222.51729518 239.29631034 -212.41210938 229.38134766 C-211.11901102 228.11641846 -209.80276337 226.87526683 -208.484375 225.63671875 C-200.42949417 217.92430734 -194.96187515 210.53372032 -192.0065918 199.68798828 C-188.48974782 186.80284517 -184.00752921 174.67718583 -178.63427734 162.45996094 C-177.48852548 159.84885015 -176.36286207 157.22966291 -175.23828125 154.609375 C-174.50378471 152.9239642 -173.76814918 151.2390492 -173.03125 149.5546875 C-172.53570618 148.39681229 -172.53570618 148.39681229 -172.03015137 147.21554565 C-168.65393457 139.61821791 -164.60704212 134.59605628 -157 131 C-155.68 131 -154.36 131 -153 131 C-153.350625 130.484375 -153.70125 129.96875 -154.0625 129.4375 C-155.50655281 125.6829627 -155.20676784 123.87435991 -154 120 C-146.21267063 109.29242212 -133.67276391 105.05108318 -121 103 C-117.50958006 102.90098099 -114.93772887 103.30426568 -112.0625 105.4375 C-111 107 -111 107 -111 109 C-109.77228882 108.63539673 -109.77228882 108.63539673 -108.51977539 108.26342773 C-101.98205127 106.35474025 -95.44134231 104.58334996 -88.80859375 103.03515625 C-87.41861029 102.70642038 -86.02863638 102.37764413 -84.63867188 102.04882812 C-82.52095015 101.54886885 -80.40255921 101.05461193 -78.2800293 100.57543945 C-76.18114459 100.09929805 -74.0887105 99.60053412 -71.99609375 99.09765625 C-70.77075928 98.81414307 -69.5454248 98.53062988 -68.28295898 98.23852539 C-62.98212335 96.23873814 -60.37171012 93.07647793 -57.97045898 88.08129883 C-57.30031934 86.54506301 -56.64286681 85.00324994 -55.99609375 83.45703125 C-55.63595184 82.62379837 -55.27580994 81.79056549 -54.90475464 80.93208313 C-54.13635716 79.15119403 -53.37321137 77.36803129 -52.61489868 75.58282471 C-51.03096579 71.8559576 -49.41959169 68.14118393 -47.80955505 64.42553711 C-47.00517368 62.56851113 -46.20207983 60.71092691 -45.40028381 58.8527832 C-42.11491047 51.24052295 -38.76167617 43.66457082 -35.3125 36.125 C-34.86898193 35.13733643 -34.42546387 34.14967285 -33.96850586 33.13208008 C-29.76254254 23.98381199 -24.36548527 15.62232236 -18.4375 7.5 C-17.73496094 6.5203125 -17.03242187 5.540625 -16.30859375 4.53125 C-11.85837982 -0.34817238 -6.35119186 -2.65040122 0 0 Z M-27 81 C-26 84 -26 84 -26 84 Z M-28 84 C-28.66 85.65 -29.32 87.3 -30 89 C-29.01 88.67 -28.02 88.34 -27 88 C-27.33 86.68 -27.66 85.36 -28 84 Z M32.10131836 92.16162109 C31.10696274 92.41543549 30.11260712 92.66924988 29.08811951 92.93075562 C28.01618851 93.20884064 26.94425751 93.48692566 25.83984375 93.7734375 C24.18862267 94.19914536 24.18862267 94.19914536 22.50404358 94.63345337 C20.17594486 95.23515887 17.8483559 95.83883961 15.52124023 96.44433594 C11.95035154 97.37166257 8.37668344 98.2876743 4.80273438 99.203125 C2.5440917 99.78837162 0.28562208 100.37428657 -1.97265625 100.9609375 C-3.04661148 101.23497406 -4.12056671 101.50901062 -5.22706604 101.79135132 C-6.2182695 102.05147003 -7.20947296 102.31158875 -8.23071289 102.57958984 C-9.10546768 102.80609222 -9.98022247 103.0325946 -10.88148499 103.26596069 C-13.18119315 103.89010259 -13.18119315 103.89010259 -15 106 C-15.185625 107.7325 -15.185625 107.7325 -15.375 109.5 C-16 113 -16 113 -17.8125 114.4375 C-20 115 -20 115 -24 115 C-25.484375 113.46875 -25.484375 113.46875 -26.75 111.5 C-27.17796875 110.8503125 -27.6059375 110.200625 -28.046875 109.53125 C-28.36140625 109.0259375 -28.6759375 108.520625 -29 108 C-30.27445454 108.42683632 -31.54445882 108.86697202 -32.8125 109.3125 C-33.87404297 109.67794922 -33.87404297 109.67794922 -34.95703125 110.05078125 C-38.05635677 111.49081203 -39.60669705 113.09586546 -40.97631836 116.24438477 C-41.26128174 117.13440186 -41.54624512 118.02441895 -41.83984375 118.94140625 C-42.1747583 119.9792627 -42.50967285 121.01711914 -42.85473633 122.08642578 C-43.21204834 123.23353027 -43.56936035 124.38063477 -43.9375 125.5625 C-44.31865967 126.76890137 -44.69981934 127.97530273 -45.0925293 129.21826172 C-48.67148106 140.63539124 -52.00268424 152.12755004 -55.3125 163.625 C-55.56675751 164.50334503 -55.82101501 165.38169006 -56.08297729 166.28665161 C-60.68100666 182.2130621 -65.22692294 198.13920216 -66.3125 214.75 C-66.39024658 215.83474609 -66.46799316 216.91949219 -66.5480957 218.03710938 C-68.30247569 235.38672709 -68.30247569 235.38672709 -65 252 C-58.97091198 252.66989867 -55.56611925 249.22516964 -51.10546875 245.66015625 C-11.63452469 212.54030322 13.06419534 152.8044891 33.8125 107 C34.12549042 106.31098602 34.43848083 105.62197205 34.76095581 104.91207886 C35.64363478 102.96434441 36.52035677 101.01406391 37.39453125 99.0625 C37.89831299 97.93972656 38.40209473 96.81695312 38.92114258 95.66015625 C40.12527649 93.16953764 40.12527649 93.16953764 40 91 C37.07245451 91 34.92290797 91.43681176 32.10131836 92.16162109 Z M-77.7265625 121.06640625 C-78.66395264 121.30141846 -79.60134277 121.53643066 -80.56713867 121.77856445 C-81.57623291 122.03726318 -82.58532715 122.29596191 -83.625 122.5625 C-84.67083252 122.82699951 -85.71666504 123.09149902 -86.79418945 123.36401367 C-96.065084 125.7244896 -105.30383578 128.20392046 -114.53173828 130.72680664 C-115.56669434 131.00903076 -116.60165039 131.29125488 -117.66796875 131.58203125 C-118.57828857 131.83186768 -119.4886084 132.0817041 -120.42651367 132.33911133 C-124.396277 133.35857336 -128.09938237 134.12901235 -132.20703125 134.09765625 C-132.95791016 134.09443359 -133.70878906 134.09121094 -134.48242188 134.08789062 C-135.25134766 134.07951172 -136.02027344 134.07113281 -136.8125 134.0625 C-137.60076172 134.05798828 -138.38902344 134.05347656 -139.20117188 134.04882812 C-141.13414761 134.03711312 -143.06708393 134.01917998 -145 134 C-144.51466797 135.28003906 -144.51466797 135.28003906 -144.01953125 136.5859375 C-141.26790145 145.80020742 -142.32322043 157.13731492 -146 166 C-148.97388301 169.89819799 -151.26413964 170.35037652 -156 171 C-157.62363631 175.79529177 -159.2406741 180.59274649 -160.85229492 185.39208984 C-161.39845016 187.01570832 -161.9462349 188.6387798 -162.49584961 190.26123047 C-165.46836247 199.03981564 -168.32539298 207.83350691 -170.83203125 216.7578125 C-171.03777267 217.48362518 -171.2435141 218.20943787 -171.45549011 218.95724487 C-173.55499557 226.60282089 -174.15676312 233.73626068 -173.75 241.625 C-173.72292969 242.45773438 -173.69585938 243.29046875 -173.66796875 244.1484375 C-173.43866591 248.79366915 -173.14361113 252.31895653 -170 256 C-160.91056135 257.65262521 -152.19387406 252.67474257 -144.8125 247.75 C-140.52200417 244.59219507 -136.83415526 241.0153749 -133.14453125 237.18359375 C-131.19001357 235.19347466 -129.18471054 233.36999394 -127.0625 231.5625 C-120.23558414 225.68754452 -113.98269911 219.26273636 -108.18359375 212.37890625 C-106.32094032 210.34964696 -104.41502041 208.4748157 -102.41015625 206.58984375 C-101.419552 205.64467896 -101.419552 205.64467896 -100.40893555 204.68041992 C-99.0932235 203.43167006 -97.76338296 202.19756924 -96.41723633 200.98168945 C-87.52800168 192.48666606 -85.13540149 180.64794059 -82.23214722 169.10205078 C-81.29413277 165.37416998 -80.3271476 161.6538423 -79.359375 157.93359375 C-79.16512436 157.1852829 -78.97087372 156.43697205 -78.77073669 155.66598511 C-76.52096706 147.063983 -73.97663355 138.55613064 -71.38745117 130.05053711 C-71.07267822 129.01292236 -70.75790527 127.97530762 -70.43359375 126.90625 C-70.15572021 126.00197266 -69.87784668 125.09769531 -69.59155273 124.16601562 C-68.91218073 122.05266661 -68.91218073 122.05266661 -69 120 C-72.33592544 120 -74.56414024 120.26786819 -77.7265625 121.06640625 Z M-244.66015625 139.5546875 C-252.93873979 148.34243221 -264 165.46138906 -264 178 C-259.10158165 175.74429494 -255.18092326 172.35751562 -251 169 C-250.06220703 168.28650391 -250.06220703 168.28650391 -249.10546875 167.55859375 C-240.90147182 161.05836142 -235.48599005 152.13982608 -233 142 C-232.73278761 139.22712386 -232.7894002 136.79044734 -233 134 C-238.35725258 134 -240.90901938 136.04185815 -244.66015625 139.5546875 Z M25 168 C26 170 26 170 26 170 Z " fill="#1D1D1B" transform="translate(1227,2)"/>
<path d="M0 0 C2.43984498 2.00415838 2.97123955 2.91371864 4 6 C4.1035923 8.39392564 4.14591468 10.79063066 4.15771484 13.18676758 C4.16279556 13.91574249 4.16787628 14.64471741 4.17311096 15.39578247 C4.18381215 16.98029695 4.19243332 18.56482652 4.19923019 20.14936256 C4.21105558 22.66969678 4.23052389 25.18986243 4.25234985 27.71012878 C4.31379903 34.87692507 4.36772319 42.04370844 4.40136719 49.21069336 C4.42251125 53.5974604 4.45798065 57.9839265 4.50212479 62.37051964 C4.51614394 64.03077293 4.52497482 65.69107954 4.52817917 67.35138893 C4.55846687 81.55849826 4.94300724 98.49541898 14.4375 109.9375 C20.17451579 114.55509808 24.90414443 116.44980571 32.23828125 116.33203125 C38.022519 115.6366137 42.76287744 113.26538095 46.85546875 109.12109375 C60.98032995 90.18331688 55.67919592 53.98564712 54.51171875 31.85546875 C53.91108114 28.50381916 53.18237602 26.62617156 51 24 C47.94656434 22.68302863 47.94656434 22.68302863 44.5 21.9375 C38.48545355 20.46772908 38.48545355 20.46772908 36.07421875 18.14453125 C34.27207861 14.54680421 35.2888021 11.87926125 36 8 C42.2144513 5.73349328 48.29693801 4.23169315 54.8203125 3.17578125 C56.17465897 2.94909004 56.17465897 2.94909004 57.55636597 2.71781921 C59.44991557 2.40266438 61.34406384 2.09108724 63.23876953 1.78295898 C66.12574138 1.31237915 69.01014081 0.82792183 71.89453125 0.34179688 C73.74465504 0.03563155 75.5949113 -0.26973452 77.4453125 -0.57421875 C78.29964874 -0.71792404 79.15398499 -0.86162933 80.03421021 -1.00968933 C87.67983879 -2.23916457 93.97776643 -2.91624564 101 1 C105.0068897 5.64879361 104.42695814 10.85030673 104.40063477 16.66186523 C104.40761383 17.73560394 104.4145929 18.80934265 104.42178345 19.9156189 C104.44177119 23.46335691 104.44126005 27.01080442 104.44140625 30.55859375 C104.45317699 33.02572923 104.46654046 35.49285757 104.48143005 37.9599762 C104.51764102 44.45630344 104.53782422 50.95256752 104.55297852 57.44897461 C104.57779328 67.84381505 104.61746166 78.23851584 104.67487907 88.63322639 C104.6912047 92.26377242 104.69498572 95.8941868 104.69789124 99.52476501 C104.70766858 101.75275906 104.71793203 103.98075105 104.72875977 106.20874023 C104.72620682 107.21724533 104.72365387 108.22575043 104.72102356 109.26481628 C104.75711043 114.20637551 104.9188832 118.41345031 107 123 C109.98195445 125.23646584 113.36276884 125.50401393 117 126 C117.31477645 131.24627415 117.03459483 134.63776993 114 139 C106.39151532 145.44075562 96.79823826 147.64501954 87.01953125 147.34375 C78.1368024 146.33252084 70.8083241 142.81127949 65 136 C61.4380663 131.15089189 58.19876759 126.09311971 55 121 C50.72059788 122.35724539 48.82253395 124.07010061 46.0625 127.5625 C35.73457911 139.41730621 21.47916265 146.0214764 5.84765625 147.15625 C-7.55507875 147.67758815 -20.85061139 143.90098138 -31 135 C-39.36329515 124.74148827 -43.04400925 111.39524 -43.17358398 98.28027344 C-43.18707382 97.17762146 -43.20056366 96.07496948 -43.21446228 94.93890381 C-43.22490067 93.7576593 -43.23533905 92.57641479 -43.24609375 91.359375 C-43.27906816 88.81770536 -43.31227912 86.27603877 -43.34570312 83.734375 C-43.39278354 79.75912885 -43.43716171 75.78392118 -43.47680664 71.80859375 C-43.60541349 53.6075034 -43.60541349 53.6075034 -44.78515625 35.453125 C-44.84473007 34.75072693 -44.90430389 34.04832886 -44.96568298 33.324646 C-45.48998509 28.81229862 -46.7887442 26.20085377 -50 23 C-52.97152438 21.80431531 -52.97152438 21.80431531 -56.1875 21.25 C-61.9480916 20.0519084 -61.9480916 20.0519084 -63 19 C-63.203125 16.8203125 -63.203125 16.8203125 -63.25 14.125 C-63.27578125 13.24070313 -63.3015625 12.35640625 -63.328125 11.4453125 C-63 9 -63 9 -61.94995117 7.44311523 C-59.06556066 5.30844235 -55.93765336 4.99731929 -52.47265625 4.46484375 C-51.35642128 4.27856163 -51.35642128 4.27856163 -50.21763611 4.08851624 C-47.83429874 3.69345398 -45.44864036 3.3152232 -43.0625 2.9375 C-41.49135364 2.68015008 -39.92038748 2.42169751 -38.34960938 2.16210938 C-35.30279669 1.66024754 -32.25493334 1.16584718 -29.20581055 0.67822266 C-24.60544966 -0.05890244 -20.0136214 -0.84395947 -15.42333984 -1.64135742 C-9.99028502 -2.44542326 -4.96599328 -2.69582493 0 0 Z " fill="#1D1D1B" transform="translate(339,115)"/>
<path d="M0 0 C1.155 0.31195313 2.31 0.62390625 3.5 0.9453125 C11.79603526 3.41338299 18.27788717 6.69474501 22.875 14.25 C26.83637717 22.22610622 27.92805057 31.17659384 27 40 C25.66792442 43.45128672 24.59003919 45.40996081 22 48 C17.65698038 48.94098758 15.31146967 49.40593109 11.046875 48.0859375 C6.72358961 45.12614981 5.20243382 41.46958184 3 36.8125 C-0.80130758 28.95850805 -4.73908769 20.85890763 -12 15.625 C-12.61875 15.16351563 -13.2375 14.70203125 -13.875 14.2265625 C-21.16431099 10.01912932 -30.24520671 9.69469093 -38.359375 11.53515625 C-41.90370416 12.92107983 -44.14099066 14.6950945 -46 18 C-47.7097368 23.1292104 -47.64617595 28.06147216 -45.9375 33.1875 C-38.62571195 43.80138588 -26.4274537 46.56075633 -14.75 50.375 C2.76750211 56.12273557 20.90479694 62.17994174 30.24609375 79.28125 C34.71321434 89.29749272 34.81963888 102.72968135 31.4375 113.125 C25.52751126 126.42762273 14.91301287 133.2931585 1.796875 138.6484375 C-22.12870343 147.52324545 -46.21063104 146.47573042 -70 138 C-70.65661621 137.77296387 -71.31323242 137.54592773 -71.98974609 137.31201172 C-85.2373901 132.64083896 -85.2373901 132.64083896 -88.17578125 126.58984375 C-91.45358827 116.29038378 -94.3828552 104.04761501 -89.5 93.875 C-85.95594659 91.21695994 -82.4029865 90.52480415 -78 91 C-72.86335351 93.07517362 -71.27623979 96.75671567 -69.125 101.5625 C-63.75189415 112.83069227 -58.5226682 122.38083564 -46.296875 127.02734375 C-36.64326178 129.95308966 -28.38746099 129.81416979 -19 126 C-14.30376675 123.20224402 -12.66496442 120.17015267 -11 115 C-10.63238969 110.66219836 -10.64742597 107.68434194 -13 104 C-20.90905417 98.45195116 -31.15749072 96.00938621 -40.24853516 92.953125 C-58.4913104 86.79311059 -77.640486 78.87917507 -87.375 61.0625 C-92.60318353 49.3800545 -92.00110941 36.92266069 -88 25 C-83.11184319 13.24250161 -74.35712395 6.65313062 -62.87744141 1.74316406 C-42.57771062 -6.29225603 -20.73842768 -5.92377779 0 0 Z " fill="#1D1D1B" transform="translate(557,117)"/>
<path d="M0 0 C7.17692498 5.93427719 10.65317692 12.12203597 11.9375 21.375 C12.51159282 28.29542794 11.66550898 34.78622312 8.5 41 C3.17946648 47.18332273 -1.53606157 51.1181478 -9.92578125 52.0234375 C-17.92199311 52.12107134 -24.64441083 51.6441005 -30.66015625 45.93359375 C-35.74016217 40.18105749 -36.18347238 35.78475233 -36.921875 28.16796875 C-37.99469584 23.97549784 -39.46942004 22.37089207 -42.8125 19.6875 C-47.2716377 18.36627401 -50.74696908 18.316622 -54.984375 20.42578125 C-62.89349897 25.88442878 -67.47528085 33.9552269 -69.3215332 43.25024414 C-69.93520411 47.54655081 -70.16740982 51.80750893 -70.359375 56.140625 C-70.40100769 57.05668518 -70.44264038 57.97274536 -70.48553467 58.91656494 C-70.89000875 68.46818893 -71.03302399 78.01663307 -71.05273438 87.57617188 C-71.06263869 90.47813566 -71.0939231 93.37944483 -71.125 96.28125 C-71.13151613 98.16145426 -71.13677202 100.0416634 -71.140625 101.921875 C-71.1591452 103.19704987 -71.1591452 103.19704987 -71.17803955 104.49798584 C-71.15681443 110.24401023 -70.3434954 115.47035437 -67.8125 120.6875 C-64.51106312 123.67451432 -61.29896798 124.89798144 -57.125 126.1875 C-54.42084643 127.04480332 -52.90174481 127.61400427 -50.6875 129.4375 C-49.35944578 132.85249658 -49.84561639 135.20671902 -50.8125 138.6875 C-54.35614951 141.40447507 -58.57501838 140.97610969 -62.83813477 140.9621582 C-63.64344635 140.96726913 -64.44875793 140.97238007 -65.2784729 140.97764587 C-67.93702652 140.99153213 -70.59532071 140.99058625 -73.25390625 140.98828125 C-75.10188392 140.9921679 -76.94986069 140.9965025 -78.7978363 141.00126648 C-82.66888324 141.008726 -86.53983897 141.00843875 -90.41088867 141.00317383 C-95.37666561 140.99737078 -100.34207059 141.01433157 -105.30778599 141.0375185 C-109.1227182 141.05223162 -112.93756024 141.05313101 -116.75251579 141.05000877 C-118.5837878 141.05052292 -120.41506474 141.05577808 -122.24630928 141.06582069 C-124.80320766 141.07812492 -127.35937356 141.07143069 -129.91625977 141.05981445 C-130.67530106 141.06745819 -131.43434235 141.07510193 -132.21638489 141.08297729 C-137.32898771 141.03150541 -137.32898771 141.03150541 -139.78330994 139.2853241 C-141.07130208 137.28570814 -141.18327347 136.05429922 -141.125 133.6875 C-141.12113281 133.006875 -141.11726563 132.32625 -141.11328125 131.625 C-140.8125 129.6875 -140.8125 129.6875 -138.8125 126.6875 C-136.82421875 126.0625 -136.82421875 126.0625 -134.5 125.6875 C-130.70612536 124.93237888 -127.86267353 124.19940761 -124.8125 121.6875 C-121.07490897 115.54717189 -120.66222252 109.87035352 -120.65136719 102.82714844 C-120.64640228 102.05083572 -120.64143738 101.27452301 -120.63632202 100.47468567 C-120.62175993 97.9154063 -120.61490796 95.35618893 -120.609375 92.796875 C-120.60361816 91.00954183 -120.59786049 89.22220866 -120.59210205 87.43487549 C-120.58160864 83.68916538 -120.57575528 79.94347663 -120.57226562 76.19775391 C-120.56678784 71.41534 -120.54276809 66.63321178 -120.51429367 61.8508873 C-120.49560112 58.15839838 -120.49045815 54.46597735 -120.48892975 50.77344513 C-120.48591705 49.01131887 -120.47793562 47.24919341 -120.46474457 45.48711395 C-119.7629428 31.13061702 -119.7629428 31.13061702 -125.6796875 18.69140625 C-128.11658151 17.54437006 -130.27679552 17.03403367 -132.9375 16.625 C-137.60160369 15.89839631 -137.60160369 15.89839631 -139.8125 13.6875 C-140.38163471 6.63022955 -140.38163471 6.63022955 -138.57180786 3.63238525 C-136.46238371 1.30045233 -135.36482461 1.00868081 -132.30029297 0.49902344 C-130.93274368 0.2592276 -130.93274368 0.2592276 -129.53756714 0.0145874 C-128.55321686 -0.13975769 -127.56886658 -0.29410278 -126.5546875 -0.453125 C-125.53706329 -0.62503357 -124.51943909 -0.79694214 -123.47097778 -0.97406006 C-121.31530803 -1.33477861 -119.15825159 -1.68729171 -117 -2.03222656 C-113.71799127 -2.55761888 -110.44108727 -3.1085175 -107.1640625 -3.6640625 C-105.06535604 -4.01193964 -102.96640431 -4.35834087 -100.8671875 -4.703125 C-99.40888016 -4.94678802 -99.40888016 -4.94678802 -97.92111206 -5.19537354 C-81.68175695 -7.76500409 -81.68175695 -7.76500409 -75.8125 -4.3125 C-72.09320819 -0.86871128 -71.6962887 3.91164185 -70.8125 8.6875 C-70.503125 10.2034375 -70.503125 10.2034375 -70.1875 11.75 C-70.001875 12.7090625 -70.001875 12.7090625 -69.8125 13.6875 C-65.31455869 11.71471872 -61.88504013 10.01748844 -58.5625 6.375 C-43.36527115 -9.75904433 -17.9245055 -13.14070007 0 0 Z " fill="#1D1D1B" transform="translate(258.8125,119.3125)"/>
<path d="M0 0 C3.37278258 2.8909565 4.56327043 7.54218106 4.97460938 11.85498047 C5.00841839 14.30563691 4.96392147 16.7382935 4.875 19.1875 C4.61401564 26.40101523 4.61401564 26.40101523 5.75 33.5 C9.82011189 34.43064366 13.78387764 34.76132598 17.94921875 35 C19.33659032 35.08330366 20.72396006 35.16663788 22.11132812 35.25 C24.28386467 35.37627298 26.45647825 35.50108242 28.62915039 35.625 C30.73607092 35.74638442 32.8426321 35.8729725 34.94921875 36 C36.20565186 36.0721875 37.46208496 36.144375 38.7565918 36.21875 C41.75 36.5 41.75 36.5 43.75 37.5 C43.77685095 39.97923801 43.79676547 42.4581884 43.8125 44.9375 C43.82087891 45.64455078 43.82925781 46.35160156 43.83789062 47.08007812 C43.84653588 48.88693559 43.80220011 50.69387603 43.75 52.5 C42.75 53.5 42.75 53.5 39.76245117 53.59765625 C38.45252197 53.58605469 37.14259277 53.57445312 35.79296875 53.5625 C35.09359695 53.55871338 34.39422516 53.55492676 33.67366028 53.55102539 C30.67193553 53.53463771 27.67034503 53.50662423 24.66870117 53.47949219 C22.48096346 53.46137822 20.2932482 53.44929692 18.10546875 53.4375 C16.79215576 53.42589844 15.47884277 53.41429687 14.12573242 53.40234375 C11.42377885 53.48050831 9.29925212 53.67893798 6.75 54.5 C5.59077773 58.65938765 5.59483464 62.69084299 5.58886719 66.98120117 C5.58390228 67.83539642 5.57893738 68.68959167 5.57382202 69.56967163 C5.55922461 72.39411223 5.55240153 75.21849663 5.546875 78.04296875 C5.54112045 80.01109315 5.53536275 81.97921754 5.52960205 83.94734192 C5.51909818 88.07565573 5.51325186 92.2039501 5.50976562 96.33227539 C5.50428989 101.60682678 5.4802789 106.88111886 5.45179367 112.1555891 C5.43311187 116.22295364 5.42795869 120.29025649 5.42642975 124.35766029 C5.42341393 126.30120571 5.41542179 128.24475032 5.40224457 130.1882534 C5.38507209 132.91630775 5.38709176 135.6437388 5.39355469 138.37182617 C5.3843399 139.16540024 5.37512512 139.9589743 5.3656311 140.77659607 C5.4147593 147.4407955 6.52108758 153.88898831 10.9375 159.0625 C17.34370874 162.33678447 22.923777 160.23650639 29.35546875 158.19140625 C32.71970858 157.22000258 35.29025477 156.87724586 38.75 157.5 C41.25 160.1875 41.25 160.1875 42.75 163.5 C42.53831185 166.49656344 42.13737212 168.04630362 40.17578125 170.34375 C26.09485409 181.37944892 9.89930013 182.40259474 -7.25 181.5 C-18.45639614 180.102162 -27.76123222 174.95364004 -35.49609375 166.765625 C-42.44278486 157.79217101 -44.55829558 146.75162355 -44.52124023 135.66308594 C-44.52646698 134.83099609 -44.53169373 133.99890625 -44.53707886 133.14160156 C-44.5472446 131.35255547 -44.55308615 129.56348042 -44.55496025 127.77440643 C-44.55865029 124.94095775 -44.57544501 122.10785086 -44.59571838 119.2744751 C-44.65090336 111.22504011 -44.68188669 103.1755577 -44.70629883 95.12597656 C-44.72217199 90.18772255 -44.75237585 85.24971727 -44.79106331 80.3115921 C-44.80270204 78.434559 -44.80864356 76.55748148 -44.80874443 74.68041229 C-44.80893649 72.05978842 -44.82719921 69.43985286 -44.84936523 66.81933594 C-44.84478806 66.04728821 -44.84021088 65.27524048 -44.835495 64.47979736 C-44.89540128 60.02472092 -45.31703454 56.94605153 -48.25 53.5 C-51.24997079 53.01100476 -53.75128506 52.7999845 -56.75 52.8125 C-64.91413874 52.72390751 -64.91413874 52.72390751 -68.25 50.5 C-68.54296875 48.3359375 -68.54296875 48.3359375 -68.4375 45.875 C-68.41042969 45.05773437 -68.38335938 44.24046875 -68.35546875 43.3984375 C-68.32066406 42.77195313 -68.28585937 42.14546875 -68.25 41.5 C-64.74424622 39.96735636 -61.26135508 38.50420237 -57.671875 37.17578125 C-49.16597991 34.01774148 -42.34305001 30.28212328 -35.25 24.5 C-34.42757812 23.8915625 -33.60515625 23.283125 -32.7578125 22.65625 C-29.80285785 20.11554133 -27.54916108 17.24323721 -25.25 14.125 C-12.59639359 -2.79919858 -12.59639359 -2.79919858 0 0 Z " fill="#1D1D1B" transform="translate(660.25,79.5)"/>
<path d="M0 0 C2.37855094 1.90284075 3.08714191 2.94870206 4.1875 5.75 C4.47460938 8.46728516 4.47460938 8.46728516 4.53125 11.5390625 C4.56089844 12.64507812 4.59054688 13.75109375 4.62109375 14.890625 C4.66551342 17.22135133 4.70978326 19.55208053 4.75390625 21.8828125 C4.78355469 22.98625 4.81320313 24.0896875 4.84375 25.2265625 C4.87178711 26.7437085 4.87178711 26.7437085 4.90039062 28.29150391 C4.95047461 30.9265169 4.95047461 30.9265169 7.1875 32.75 C16.27565819 34.60659726 25.44376582 34.98759424 34.68969727 34.67626953 C38.46108099 34.58188381 39.95287098 34.59358065 43.1875 36.75 C44.64344789 41.72448863 44.14196131 46.71256533 43.1875 51.75 C42.1875 52.75 42.1875 52.75 39.30761719 52.81591797 C38.04594727 52.79158691 36.78427734 52.76725586 35.484375 52.7421875 C34.09766373 52.72465856 32.71094448 52.7077515 31.32421875 52.69140625 C29.13405366 52.66053124 26.94428604 52.62514419 24.75439453 52.57861328 C22.6435055 52.53608009 20.53307731 52.5127713 18.421875 52.4921875 C16.52260254 52.45907471 16.52260254 52.45907471 14.58496094 52.42529297 C10.93018515 52.77459247 9.08452403 53.54137108 6.1875 55.75 C4.57986201 58.96527598 5.03123709 62.4715645 5.02636719 66.00415039 C5.02140228 66.85805359 5.01643738 67.71195679 5.01132202 68.59173584 C4.99667563 71.42705077 4.98989222 74.26230964 4.984375 77.09765625 C4.978623 79.06863914 4.97286527 81.03962201 4.96710205 83.01060486 C4.95658326 87.15087139 4.9507472 91.29111846 4.94726562 95.43139648 C4.94179688 100.72169943 4.91780731 106.01174291 4.88929367 111.30196476 C4.87060828 115.3779117 4.86545842 119.4537971 4.86392975 123.52978325 C4.86091304 125.4789108 4.85291786 127.42803751 4.83974457 129.37712288 C4.82257018 132.11497392 4.82459261 134.85220392 4.83105469 137.59008789 C4.8218399 138.38680405 4.81262512 139.1835202 4.8031311 140.00437927 C4.84416728 145.5922 5.77576146 150.66705712 8.1875 155.75 C11.4024194 158.8883737 13.97585466 159.98288859 18.375 160.1875 C23.0122501 159.99918528 27.21926202 158.75270986 31.609375 157.30859375 C34.52715366 156.67640837 36.3459769 156.88687524 39.1875 157.75 C41.0625 159.4375 41.0625 159.4375 42.1875 161.75 C42.32452696 164.90162014 41.94895781 166.81007552 39.9375 169.29296875 C28.21663591 180.25310368 12.54897011 181.34979778 -2.66015625 181.06640625 C-14.90377856 180.53252088 -26.9242664 175.67986334 -35.31640625 166.609375 C-46.34544932 152.90226142 -44.92472432 131.59498754 -45.07286072 114.97846794 C-45.09426932 112.59451508 -45.12124248 110.21067803 -45.14953613 107.82679749 C-45.21859689 101.92023722 -45.27890864 96.01359531 -45.33856201 90.10693359 C-45.38955205 85.08209715 -45.44432135 80.05733122 -45.50437927 75.03259468 C-45.53084373 72.68833147 -45.55170534 70.34406088 -45.5723877 67.9997406 C-45.58898734 66.56614859 -45.60585888 65.13255969 -45.62304688 63.69897461 C-45.63557495 62.45023056 -45.64810303 61.20148651 -45.66101074 59.91490173 C-45.71727469 56.57592174 -45.71727469 56.57592174 -46.8125 52.75 C-52.7525 52.42 -58.6925 52.09 -64.8125 51.75 C-64.8125 47.46 -64.8125 43.17 -64.8125 38.75 C-63.78511719 38.39808594 -62.75773437 38.04617187 -61.69921875 37.68359375 C-44.30451221 31.55902327 -31.01740517 22.50197383 -20.83007812 6.890625 C-15.98064783 -0.2465518 -8.48279097 -3.77012932 0 0 Z " fill="#1D1D1B" transform="translate(64.8125,80.25)"/>
<path d="M0 0 C2.99388956 1.24745398 4.41942348 2.04752393 6.09765625 4.80078125 C7.72854984 8.77564312 7.68059358 12.79393167 7 17 C4.47323961 20.34625024 2.96066458 21.67977847 -1 23 C-5.73039335 23.38773716 -8.05546399 23.48117872 -12.3125 21.3125 C-15.14126219 18.87844881 -16.68136405 17.49050691 -18 14 C-18.18723846 10.8339679 -17.94666509 8.03272948 -17 5 C-11.82164078 -0.31113766 -7.11853718 -0.62777651 0 0 Z " fill="#1D1D1B" transform="translate(1109,44)"/>
</svg>
