<svg width="400" height="400" viewBox="0 0 400 400" fill="none" xmlns="http://www.w3.org/2000/svg">
<rect width="400" height="400" fill="#5423E7"/>
<path fill-rule="evenodd" clip-rule="evenodd" d="M186.082 228.983L253.383 260.098C261.725 263.957 267.612 270.432 270.792 277.86C278.835 296.67 267.842 315.907 250.587 322.826C233.329 329.741 214.936 325.29 206.572 305.73L177.283 237.056C175.013 231.733 180.715 226.502 186.082 228.983Z" fill="#FFC233"/>
<path fill-rule="evenodd" clip-rule="evenodd" d="M190.116 208.841L259.589 182.579C282.678 173.851 307.899 190.365 307.558 214.36C307.553 214.674 307.548 214.987 307.54 215.303C307.041 238.669 282.521 254.374 259.939 246.107L190.182 220.576C184.617 218.54 184.576 210.935 190.116 208.841Z" fill="#FFC233"/>
<path fill-rule="evenodd" clip-rule="evenodd" d="M186.227 199.745L254.521 170.726C277.215 161.082 282.974 132.137 265.2 115.413C264.967 115.193 264.734 114.976 264.499 114.758C247.072 98.5834 218.266 104.278 208.345 125.583L177.699 191.404C175.254 196.653 180.78 202.058 186.227 199.745Z" fill="#FFC233"/>
<path fill-rule="evenodd" clip-rule="evenodd" d="M168.652 188.278L193.481 120.196C196.56 111.754 195.99 103.145 192.807 95.7173C184.748 76.9155 162.923 70.8463 145.67 77.7753C128.42 84.7069 118.672 100.449 127.052 120.002L156.533 188.601C158.819 193.917 166.673 193.707 168.652 188.278Z" fill="#FFC233"/>
</svg>
