<svg width="400" height="400" viewBox="0 0 400 400" fill="none" xmlns="http://www.w3.org/2000/svg">
<rect width="400" height="400" fill="black"/>
<path d="M270.429 234.429C272.855 236.855 271.135 241 267.709 241H203.85C201.72 241 200 242.72 200 244.85V308.709C200 312.135 195.855 313.855 193.429 311.429L124.501 242.501C123.539 241.539 123 240.23 123 238.87V167.85C123 165.72 124.72 164 126.85 164H200L270.429 234.429Z" fill="white"/>
<path d="M200 164L129.571 93.5707C127.145 91.1452 128.865 87 132.291 87H273.15C275.28 87 277 88.7197 277 90.85V160.15C277 162.28 275.28 164 273.15 164H200Z" fill="white"/>
</svg>
